<ttFont>
    <TTGlyph name=".notdef" xMin="216" yMin="0" xMax="3255" yMax="3471">
      <contour>
        <pt x="216" y="0" on="1"/>
        <pt x="216" y="3471" on="1"/>
        <pt x="3255" y="3471" on="1"/>
        <pt x="3255" y="0" on="1"/>
      </contour>
      <contour>
        <pt x="3039" y="216" on="1"/>
        <pt x="3039" y="3255" on="1"/>
        <pt x="432" y="3255" on="1"/>
        <pt x="432" y="216" on="1"/>
      </contour>
    </TTGlyph>
    <TTGlyph name="A" xMin="0" yMin="61" xMax="2918" yMax="3717">
      <contour>
        <pt x="2304" y="1567" on="1"/>
        <pt x="2703" y="1505" on="1"/>
        <pt x="2703" y="1352" on="1"/>
        <pt x="2673" y="1337" on="0"/>
        <pt x="2543" y="1290" on="0"/>
        <pt x="2488" y="1290" on="1"/>
        <pt x="2488" y="1258" on="0"/>
        <pt x="2498" y="1204" on="0"/>
        <pt x="2511" y="1175" on="1"/>
        <pt x="2534" y="1124" on="0"/>
        <pt x="2625" y="987" on="0"/>
        <pt x="2673" y="903" on="0"/>
        <pt x="2673" y="860" on="1"/>
        <pt x="2673" y="784" on="0"/>
        <pt x="2687" y="632" on="0"/>
        <pt x="2702" y="557" on="1"/>
        <pt x="2732" y="408" on="0"/>
        <pt x="2843" y="151" on="0"/>
        <pt x="2918" y="61" on="1"/>
        <pt x="2857" y="61" on="0"/>
        <pt x="2784" y="127" on="0"/>
        <pt x="2681" y="275" on="0"/>
        <pt x="2591" y="360" on="0"/>
        <pt x="2519" y="369" on="1"/>
        <pt x="2385" y="514" on="0"/>
        <pt x="2030" y="724" on="0"/>
        <pt x="1905" y="771" on="1"/>
        <pt x="1897" y="774" on="0"/>
        <pt x="1803" y="808" on="1"/>
        <pt x="1779" y="817" on="0"/>
        <pt x="1660" y="859" on="1"/>
        <pt x="1567" y="892" on="0"/>
        <pt x="1474" y="926" on="1"/>
        <pt x="1168" y="1033" on="0"/>
        <pt x="1014" y="1106" on="1"/>
        <pt x="946" y="1057" on="0"/>
        <pt x="895" y="890" on="0"/>
        <pt x="856" y="585" on="0"/>
        <pt x="789" y="411" on="0"/>
        <pt x="707" y="369" on="1"/>
        <pt x="707" y="440" on="0"/>
        <pt x="697" y="549" on="0"/>
        <pt x="684" y="604" on="1"/>
        <pt x="661" y="708" on="0"/>
        <pt x="614" y="799" on="1"/>
        <pt x="574" y="738" on="0"/>
        <pt x="551" y="667" on="1"/>
        <pt x="532" y="606" on="0"/>
        <pt x="522" y="547" on="1"/>
        <pt x="496" y="370" on="1"/>
        <pt x="479" y="239" on="0"/>
        <pt x="461" y="184" on="1"/>
        <pt x="421" y="243" on="0"/>
        <pt x="409" y="295" on="1"/>
        <pt x="405" y="318" on="0"/>
        <pt x="399" y="391" on="0"/>
        <pt x="399" y="430" on="1"/>
        <pt x="399" y="513" on="0"/>
        <pt x="458" y="686" on="0"/>
        <pt x="504" y="778" on="1"/>
        <pt x="603" y="980" on="1"/>
        <pt x="656" y="1088" on="0"/>
        <pt x="676" y="1167" on="1"/>
        <pt x="0" y="1260" on="1"/>
        <pt x="707" y="1382" on="1"/>
        <pt x="1475" y="3717" on="1"/>
        <pt x="1589" y="3468" on="0"/>
        <pt x="1700" y="3198" on="1"/>
        <pt x="1724" y="3140" on="0"/>
        <pt x="1816" y="2906" on="0"/>
        <pt x="1856" y="2803" on="0"/>
        <pt x="1897" y="2694" on="1"/>
        <pt x="2099" y="2139" on="1"/>
      </contour>
      <contour>
        <pt x="1106" y="2365" on="1"/>
        <pt x="1127" y="2468" on="0"/>
        <pt x="1232" y="2648" on="0"/>
        <pt x="1434" y="2943" on="0"/>
        <pt x="1536" y="3155" on="0"/>
        <pt x="1536" y="3256" on="1"/>
        <pt x="1536" y="3281" on="0"/>
        <pt x="1528" y="3325" on="0"/>
        <pt x="1516" y="3362" on="1"/>
        <pt x="1497" y="3428" on="0"/>
        <pt x="1475" y="3471" on="1"/>
      </contour>
      <contour>
        <pt x="1874" y="1567" on="1"/>
        <pt x="1832" y="1839" on="1"/>
        <pt x="1808" y="2016" on="0"/>
        <pt x="1773" y="2194" on="0"/>
        <pt x="1695" y="2417" on="0"/>
        <pt x="1628" y="2519" on="1"/>
        <pt x="1532" y="2435" on="0"/>
        <pt x="1407" y="2198" on="0"/>
        <pt x="1351" y="2023" on="1"/>
        <pt x="1254" y="1711" on="1"/>
        <pt x="1213" y="1574" on="0"/>
        <pt x="1167" y="1475" on="1"/>
      </contour>
      <contour>
        <pt x="1198" y="2089" on="1"/>
        <pt x="983" y="1690" on="1"/>
        <pt x="1014" y="1659" on="1"/>
        <pt x="1229" y="2058" on="1"/>
      </contour>
      <contour>
        <pt x="1874" y="1290" on="1"/>
        <pt x="1413" y="1290" on="1"/>
      </contour>
      <contour>
        <pt x="1935" y="1167" on="1"/>
        <pt x="1382" y="1075" on="1"/>
        <pt x="1352" y="1090" on="0"/>
        <pt x="1245" y="1106" on="0"/>
        <pt x="1167" y="1106" on="1"/>
        <pt x="1406" y="1039" on="1"/>
        <pt x="1571" y="995" on="0"/>
        <pt x="1770" y="931" on="0"/>
        <pt x="1989" y="835" on="0"/>
        <pt x="2089" y="768" on="1"/>
      </contour>
      <contour>
        <pt x="2580" y="553" on="1"/>
        <pt x="2493" y="609" on="0"/>
        <pt x="2441" y="646" on="1"/>
        <pt x="2396" y="678" on="0"/>
        <pt x="2304" y="806" on="0"/>
        <pt x="2304" y="891" on="1"/>
        <pt x="2304" y="676" on="1"/>
        <pt x="2424" y="553" on="0"/>
      </contour>
    </TTGlyph>
    <TTGlyph name="B" xMin="0" yMin="0" xMax="2703" yMax="2304">
      <contour>
        <pt x="2642" y="1966" on="1"/>
        <pt x="2642" y="1870" on="0"/>
        <pt x="2580" y="1780" on="0"/>
        <pt x="2450" y="1672" on="0"/>
        <pt x="2427" y="1628" on="1"/>
        <pt x="2446" y="1610" on="0"/>
        <pt x="2458" y="1536" on="0"/>
        <pt x="2458" y="1475" on="1"/>
        <pt x="2335" y="1413" on="1"/>
        <pt x="2356" y="1345" on="0"/>
        <pt x="2428" y="1265" on="1"/>
        <pt x="2474" y="1215" on="0"/>
        <pt x="2496" y="1192" on="1"/>
        <pt x="2533" y="1153" on="0"/>
        <pt x="2559" y="1127" on="1"/>
        <pt x="2617" y="1069" on="0"/>
        <pt x="2703" y="922" on="0"/>
        <pt x="2703" y="829" on="1"/>
        <pt x="2584" y="770" on="0"/>
        <pt x="2454" y="708" on="1"/>
        <pt x="2350" y="658" on="0"/>
        <pt x="2216" y="596" on="1"/>
        <pt x="1985" y="491" on="0"/>
        <pt x="1511" y="295" on="0"/>
        <pt x="1287" y="208" on="1"/>
        <pt x="737" y="0" on="1"/>
        <pt x="687" y="0" on="0"/>
        <pt x="674" y="17" on="1"/>
        <pt x="664" y="33" on="0"/>
        <pt x="654" y="74" on="1"/>
        <pt x="647" y="113" on="0"/>
        <pt x="596" y="154" on="0"/>
        <pt x="522" y="154" on="1"/>
        <pt x="522" y="1782" on="1"/>
        <pt x="473" y="1808" on="1"/>
        <pt x="440" y="1828" on="0"/>
        <pt x="418" y="1836" on="1"/>
        <pt x="407" y="1839" on="0"/>
        <pt x="385" y="1843" on="0"/>
        <pt x="369" y="1843" on="1"/>
        <pt x="328" y="1843" on="0"/>
        <pt x="289" y="1825" on="1"/>
        <pt x="259" y="1810" on="0"/>
        <pt x="234" y="1796" on="1"/>
        <pt x="228" y="1793" on="0"/>
        <pt x="188" y="1769" on="1"/>
        <pt x="127" y="1733" on="0"/>
        <pt x="92" y="1720" on="1"/>
        <pt x="79" y="1720" on="0"/>
        <pt x="15" y="1751" on="0"/>
        <pt x="0" y="1751" on="1"/>
        <pt x="522" y="2120" on="1"/>
        <pt x="522" y="2212" on="1"/>
        <pt x="556" y="2179" on="1"/>
        <pt x="584" y="2159" on="1"/>
        <pt x="599" y="2150" on="0"/>
        <pt x="614" y="2150" on="1"/>
        <pt x="634" y="2150" on="0"/>
        <pt x="680" y="2164" on="0"/>
        <pt x="717" y="2182" on="1"/>
        <pt x="819" y="2228" on="1"/>
        <pt x="855" y="2243" on="0"/>
        <pt x="922" y="2243" on="1"/>
        <pt x="977" y="2243" on="0"/>
        <pt x="1096" y="2247" on="0"/>
        <pt x="1136" y="2249" on="1"/>
        <pt x="1186" y="2249" on="0"/>
        <pt x="1292" y="2260" on="1"/>
        <pt x="1354" y="2266" on="0"/>
        <pt x="1417" y="2273" on="1"/>
        <pt x="1689" y="2297" on="1"/>
        <pt x="1721" y="2297" on="0"/>
        <pt x="1758" y="2299" on="1"/>
        <pt x="1851" y="2304" on="0"/>
        <pt x="1874" y="2304" on="1"/>
        <pt x="1949" y="2304" on="0"/>
        <pt x="2090" y="2290" on="0"/>
        <pt x="2225" y="2261" on="0"/>
        <pt x="2353" y="2210" on="0"/>
        <pt x="2417" y="2171" on="1"/>
        <pt x="2542" y="2096" on="0"/>
      </contour>
      <contour>
        <pt x="2212" y="1843" on="1"/>
        <pt x="2143" y="1861" on="0"/>
        <pt x="1953" y="1933" on="1"/>
        <pt x="1693" y="2030" on="1"/>
        <pt x="1625" y="2054" on="0"/>
        <pt x="1480" y="2088" on="1"/>
        <pt x="1410" y="2104" on="0"/>
        <pt x="1272" y="2120" on="0"/>
        <pt x="1198" y="2120" on="1"/>
        <pt x="1408" y="2120" on="0"/>
        <pt x="1739" y="2086" on="0"/>
        <pt x="1968" y="2018" on="0"/>
        <pt x="2141" y="1916" on="0"/>
      </contour>
      <contour>
        <pt x="2396" y="2028" on="1"/>
        <pt x="2396" y="2058" on="1"/>
        <pt x="2212" y="2150" on="1"/>
      </contour>
      <contour>
        <pt x="1905" y="1782" on="1"/>
        <pt x="1788" y="1856" on="0"/>
        <pt x="1540" y="1934" on="0"/>
        <pt x="1278" y="1966" on="0"/>
        <pt x="1106" y="1966" on="1"/>
        <pt x="1052" y="1966" on="0"/>
        <pt x="997" y="1861" on="0"/>
        <pt x="983" y="1720" on="0"/>
        <pt x="983" y="1628" on="1"/>
        <pt x="1127" y="1628" on="0"/>
        <pt x="1328" y="1667" on="0"/>
        <pt x="1579" y="1743" on="0"/>
        <pt x="1672" y="1762" on="1"/>
        <pt x="1719" y="1772" on="0"/>
        <pt x="1832" y="1782" on="0"/>
      </contour>
      <contour>
        <pt x="2335" y="1751" on="1"/>
        <pt x="2427" y="1751" on="1"/>
        <pt x="2519" y="1966" on="1"/>
      </contour>
      <contour>
        <pt x="1137" y="1444" on="1"/>
        <pt x="1505" y="1444" on="1"/>
        <pt x="1505" y="1475" on="1"/>
        <pt x="1137" y="1475" on="1"/>
      </contour>
      <contour>
        <pt x="1137" y="1260" on="1"/>
        <pt x="922" y="1260" on="1"/>
        <pt x="922" y="1167" on="1"/>
        <pt x="981" y="1167" on="0"/>
        <pt x="1104" y="1227" on="0"/>
      </contour>
      <contour>
        <pt x="2212" y="1137" on="1"/>
        <pt x="2017" y="1137" on="0"/>
        <pt x="1597" y="1198" on="1"/>
        <pt x="1493" y="1198" on="0"/>
        <pt x="1318" y="1180" on="0"/>
        <pt x="1241" y="1160" on="1"/>
        <pt x="1090" y="1122" on="0"/>
        <pt x="983" y="1014" on="1"/>
        <pt x="1352" y="1044" on="1"/>
        <pt x="1352" y="1006" on="0"/>
        <pt x="1322" y="952" on="0"/>
        <pt x="1290" y="922" on="1"/>
        <pt x="1119" y="922" on="0"/>
        <pt x="960" y="757" on="0"/>
        <pt x="922" y="511" on="0"/>
        <pt x="922" y="307" on="1"/>
        <pt x="1126" y="376" on="0"/>
        <pt x="1462" y="540" on="0"/>
        <pt x="1754" y="736" on="0"/>
        <pt x="1896" y="856" on="1"/>
        <pt x="1953" y="904" on="0"/>
        <pt x="1995" y="940" on="1"/>
        <pt x="2051" y="989" on="0"/>
        <pt x="2100" y="1033" on="1"/>
        <pt x="2134" y="1064" on="0"/>
      </contour>
      <contour>
        <pt x="2304" y="737" on="1"/>
        <pt x="2580" y="860" on="1"/>
        <pt x="2458" y="1106" on="1"/>
        <pt x="2458" y="959" on="0"/>
        <pt x="2392" y="782" on="0"/>
      </contour>
      <contour>
        <pt x="2304" y="952" on="1"/>
        <pt x="1935" y="676" on="1"/>
        <pt x="1966" y="676" on="1"/>
        <pt x="2335" y="922" on="1"/>
      </contour>
    </TTGlyph>
    <TTGlyph name="C" xMin="0" yMin="184" xMax="3226" yMax="3041">
      <contour>
        <pt x="2888" y="2765" on="1"/>
        <pt x="2703" y="2703" on="1"/>
        <pt x="2703" y="2651" on="0"/>
        <pt x="2749" y="2584" on="1"/>
        <pt x="2842" y="2453" on="1"/>
        <pt x="2888" y="2387" on="0"/>
        <pt x="2888" y="2335" on="1"/>
        <pt x="2888" y="2289" on="0"/>
        <pt x="2796" y="2243" on="1"/>
        <pt x="2772" y="2267" on="0"/>
        <pt x="2688" y="2406" on="0"/>
        <pt x="2628" y="2485" on="0"/>
        <pt x="2515" y="2550" on="0"/>
        <pt x="2427" y="2550" on="1"/>
        <pt x="2477" y="2487" on="0"/>
        <pt x="2491" y="2445" on="1"/>
        <pt x="2500" y="2415" on="0"/>
        <pt x="2544" y="2192" on="0"/>
        <pt x="2580" y="2120" on="1"/>
        <pt x="2520" y="2120" on="0"/>
        <pt x="2489" y="2164" on="1"/>
        <pt x="2460" y="2210" on="0"/>
        <pt x="2399" y="2392" on="0"/>
        <pt x="2334" y="2488" on="0"/>
        <pt x="2273" y="2488" on="1"/>
        <pt x="2181" y="2488" on="0"/>
        <pt x="2120" y="2427" on="1"/>
        <pt x="1917" y="2249" on="1"/>
        <pt x="1781" y="2131" on="0"/>
        <pt x="1678" y="2002" on="1"/>
        <pt x="1581" y="1879" on="0"/>
        <pt x="1444" y="1545" on="0"/>
        <pt x="1444" y="1352" on="1"/>
        <pt x="1553" y="1287" on="0"/>
        <pt x="1692" y="1257" on="1"/>
        <pt x="1763" y="1243" on="0"/>
        <pt x="1909" y="1229" on="0"/>
        <pt x="1997" y="1229" on="1"/>
        <pt x="2181" y="1536" on="1"/>
        <pt x="2181" y="1392" on="0"/>
        <pt x="2114" y="1309" on="1"/>
        <pt x="2080" y="1267" on="0"/>
        <pt x="1984" y="1187" on="0"/>
        <pt x="1916" y="1142" on="1"/>
        <pt x="1787" y="1059" on="0"/>
        <pt x="1659" y="920" on="0"/>
        <pt x="1659" y="799" on="1"/>
        <pt x="1725" y="754" on="0"/>
        <pt x="1815" y="730" on="1"/>
        <pt x="1858" y="719" on="0"/>
        <pt x="1950" y="707" on="0"/>
        <pt x="1997" y="707" on="1"/>
        <pt x="2081" y="719" on="0"/>
        <pt x="2227" y="759" on="1"/>
        <pt x="2437" y="814" on="1"/>
        <pt x="2499" y="829" on="0"/>
        <pt x="2580" y="829" on="1"/>
        <pt x="2600" y="868" on="0"/>
        <pt x="2645" y="932" on="1"/>
        <pt x="2687" y="992" on="0"/>
        <pt x="2721" y="1046" on="1"/>
        <pt x="2750" y="1092" on="0"/>
        <pt x="2773" y="1163" on="1"/>
        <pt x="2784" y="1197" on="0"/>
        <pt x="2796" y="1275" on="0"/>
        <pt x="2796" y="1321" on="1"/>
        <pt x="2918" y="1382" on="0"/>
        <pt x="2949" y="1382" on="1"/>
        <pt x="3002" y="1382" on="0"/>
        <pt x="3051" y="1308" on="0"/>
        <pt x="3105" y="1146" on="0"/>
        <pt x="3136" y="1094" on="1"/>
        <pt x="3164" y="1047" on="0"/>
        <pt x="3226" y="1014" on="1"/>
        <pt x="3046" y="890" on="0"/>
        <pt x="2714" y="694" on="0"/>
        <pt x="2528" y="611" on="1"/>
        <pt x="2436" y="570" on="0"/>
        <pt x="2252" y="507" on="0"/>
        <pt x="2147" y="480" on="1"/>
        <pt x="1947" y="430" on="0"/>
        <pt x="1751" y="430" on="1"/>
        <pt x="1649" y="430" on="0"/>
        <pt x="1510" y="519" on="0"/>
        <pt x="1348" y="715" on="0"/>
        <pt x="1251" y="808" on="0"/>
        <pt x="1167" y="829" on="1"/>
        <pt x="1167" y="621" on="0"/>
        <pt x="1343" y="388" on="0"/>
        <pt x="1505" y="307" on="1"/>
        <pt x="2089" y="307" on="1"/>
        <pt x="2025" y="243" on="0"/>
        <pt x="1884" y="184" on="0"/>
        <pt x="1812" y="184" on="1"/>
        <pt x="1754" y="184" on="0"/>
        <pt x="1633" y="219" on="0"/>
        <pt x="1599" y="231" on="1"/>
        <pt x="1595" y="232" on="0"/>
        <pt x="1526" y="258" on="1"/>
        <pt x="1477" y="277" on="0"/>
        <pt x="1392" y="305" on="0"/>
        <pt x="1348" y="317" on="1"/>
        <pt x="1274" y="338" on="0"/>
        <pt x="1198" y="338" on="1"/>
        <pt x="1171" y="414" on="0"/>
        <pt x="1114" y="600" on="0"/>
        <pt x="1065" y="798" on="0"/>
        <pt x="1027" y="993" on="0"/>
        <pt x="997" y="1213" on="0"/>
        <pt x="983" y="1405" on="0"/>
        <pt x="983" y="1505" on="1"/>
        <pt x="983" y="1732" on="0"/>
        <pt x="1088" y="2152" on="0"/>
        <pt x="1198" y="2304" on="1"/>
        <pt x="1268" y="2365" on="0"/>
        <pt x="1358" y="2476" on="1"/>
        <pt x="1543" y="2702" on="1"/>
        <pt x="1590" y="2760" on="0"/>
        <pt x="1687" y="2859" on="0"/>
        <pt x="1739" y="2903" on="1"/>
        <pt x="1840" y="2989" on="0"/>
        <pt x="1966" y="3041" on="1"/>
        <pt x="2089" y="3041" on="0"/>
        <pt x="2315" y="2994" on="0"/>
        <pt x="2418" y="2957" on="1"/>
        <pt x="2475" y="2937" on="0"/>
        <pt x="2570" y="2900" on="0"/>
        <pt x="2630" y="2874" on="1"/>
      </contour>
      <contour>
        <pt x="61" y="2765" on="1"/>
        <pt x="0" y="2918" on="1"/>
        <pt x="61" y="2918" on="1"/>
      </contour>
      <contour>
        <pt x="2396" y="2888" on="1"/>
        <pt x="2291" y="2888" on="0"/>
        <pt x="2106" y="2858" on="0"/>
        <pt x="2020" y="2826" on="1"/>
        <pt x="1854" y="2767" on="0"/>
        <pt x="1590" y="2562" on="0"/>
        <pt x="1410" y="2345" on="0"/>
        <pt x="1321" y="2212" on="1"/>
        <pt x="1389" y="2313" on="0"/>
        <pt x="1442" y="2388" on="1"/>
        <pt x="1490" y="2456" on="0"/>
        <pt x="1531" y="2511" on="1"/>
        <pt x="1603" y="2604" on="0"/>
        <pt x="1833" y="2785" on="0"/>
        <pt x="2164" y="2888" on="0"/>
      </contour>
      <contour>
        <pt x="1505" y="2089" on="1"/>
        <pt x="1602" y="2113" on="0"/>
        <pt x="1687" y="2214" on="1"/>
        <pt x="1766" y="2310" on="0"/>
        <pt x="1850" y="2405" on="1"/>
        <pt x="1930" y="2494" on="0"/>
        <pt x="2058" y="2519" on="1"/>
      </contour>
      <contour>
        <pt x="1198" y="1290" on="1"/>
        <pt x="1198" y="983" on="1"/>
        <pt x="1260" y="983" on="1"/>
        <pt x="1260" y="1290" on="1"/>
      </contour>
      <contour>
        <pt x="1690" y="1137" on="1"/>
        <pt x="1665" y="1161" on="0"/>
        <pt x="1636" y="1169" on="1"/>
        <pt x="1631" y="1170" on="0"/>
        <pt x="1574" y="1178" on="0"/>
        <pt x="1555" y="1180" on="1"/>
        <pt x="1502" y="1186" on="0"/>
        <pt x="1475" y="1198" on="1"/>
        <pt x="1475" y="1106" on="1"/>
      </contour>
      <contour>
        <pt x="3103" y="1106" on="1"/>
        <pt x="3103" y="1031" on="0"/>
        <pt x="3051" y="967" on="0"/>
        <pt x="3009" y="955" on="1"/>
        <pt x="2923" y="932" on="1"/>
        <pt x="2877" y="921" on="0"/>
        <pt x="2857" y="891" on="1"/>
        <pt x="2980" y="1019" on="1"/>
        <pt x="3048" y="1088" on="0"/>
      </contour>
    </TTGlyph>
    <TTGlyph name="D" xMin="184" yMin="0" xMax="2458" yMax="2642">
      <contour>
        <pt x="2181" y="2089" on="1"/>
        <pt x="2290" y="1995" on="0"/>
        <pt x="2409" y="1752" on="0"/>
        <pt x="2458" y="1381" on="0"/>
        <pt x="2458" y="1106" on="1"/>
        <pt x="2310" y="913" on="0"/>
        <pt x="2003" y="614" on="0"/>
        <pt x="1866" y="511" on="1"/>
        <pt x="1800" y="462" on="0"/>
        <pt x="1650" y="356" on="0"/>
        <pt x="1571" y="304" on="1"/>
        <pt x="1198" y="61" on="1"/>
        <pt x="1225" y="61" on="0"/>
        <pt x="1389" y="170" on="0"/>
        <pt x="1527" y="272" on="1"/>
        <pt x="1659" y="368" on="0"/>
        <pt x="1751" y="430" on="1"/>
        <pt x="1646" y="430" on="0"/>
        <pt x="1466" y="418" on="0"/>
        <pt x="1380" y="404" on="1"/>
        <pt x="1217" y="379" on="0"/>
        <pt x="1066" y="338" on="1"/>
        <pt x="954" y="308" on="0"/>
        <pt x="825" y="272" on="0"/>
        <pt x="785" y="261" on="1"/>
        <pt x="656" y="226" on="0"/>
        <pt x="553" y="215" on="1"/>
        <pt x="645" y="123" on="1"/>
        <pt x="461" y="0" on="1"/>
        <pt x="447" y="23" on="0"/>
        <pt x="403" y="151" on="0"/>
        <pt x="367" y="217" on="0"/>
        <pt x="270" y="276" on="0"/>
        <pt x="184" y="276" on="1"/>
        <pt x="184" y="314" on="0"/>
        <pt x="199" y="349" on="1"/>
        <pt x="230" y="418" on="1"/>
        <pt x="246" y="455" on="0"/>
        <pt x="246" y="492" on="1"/>
        <pt x="246" y="632" on="0"/>
        <pt x="230" y="821" on="1"/>
        <pt x="199" y="1206" on="1"/>
        <pt x="199" y="1279" on="0"/>
        <pt x="184" y="1504" on="0"/>
        <pt x="184" y="1536" on="1"/>
        <pt x="184" y="1673" on="0"/>
        <pt x="213" y="1902" on="0"/>
        <pt x="273" y="2108" on="0"/>
        <pt x="382" y="2305" on="0"/>
        <pt x="461" y="2396" on="1"/>
        <pt x="628" y="2543" on="0"/>
        <pt x="1043" y="2642" on="0"/>
        <pt x="1352" y="2642" on="1"/>
        <pt x="1407" y="2642" on="0"/>
        <pt x="1466" y="2622" on="1"/>
        <pt x="1516" y="2605" on="0"/>
        <pt x="1578" y="2570" on="1"/>
        <pt x="1685" y="2511" on="0"/>
        <pt x="1808" y="2402" on="1"/>
        <pt x="2018" y="2215" on="1"/>
        <pt x="2064" y="2175" on="0"/>
        <pt x="2145" y="2112" on="0"/>
      </contour>
      <contour>
        <pt x="1290" y="2396" on="1"/>
        <pt x="1139" y="2396" on="0"/>
        <pt x="967" y="2435" on="0"/>
        <pt x="891" y="2518" on="0"/>
        <pt x="891" y="2580" on="1"/>
        <pt x="772" y="2477" on="1"/>
        <pt x="719" y="2431" on="0"/>
        <pt x="645" y="2290" on="0"/>
        <pt x="645" y="2181" on="1"/>
        <pt x="737" y="2304" on="1"/>
        <pt x="861" y="2304" on="0"/>
        <pt x="992" y="2332" on="0"/>
        <pt x="1230" y="2396" on="0"/>
      </contour>
      <contour>
        <pt x="1382" y="2519" on="1"/>
        <pt x="1782" y="2335" on="1"/>
        <pt x="1812" y="2396" on="1"/>
        <pt x="1413" y="2580" on="1"/>
      </contour>
      <contour>
        <pt x="1690" y="2120" on="1"/>
        <pt x="1198" y="2181" on="1"/>
        <pt x="1304" y="2181" on="0"/>
        <pt x="1440" y="2179" on="0"/>
        <pt x="1500" y="2178" on="1"/>
        <pt x="1543" y="2178" on="0"/>
        <pt x="1601" y="2171" on="0"/>
        <pt x="1631" y="2163" on="1"/>
        <pt x="1674" y="2151" on="0"/>
      </contour>
      <contour>
        <pt x="1997" y="1597" on="1"/>
        <pt x="1976" y="1734" on="0"/>
        <pt x="1808" y="1888" on="0"/>
        <pt x="1583" y="1948" on="0"/>
        <pt x="1230" y="1984" on="0"/>
        <pt x="1167" y="1997" on="1"/>
        <pt x="1065" y="1957" on="1"/>
        <pt x="1023" y="1940" on="0"/>
        <pt x="1000" y="1922" on="1"/>
        <pt x="981" y="1907" on="0"/>
        <pt x="965" y="1871" on="1"/>
        <pt x="952" y="1835" on="0"/>
        <pt x="952" y="1782" on="1"/>
        <pt x="910" y="1824" on="0"/>
        <pt x="785" y="1874" on="0"/>
        <pt x="737" y="1874" on="1"/>
        <pt x="730" y="1838" on="0"/>
        <pt x="722" y="1750" on="0"/>
        <pt x="722" y="1721" on="1"/>
        <pt x="722" y="1673" on="0"/>
        <pt x="715" y="1603" on="0"/>
        <pt x="709" y="1566" on="1"/>
        <pt x="703" y="1516" on="0"/>
        <pt x="676" y="1475" on="1"/>
        <pt x="676" y="1443" on="0"/>
        <pt x="673" y="1415" on="0"/>
        <pt x="665" y="1360" on="0"/>
        <pt x="654" y="1284" on="0"/>
        <pt x="643" y="1226" on="1"/>
        <pt x="620" y="1078" on="1"/>
        <pt x="614" y="1036" on="0"/>
        <pt x="614" y="983" on="1"/>
        <pt x="614" y="881" on="0"/>
        <pt x="692" y="768" on="0"/>
        <pt x="799" y="768" on="1"/>
        <pt x="768" y="707" on="1"/>
        <pt x="888" y="776" on="0"/>
        <pt x="1443" y="939" on="0"/>
        <pt x="1759" y="1066" on="0"/>
        <pt x="1878" y="1209" on="1"/>
        <pt x="1937" y="1279" on="0"/>
        <pt x="1997" y="1473" on="0"/>
      </contour>
      <contour>
        <pt x="276" y="1874" on="1"/>
        <pt x="246" y="1382" on="1"/>
        <pt x="276" y="1382" on="1"/>
        <pt x="307" y="1843" on="1"/>
      </contour>
      <contour>
        <pt x="2458" y="1290" on="1"/>
        <pt x="2458" y="1328" on="0"/>
        <pt x="2454" y="1448" on="0"/>
        <pt x="2454" y="1469" on="1"/>
        <pt x="2454" y="1534" on="0"/>
        <pt x="2434" y="1604" on="1"/>
        <pt x="2419" y="1669" on="0"/>
        <pt x="2340" y="1779" on="0"/>
        <pt x="2273" y="1812" on="1"/>
        <pt x="2273" y="1710" on="0"/>
        <pt x="2319" y="1630" on="1"/>
        <pt x="2412" y="1473" on="1"/>
        <pt x="2458" y="1393" on="0"/>
      </contour>
      <contour>
        <pt x="2273" y="1475" on="1"/>
        <pt x="2212" y="1014" on="1"/>
        <pt x="2273" y="1014" on="1"/>
        <pt x="2304" y="1475" on="1"/>
      </contour>
    </TTGlyph>
    <TTGlyph name="E" xMin="0" yMin="307" xMax="2918" yMax="3656">
      <contour>
        <pt x="1106" y="3594" on="1"/>
        <pt x="1055" y="3574" on="0"/>
        <pt x="1015" y="3523" on="1"/>
        <pt x="979" y="3475" on="0"/>
        <pt x="941" y="3392" on="1"/>
        <pt x="870" y="3235" on="1"/>
        <pt x="854" y="3198" on="0"/>
        <pt x="818" y="3130" on="0"/>
        <pt x="799" y="3103" on="1"/>
        <pt x="891" y="2888" on="1"/>
        <pt x="1354" y="2959" on="1"/>
        <pt x="1832" y="3031" on="1"/>
        <pt x="2255" y="3096" on="1"/>
        <pt x="2363" y="3113" on="0"/>
        <pt x="2476" y="3131" on="1"/>
        <pt x="2614" y="3153" on="0"/>
        <pt x="2673" y="3164" on="1"/>
        <pt x="2653" y="3123" on="0"/>
        <pt x="2609" y="3113" on="1"/>
        <pt x="2583" y="3108" on="0"/>
        <pt x="2519" y="3099" on="0"/>
        <pt x="2482" y="3099" on="1"/>
        <pt x="2441" y="3099" on="0"/>
        <pt x="2383" y="3089" on="0"/>
        <pt x="2357" y="3079" on="1"/>
        <pt x="2316" y="3064" on="0"/>
        <pt x="2304" y="3011" on="1"/>
        <pt x="2231" y="2991" on="0"/>
        <pt x="2031" y="2947" on="1"/>
        <pt x="1847" y="2907" on="0"/>
        <pt x="1642" y="2857" on="0"/>
        <pt x="1395" y="2766" on="0"/>
        <pt x="1290" y="2703" on="1"/>
        <pt x="1413" y="2703" on="0"/>
        <pt x="1557" y="2721" on="1"/>
        <pt x="1639" y="2731" on="0"/>
        <pt x="1762" y="2751" on="0"/>
        <pt x="1840" y="2768" on="1"/>
        <pt x="2166" y="2834" on="1"/>
        <pt x="2355" y="2872" on="0"/>
        <pt x="2458" y="2888" on="1"/>
        <pt x="2055" y="2758" on="1"/>
        <pt x="1950" y="2725" on="0"/>
        <pt x="1773" y="2677" on="1"/>
        <pt x="1604" y="2632" on="0"/>
        <pt x="1418" y="2595" on="1"/>
        <pt x="1282" y="2570" on="0"/>
        <pt x="1244" y="2564" on="1"/>
        <pt x="1150" y="2550" on="0"/>
        <pt x="1075" y="2550" on="1"/>
        <pt x="1000" y="2508" on="0"/>
        <pt x="909" y="2380" on="0"/>
        <pt x="863" y="2244" on="0"/>
        <pt x="809" y="1999" on="0"/>
        <pt x="799" y="1966" on="1"/>
        <pt x="842" y="1966" on="0"/>
        <pt x="986" y="1972" on="0"/>
        <pt x="1014" y="1972" on="1"/>
        <pt x="1057" y="1972" on="0"/>
        <pt x="1210" y="1987" on="0"/>
        <pt x="1292" y="1996" on="1"/>
        <pt x="1580" y="2020" on="1"/>
        <pt x="1613" y="2020" on="0"/>
        <pt x="1747" y="2028" on="0"/>
        <pt x="1782" y="2028" on="1"/>
        <pt x="2097" y="2028" on="0"/>
        <pt x="2304" y="1905" on="1"/>
        <pt x="2242" y="1867" on="0"/>
        <pt x="2121" y="1841" on="0"/>
        <pt x="1987" y="1823" on="1"/>
        <pt x="1920" y="1814" on="0"/>
        <pt x="1818" y="1794" on="0"/>
        <pt x="1782" y="1782" on="1"/>
        <pt x="1680" y="1698" on="0"/>
        <pt x="1479" y="1662" on="1"/>
        <pt x="1066" y="1588" on="1"/>
        <pt x="853" y="1551" on="0"/>
        <pt x="614" y="1339" on="0"/>
        <pt x="614" y="1106" on="1"/>
        <pt x="671" y="1106" on="0"/>
        <pt x="760" y="1114" on="0"/>
        <pt x="821" y="1126" on="1"/>
        <pt x="925" y="1146" on="0"/>
        <pt x="1210" y="1219" on="0"/>
        <pt x="1411" y="1260" on="0"/>
        <pt x="1505" y="1260" on="1"/>
        <pt x="1688" y="1260" on="0"/>
        <pt x="1874" y="1167" on="1"/>
        <pt x="1690" y="1014" on="1"/>
        <pt x="1711" y="990" on="0"/>
        <pt x="1760" y="971" on="1"/>
        <pt x="1783" y="962" on="0"/>
        <pt x="1820" y="946" on="0"/>
        <pt x="1827" y="942" on="1"/>
        <pt x="1845" y="934" on="0"/>
        <pt x="1874" y="891" on="1"/>
        <pt x="1996" y="903" on="0"/>
        <pt x="2211" y="970" on="1"/>
        <pt x="2312" y="1001" on="0"/>
        <pt x="2409" y="1028" on="1"/>
        <pt x="2492" y="1051" on="0"/>
        <pt x="2572" y="1071" on="1"/>
        <pt x="2718" y="1106" on="0"/>
        <pt x="2918" y="1106" on="1"/>
        <pt x="2666" y="986" on="0"/>
        <pt x="2417" y="905" on="1"/>
        <pt x="2179" y="829" on="0"/>
        <pt x="1861" y="753" on="1"/>
        <pt x="1278" y="619" on="1"/>
        <pt x="994" y="556" on="0"/>
        <pt x="768" y="492" on="1"/>
        <pt x="768" y="573" on="0"/>
        <pt x="698" y="676" on="0"/>
        <pt x="614" y="676" on="1"/>
        <pt x="575" y="676" on="0"/>
        <pt x="490" y="582" on="0"/>
        <pt x="374" y="403" on="0"/>
        <pt x="288" y="307" on="0"/>
        <pt x="246" y="307" on="1"/>
        <pt x="225" y="307" on="0"/>
        <pt x="203" y="341" on="1"/>
        <pt x="200" y="346" on="0"/>
        <pt x="183" y="378" on="1"/>
        <pt x="138" y="464" on="0"/>
        <pt x="123" y="492" on="1"/>
        <pt x="123" y="561" on="0"/>
        <pt x="117" y="609" on="1"/>
        <pt x="113" y="657" on="0"/>
        <pt x="92" y="676" on="1"/>
        <pt x="0" y="676" on="1"/>
        <pt x="0" y="799" on="1"/>
        <pt x="103" y="799" on="0"/>
        <pt x="187" y="919" on="0"/>
        <pt x="211" y="1050" on="1"/>
        <pt x="223" y="1117" on="0"/>
        <pt x="247" y="1216" on="0"/>
        <pt x="261" y="1256" on="1"/>
        <pt x="288" y="1331" on="0"/>
        <pt x="369" y="1382" on="1"/>
        <pt x="350" y="1394" on="0"/>
        <pt x="270" y="1429" on="1"/>
        <pt x="233" y="1444" on="0"/>
        <pt x="177" y="1476" on="0"/>
        <pt x="159" y="1494" on="1"/>
        <pt x="123" y="1527" on="0"/>
        <pt x="123" y="1597" on="1"/>
        <pt x="247" y="1597" on="0"/>
        <pt x="425" y="1663" on="0"/>
        <pt x="492" y="1751" on="1"/>
        <pt x="492" y="1827" on="0"/>
        <pt x="522" y="1928" on="1"/>
        <pt x="583" y="2127" on="1"/>
        <pt x="614" y="2229" on="0"/>
        <pt x="614" y="2304" on="1"/>
        <pt x="614" y="2367" on="0"/>
        <pt x="553" y="2488" on="1"/>
        <pt x="399" y="2488" on="1"/>
        <pt x="509" y="2587" on="0"/>
        <pt x="572" y="2723" on="1"/>
        <pt x="631" y="2853" on="0"/>
        <pt x="754" y="3274" on="0"/>
        <pt x="869" y="3542" on="0"/>
        <pt x="983" y="3656" on="1"/>
      </contour>
      <contour>
        <pt x="1505" y="1905" on="1"/>
        <pt x="1659" y="1905" on="1"/>
        <pt x="1720" y="1966" on="1"/>
      </contour>
      <contour>
        <pt x="1198" y="1874" on="1"/>
        <pt x="1382" y="1874" on="1"/>
        <pt x="1382" y="1905" on="1"/>
        <pt x="1198" y="1905" on="1"/>
      </contour>
      <contour>
        <pt x="1659" y="952" on="1"/>
        <pt x="1616" y="919" on="0"/>
        <pt x="1505" y="881" on="0"/>
        <pt x="1412" y="872" on="1"/>
        <pt x="1385" y="872" on="0"/>
        <pt x="1237" y="862" on="0"/>
        <pt x="1189" y="862" on="1"/>
        <pt x="768" y="860" on="1"/>
        <pt x="829" y="860" on="0"/>
        <pt x="1142" y="913" on="0"/>
        <pt x="1454" y="952" on="0"/>
      </contour>
      <contour>
        <pt x="399" y="645" on="1"/>
        <pt x="276" y="645" on="1"/>
        <pt x="276" y="461" on="1"/>
        <pt x="301" y="511" on="0"/>
        <pt x="375" y="621" on="0"/>
      </contour>
    </TTGlyph>
    <TTGlyph name="F" xMin="61" yMin="0" xMax="3195" yMax="3348">
      <contour>
        <pt x="768" y="3348" on="1"/>
        <pt x="607" y="3274" on="0"/>
        <pt x="438" y="3011" on="0"/>
        <pt x="379" y="2736" on="0"/>
        <pt x="333" y="2269" on="0"/>
        <pt x="307" y="2150" on="1"/>
        <pt x="439" y="2150" on="0"/>
        <pt x="493" y="2258" on="0"/>
        <pt x="541" y="2550" on="0"/>
        <pt x="614" y="2611" on="1"/>
        <pt x="584" y="2641" on="0"/>
        <pt x="584" y="2826" on="1"/>
        <pt x="697" y="2847" on="0"/>
        <pt x="821" y="2955" on="0"/>
        <pt x="957" y="3138" on="0"/>
        <pt x="1084" y="3226" on="0"/>
        <pt x="1198" y="3226" on="1"/>
        <pt x="1198" y="3256" on="1"/>
        <pt x="1290" y="3256" on="1"/>
        <pt x="1321" y="2918" on="1"/>
        <pt x="1396" y="2918" on="0"/>
        <pt x="1540" y="2910" on="0"/>
        <pt x="1608" y="2901" on="1"/>
        <pt x="1746" y="2886" on="0"/>
        <pt x="1916" y="2852" on="1"/>
        <pt x="2169" y="2808" on="1"/>
        <pt x="2249" y="2796" on="0"/>
        <pt x="2335" y="2796" on="1"/>
        <pt x="2516" y="2796" on="0"/>
        <pt x="2725" y="2837" on="0"/>
        <pt x="2826" y="2918" on="1"/>
        <pt x="3103" y="2918" on="1"/>
        <pt x="3011" y="2826" on="1"/>
        <pt x="3036" y="2801" on="0"/>
        <pt x="3066" y="2785" on="1"/>
        <pt x="3092" y="2772" on="0"/>
        <pt x="3134" y="2757" on="1"/>
        <pt x="3176" y="2744" on="0"/>
        <pt x="3195" y="2734" on="1"/>
        <pt x="3116" y="2711" on="0"/>
        <pt x="2933" y="2641" on="1"/>
        <pt x="2862" y="2614" on="0"/>
        <pt x="2767" y="2580" on="1"/>
        <pt x="2704" y="2557" on="0"/>
        <pt x="2629" y="2531" on="1"/>
        <pt x="2510" y="2492" on="0"/>
        <pt x="2353" y="2458" on="1"/>
        <pt x="2277" y="2443" on="0"/>
        <pt x="2131" y="2427" on="0"/>
        <pt x="2058" y="2427" on="1"/>
        <pt x="1979" y="2398" on="0"/>
        <pt x="1870" y="2381" on="1"/>
        <pt x="1790" y="2370" on="0"/>
        <pt x="1758" y="2366" on="1"/>
        <pt x="1687" y="2358" on="0"/>
        <pt x="1628" y="2358" on="1"/>
        <pt x="1380" y="2347" on="1"/>
        <pt x="1321" y="2347" on="0"/>
        <pt x="1258" y="2343" on="0"/>
        <pt x="1198" y="2335" on="1"/>
        <pt x="1233" y="2308" on="1"/>
        <pt x="1260" y="2290" on="0"/>
        <pt x="1260" y="2273" on="1"/>
        <pt x="1260" y="2250" on="0"/>
        <pt x="1211" y="2188" on="1"/>
        <pt x="1188" y="2159" on="0"/>
        <pt x="1151" y="2106" on="0"/>
        <pt x="1134" y="2079" on="1"/>
        <pt x="1106" y="2031" on="0"/>
        <pt x="1106" y="1966" on="1"/>
        <pt x="1278" y="1966" on="0"/>
        <pt x="1455" y="1982" on="1"/>
        <pt x="1547" y="1982" on="0"/>
        <pt x="1702" y="2003" on="1"/>
        <pt x="1786" y="2015" on="0"/>
        <pt x="1871" y="2027" on="1"/>
        <pt x="2107" y="2056" on="0"/>
        <pt x="2449" y="2089" on="0"/>
        <pt x="2580" y="2089" on="1"/>
        <pt x="2559" y="2078" on="0"/>
        <pt x="2456" y="2068" on="0"/>
        <pt x="2409" y="2054" on="0"/>
        <pt x="2396" y="2028" on="1"/>
        <pt x="2421" y="2003" on="0"/>
        <pt x="2463" y="1991" on="1"/>
        <pt x="2545" y="1970" on="1"/>
        <pt x="2588" y="1961" on="0"/>
        <pt x="2611" y="1935" on="1"/>
        <pt x="2396" y="1751" on="1"/>
        <pt x="2488" y="1628" on="1"/>
        <pt x="2424" y="1586" on="0"/>
        <pt x="2242" y="1536" on="0"/>
        <pt x="2150" y="1536" on="1"/>
        <pt x="2083" y="1536" on="0"/>
        <pt x="1983" y="1546" on="1"/>
        <pt x="1933" y="1551" on="0"/>
        <pt x="1860" y="1559" on="0"/>
        <pt x="1787" y="1569" on="1"/>
        <pt x="1610" y="1589" on="1"/>
        <pt x="1567" y="1593" on="0"/>
        <pt x="1490" y="1597" on="0"/>
        <pt x="1444" y="1597" on="1"/>
        <pt x="1256" y="1597" on="0"/>
        <pt x="1075" y="1505" on="1"/>
        <pt x="1056" y="1460" on="0"/>
        <pt x="1003" y="1286" on="0"/>
        <pt x="971" y="1165" on="1"/>
        <pt x="909" y="923" on="0"/>
        <pt x="863" y="789" on="1"/>
        <pt x="821" y="660" on="0"/>
        <pt x="651" y="442" on="0"/>
        <pt x="522" y="430" on="1"/>
        <pt x="564" y="472" on="0"/>
        <pt x="574" y="524" on="1"/>
        <pt x="578" y="547" on="0"/>
        <pt x="584" y="612" on="0"/>
        <pt x="584" y="645" on="1"/>
        <pt x="584" y="738" on="0"/>
        <pt x="565" y="839" on="0"/>
        <pt x="522" y="860" on="1"/>
        <pt x="456" y="783" on="0"/>
        <pt x="380" y="467" on="0"/>
        <pt x="328" y="220" on="0"/>
        <pt x="200" y="33" on="0"/>
        <pt x="61" y="0" on="1"/>
        <pt x="81" y="131" on="0"/>
        <pt x="95" y="241" on="1"/>
        <pt x="118" y="422" on="0"/>
        <pt x="129" y="566" on="1"/>
        <pt x="144" y="770" on="0"/>
        <pt x="144" y="977" on="1"/>
        <pt x="144" y="1172" on="0"/>
        <pt x="159" y="1384" on="1"/>
        <pt x="168" y="1508" on="0"/>
        <pt x="202" y="1871" on="0"/>
        <pt x="202" y="1928" on="1"/>
        <pt x="202" y="2017" on="0"/>
        <pt x="230" y="2221" on="0"/>
        <pt x="257" y="2352" on="1"/>
        <pt x="265" y="2393" on="0"/>
        <pt x="313" y="2609" on="1"/>
        <pt x="403" y="3018" on="0"/>
        <pt x="584" y="3348" on="1"/>
      </contour>
      <contour>
        <pt x="2089" y="2734" on="1"/>
        <pt x="2022" y="2734" on="0"/>
        <pt x="1903" y="2742" on="0"/>
        <pt x="1851" y="2751" on="1"/>
        <pt x="1738" y="2771" on="0"/>
        <pt x="1620" y="2797" on="1"/>
        <pt x="1490" y="2826" on="0"/>
        <pt x="1444" y="2826" on="1"/>
        <pt x="1332" y="2826" on="0"/>
        <pt x="1290" y="2703" on="1"/>
        <pt x="1514" y="2703" on="1"/>
        <pt x="1544" y="2703" on="0"/>
        <pt x="1689" y="2707" on="0"/>
        <pt x="1701" y="2707" on="1"/>
        <pt x="1733" y="2707" on="0"/>
        <pt x="1776" y="2710" on="1"/>
        <pt x="1877" y="2717" on="0"/>
        <pt x="1901" y="2717" on="1"/>
        <pt x="1937" y="2717" on="0"/>
        <pt x="2003" y="2723" on="0"/>
      </contour>
      <contour>
        <pt x="492" y="1413" on="1"/>
        <pt x="492" y="1475" on="0"/>
        <pt x="524" y="1663" on="0"/>
        <pt x="553" y="1782" on="1"/>
        <pt x="553" y="1888" on="0"/>
        <pt x="435" y="2028" on="0"/>
        <pt x="307" y="2028" on="1"/>
        <pt x="278" y="1851" on="0"/>
        <pt x="251" y="1600" on="1"/>
        <pt x="239" y="1480" on="0"/>
        <pt x="213" y="1209" on="0"/>
        <pt x="213" y="1104" on="1"/>
        <pt x="213" y="1020" on="0"/>
        <pt x="202" y="850" on="0"/>
        <pt x="191" y="666" on="0"/>
        <pt x="191" y="607" on="1"/>
        <pt x="191" y="511" on="0"/>
        <pt x="184" y="215" on="0"/>
        <pt x="184" y="184" on="1"/>
        <pt x="280" y="300" on="0"/>
        <pt x="362" y="583" on="0"/>
        <pt x="381" y="745" on="1"/>
        <pt x="388" y="819" on="0"/>
        <pt x="393" y="866" on="1"/>
        <pt x="404" y="972" on="0"/>
        <pt x="419" y="1091" on="1"/>
        <pt x="442" y="1283" on="0"/>
      </contour>
      <contour>
        <pt x="2181" y="1966" on="1"/>
        <pt x="2365" y="1966" on="1"/>
        <pt x="2365" y="2028" on="1"/>
        <pt x="2181" y="2028" on="1"/>
      </contour>
      <contour>
        <pt x="1782" y="1905" on="1"/>
        <pt x="2089" y="1935" on="1"/>
        <pt x="1905" y="1935" on="1"/>
      </contour>
      <contour>
        <pt x="676" y="1843" on="1"/>
        <pt x="676" y="1628" on="1"/>
        <pt x="707" y="1628" on="1"/>
        <pt x="707" y="1843" on="1"/>
      </contour>
      <contour>
        <pt x="1690" y="1843" on="1"/>
        <pt x="1613" y="1818" on="0"/>
        <pt x="1522" y="1802" on="1"/>
        <pt x="1305" y="1774" on="1"/>
        <pt x="1260" y="1769" on="0"/>
        <pt x="1215" y="1765" on="1"/>
        <pt x="1145" y="1757" on="0"/>
        <pt x="1106" y="1751" on="1"/>
        <pt x="1385" y="1843" on="0"/>
      </contour>
      <contour>
        <pt x="1905" y="1751" on="1"/>
        <pt x="2089" y="1751" on="1"/>
        <pt x="2089" y="1812" on="1"/>
        <pt x="1905" y="1812" on="1"/>
      </contour>
    </TTGlyph>
    <TTGlyph name="G" xMin="31" yMin="0" xMax="2611" yMax="3441">
      <contour>
        <pt x="2396" y="2826" on="1"/>
        <pt x="2334" y="2784" on="0"/>
        <pt x="2272" y="2610" on="0"/>
        <pt x="2260" y="2483" on="1"/>
        <pt x="2239" y="2249" on="1"/>
        <pt x="2239" y="2201" on="0"/>
        <pt x="2224" y="2124" on="0"/>
        <pt x="2212" y="2089" on="1"/>
        <pt x="2338" y="2089" on="0"/>
        <pt x="2495" y="2019" on="0"/>
        <pt x="2578" y="1875" on="0"/>
        <pt x="2595" y="1760" on="1"/>
        <pt x="2603" y="1700" on="0"/>
        <pt x="2611" y="1566" on="0"/>
        <pt x="2611" y="1475" on="1"/>
        <pt x="2510" y="1351" on="0"/>
        <pt x="2463" y="1198" on="1"/>
        <pt x="2441" y="1124" on="0"/>
        <pt x="2412" y="969" on="0"/>
        <pt x="2404" y="882" on="1"/>
        <pt x="2404" y="802" on="0"/>
        <pt x="2389" y="664" on="1"/>
        <pt x="2380" y="589" on="0"/>
        <pt x="2372" y="514" on="1"/>
        <pt x="2354" y="307" on="0"/>
        <pt x="2304" y="184" on="1"/>
        <pt x="2325" y="158" on="1"/>
        <pt x="2340" y="138" on="0"/>
        <pt x="2368" y="123" on="0"/>
        <pt x="2396" y="123" on="1"/>
        <pt x="2403" y="138" on="0"/>
        <pt x="2410" y="171" on="0"/>
        <pt x="2410" y="190" on="1"/>
        <pt x="2410" y="203" on="0"/>
        <pt x="2412" y="262" on="0"/>
        <pt x="2412" y="279" on="1"/>
        <pt x="2412" y="302" on="0"/>
        <pt x="2420" y="347" on="0"/>
        <pt x="2427" y="369" on="1"/>
        <pt x="2396" y="0" on="1"/>
        <pt x="2212" y="0" on="1"/>
        <pt x="2212" y="111" on="0"/>
        <pt x="2199" y="209" on="1"/>
        <pt x="2193" y="260" on="0"/>
        <pt x="2176" y="368" on="0"/>
        <pt x="2162" y="437" on="1"/>
        <pt x="2138" y="563" on="0"/>
        <pt x="2120" y="701" on="0"/>
        <pt x="2120" y="799" on="1"/>
        <pt x="2005" y="708" on="0"/>
        <pt x="1875" y="661" on="1"/>
        <pt x="1812" y="638" on="0"/>
        <pt x="1687" y="614" on="0"/>
        <pt x="1628" y="614" on="1"/>
        <pt x="1503" y="614" on="0"/>
        <pt x="1251" y="661" on="0"/>
        <pt x="885" y="752" on="0"/>
        <pt x="640" y="799" on="0"/>
        <pt x="522" y="799" on="1"/>
        <pt x="456" y="894" on="0"/>
        <pt x="418" y="1072" on="1"/>
        <pt x="351" y="1410" on="1"/>
        <pt x="321" y="1572" on="0"/>
        <pt x="180" y="1862" on="0"/>
        <pt x="31" y="1966" on="1"/>
        <pt x="87" y="2210" on="0"/>
        <pt x="355" y="2661" on="0"/>
        <pt x="728" y="3046" on="0"/>
        <pt x="1148" y="3345" on="0"/>
        <pt x="1352" y="3441" on="1"/>
        <pt x="1553" y="3441" on="0"/>
        <pt x="1861" y="3315" on="0"/>
        <pt x="2058" y="3145" on="0"/>
        <pt x="2321" y="2876" on="0"/>
      </contour>
      <contour>
        <pt x="1905" y="3195" on="1"/>
        <pt x="1718" y="3287" on="0"/>
        <pt x="1536" y="3287" on="1"/>
        <pt x="1346" y="3287" on="0"/>
        <pt x="974" y="3112" on="0"/>
        <pt x="655" y="2823" on="0"/>
        <pt x="522" y="2642" on="1"/>
        <pt x="496" y="2589" on="0"/>
        <pt x="368" y="2377" on="0"/>
        <pt x="279" y="2213" on="0"/>
        <pt x="215" y="2038" on="0"/>
        <pt x="215" y="1966" on="1"/>
        <pt x="215" y="1893" on="0"/>
        <pt x="272" y="1757" on="0"/>
        <pt x="338" y="1690" on="1"/>
        <pt x="361" y="1773" on="0"/>
        <pt x="467" y="1930" on="1"/>
        <pt x="568" y="2080" on="0"/>
        <pt x="609" y="2149" on="1"/>
        <pt x="645" y="2211" on="0"/>
        <pt x="645" y="2304" on="1"/>
        <pt x="645" y="2457" on="0"/>
        <pt x="522" y="2580" on="1"/>
        <pt x="642" y="2711" on="0"/>
        <pt x="986" y="2934" on="0"/>
        <pt x="1364" y="3091" on="0"/>
        <pt x="1557" y="3138" on="1"/>
        <pt x="1669" y="3165" on="0"/>
        <pt x="1739" y="3178" on="1"/>
        <pt x="1833" y="3195" on="0"/>
      </contour>
      <contour>
        <pt x="2028" y="3011" on="1"/>
        <pt x="1832" y="3011" on="0"/>
        <pt x="1668" y="2984" on="1"/>
        <pt x="1582" y="2970" on="0"/>
        <pt x="1437" y="2934" on="0"/>
        <pt x="1358" y="2907" on="1"/>
        <pt x="1211" y="2858" on="0"/>
        <pt x="1061" y="2784" on="1"/>
        <pt x="990" y="2749" on="0"/>
        <pt x="822" y="2660" on="0"/>
        <pt x="737" y="2611" on="1"/>
        <pt x="737" y="2518" on="0"/>
        <pt x="767" y="2366" on="0"/>
        <pt x="799" y="2304" on="1"/>
        <pt x="842" y="2445" on="0"/>
        <pt x="1025" y="2643" on="0"/>
        <pt x="1238" y="2768" on="0"/>
        <pt x="1598" y="2943" on="0"/>
        <pt x="1659" y="2980" on="1"/>
        <pt x="1731" y="2980" on="0"/>
        <pt x="1858" y="2913" on="0"/>
        <pt x="1965" y="2823" on="0"/>
        <pt x="2082" y="2734" on="0"/>
        <pt x="2120" y="2734" on="1"/>
        <pt x="2165" y="2734" on="0"/>
        <pt x="2219" y="2780" on="0"/>
        <pt x="2243" y="2826" on="1"/>
        <pt x="2225" y="2864" on="0"/>
        <pt x="2206" y="2888" on="1"/>
        <pt x="2189" y="2912" on="0"/>
        <pt x="2181" y="2918" on="1"/>
        <pt x="2168" y="2918" on="0"/>
        <pt x="2152" y="2900" on="0"/>
        <pt x="2141" y="2876" on="1"/>
        <pt x="2120" y="2826" on="1"/>
        <pt x="2113" y="2842" on="0"/>
        <pt x="2057" y="2914" on="0"/>
        <pt x="2028" y="2970" on="0"/>
      </contour>
      <contour>
        <pt x="1597" y="2703" on="1"/>
        <pt x="1812" y="2765" on="1"/>
        <pt x="1597" y="2765" on="1"/>
      </contour>
      <contour>
        <pt x="1905" y="2488" on="1"/>
        <pt x="1413" y="2488" on="1"/>
        <pt x="1360" y="2425" on="0"/>
        <pt x="1064" y="2221" on="0"/>
        <pt x="922" y="2074" on="0"/>
        <pt x="922" y="1966" on="1"/>
        <pt x="922" y="1903" on="0"/>
        <pt x="983" y="1782" on="1"/>
        <pt x="1162" y="1782" on="0"/>
        <pt x="1526" y="1848" on="0"/>
        <pt x="1798" y="1930" on="0"/>
        <pt x="2089" y="2028" on="1"/>
        <pt x="1935" y="2120" on="1"/>
        <pt x="1956" y="2161" on="0"/>
        <pt x="2032" y="2181" on="0"/>
        <pt x="2089" y="2181" on="1"/>
        <pt x="2089" y="2304" on="1"/>
        <pt x="1935" y="2304" on="1"/>
        <pt x="1892" y="2278" on="0"/>
        <pt x="1892" y="2222" on="1"/>
        <pt x="1885" y="2109" on="1"/>
        <pt x="1885" y="2055" on="0"/>
        <pt x="1843" y="2028" on="1"/>
        <pt x="1720" y="2181" on="1"/>
        <pt x="1738" y="2207" on="0"/>
        <pt x="1801" y="2362" on="0"/>
        <pt x="1852" y="2448" on="0"/>
      </contour>
      <contour>
        <pt x="1628" y="1720" on="1"/>
        <pt x="2427" y="1966" on="1"/>
        <pt x="2150" y="1966" on="1"/>
      </contour>
      <contour>
        <pt x="1444" y="1659" on="1"/>
        <pt x="1412" y="1653" on="0"/>
        <pt x="1314" y="1642" on="0"/>
        <pt x="1264" y="1642" on="1"/>
        <pt x="1212" y="1642" on="0"/>
        <pt x="1137" y="1636" on="0"/>
        <pt x="1036" y="1624" on="0"/>
        <pt x="983" y="1597" on="1"/>
        <pt x="983" y="1557" on="0"/>
        <pt x="1010" y="1483" on="0"/>
        <pt x="1025" y="1464" on="1"/>
        <pt x="1083" y="1391" on="1"/>
        <pt x="1137" y="1321" on="1"/>
        <pt x="1217" y="1321" on="0"/>
        <pt x="1361" y="1329" on="0"/>
        <pt x="1424" y="1338" on="1"/>
        <pt x="1552" y="1357" on="0"/>
        <pt x="1628" y="1382" on="1"/>
        <pt x="1597" y="1382" on="1"/>
        <pt x="1531" y="1416" on="0"/>
        <pt x="1444" y="1538" on="0"/>
      </contour>
      <contour>
        <pt x="2028" y="1475" on="1"/>
        <pt x="1804" y="1476" on="1"/>
        <pt x="1739" y="1476" on="0"/>
        <pt x="1675" y="1489" on="0"/>
        <pt x="1659" y="1505" on="1"/>
        <pt x="1843" y="1321" on="1"/>
        <pt x="1413" y="1106" on="1"/>
        <pt x="1299" y="1125" on="0"/>
        <pt x="1070" y="1207" on="0"/>
        <pt x="872" y="1362" on="0"/>
        <pt x="829" y="1475" on="1"/>
        <pt x="737" y="1382" on="1"/>
        <pt x="819" y="1289" on="0"/>
        <pt x="956" y="1162" on="0"/>
        <pt x="1035" y="1114" on="1"/>
        <pt x="1110" y="1069" on="0"/>
        <pt x="1308" y="1014" on="0"/>
        <pt x="1413" y="1014" on="1"/>
        <pt x="1447" y="1039" on="0"/>
        <pt x="1507" y="1063" on="1"/>
        <pt x="1641" y="1117" on="1"/>
        <pt x="1716" y="1147" on="0"/>
        <pt x="1800" y="1225" on="0"/>
        <pt x="1812" y="1290" on="1"/>
        <pt x="1831" y="1309" on="0"/>
        <pt x="1951" y="1321" on="0"/>
        <pt x="2028" y="1321" on="1"/>
      </contour>
    </TTGlyph>
    <TTGlyph name="H" xMin="123" yMin="154" xMax="2273" yMax="3379">
      <contour>
        <pt x="2273" y="3256" on="1"/>
        <pt x="2273" y="3159" on="0"/>
        <pt x="2263" y="2956" on="0"/>
        <pt x="2252" y="2738" on="0"/>
        <pt x="2252" y="2675" on="1"/>
        <pt x="2252" y="2591" on="0"/>
        <pt x="2243" y="2489" on="1"/>
        <pt x="2238" y="2432" on="0"/>
        <pt x="2220" y="2289" on="1"/>
        <pt x="2206" y="2182" on="0"/>
        <pt x="2182" y="1972" on="0"/>
        <pt x="2171" y="1870" on="1"/>
        <pt x="2154" y="1708" on="0"/>
        <pt x="2152" y="1693" on="1"/>
        <pt x="2142" y="1596" on="0"/>
        <pt x="2137" y="1543" on="1"/>
        <pt x="2137" y="1476" on="0"/>
        <pt x="2132" y="1392" on="1"/>
        <pt x="2120" y="1190" on="0"/>
        <pt x="2120" y="1137" on="1"/>
        <pt x="2120" y="1075" on="0"/>
        <pt x="2123" y="1013" on="1"/>
        <pt x="2132" y="827" on="0"/>
        <pt x="2132" y="808" on="1"/>
        <pt x="2132" y="734" on="0"/>
        <pt x="2144" y="647" on="1"/>
        <pt x="2162" y="537" on="0"/>
        <pt x="2171" y="482" on="1"/>
        <pt x="2198" y="318" on="0"/>
        <pt x="2243" y="154" on="1"/>
        <pt x="2159" y="154" on="0"/>
        <pt x="2045" y="233" on="0"/>
        <pt x="1987" y="325" on="0"/>
        <pt x="1901" y="495" on="0"/>
        <pt x="1874" y="522" on="1"/>
        <pt x="1921" y="592" on="0"/>
        <pt x="1966" y="744" on="0"/>
        <pt x="1966" y="829" on="1"/>
        <pt x="1966" y="863" on="0"/>
        <pt x="1958" y="941" on="0"/>
        <pt x="1949" y="982" on="1"/>
        <pt x="1931" y="1072" on="0"/>
        <pt x="1903" y="1181" on="1"/>
        <pt x="1894" y="1221" on="0"/>
        <pt x="1879" y="1289" on="1"/>
        <pt x="1868" y="1341" on="0"/>
        <pt x="1851" y="1436" on="0"/>
        <pt x="1843" y="1520" on="0"/>
        <pt x="1843" y="1567" on="1"/>
        <pt x="1756" y="1480" on="0"/>
        <pt x="1524" y="1415" on="1"/>
        <pt x="1306" y="1355" on="0"/>
        <pt x="1111" y="1306" on="1"/>
        <pt x="928" y="1261" on="0"/>
        <pt x="676" y="1099" on="0"/>
        <pt x="676" y="952" on="1"/>
        <pt x="676" y="862" on="0"/>
        <pt x="694" y="740" on="0"/>
        <pt x="737" y="676" on="1"/>
        <pt x="461" y="860" on="1"/>
        <pt x="444" y="843" on="0"/>
        <pt x="420" y="792" on="1"/>
        <pt x="413" y="775" on="0"/>
        <pt x="397" y="738" on="0"/>
        <pt x="373" y="693" on="0"/>
        <pt x="317" y="645" on="0"/>
        <pt x="276" y="645" on="1"/>
        <pt x="235" y="667" on="0"/>
        <pt x="208" y="709" on="1"/>
        <pt x="184" y="751" on="0"/>
        <pt x="184" y="799" on="1"/>
        <pt x="184" y="855" on="0"/>
        <pt x="207" y="925" on="1"/>
        <pt x="253" y="1072" on="1"/>
        <pt x="276" y="1146" on="0"/>
        <pt x="276" y="1198" on="1"/>
        <pt x="276" y="1321" on="0"/>
        <pt x="123" y="1321" on="1"/>
        <pt x="123" y="1373" on="0"/>
        <pt x="166" y="1422" on="0"/>
        <pt x="207" y="1431" on="1"/>
        <pt x="283" y="1448" on="1"/>
        <pt x="318" y="1457" on="0"/>
        <pt x="338" y="1475" on="1"/>
        <pt x="388" y="1636" on="0"/>
        <pt x="411" y="1794" on="1"/>
        <pt x="428" y="1921" on="0"/>
        <pt x="433" y="1962" on="1"/>
        <pt x="446" y="2074" on="0"/>
        <pt x="446" y="2157" on="1"/>
        <pt x="446" y="2250" on="0"/>
        <pt x="458" y="2350" on="1"/>
        <pt x="475" y="2465" on="0"/>
        <pt x="492" y="2589" on="0"/>
        <pt x="528" y="2746" on="0"/>
        <pt x="553" y="2826" on="1"/>
        <pt x="522" y="2857" on="1"/>
        <pt x="123" y="2519" on="1"/>
        <pt x="153" y="2627" on="0"/>
        <pt x="306" y="2828" on="0"/>
        <pt x="521" y="2978" on="0"/>
        <pt x="645" y="3011" on="1"/>
        <pt x="707" y="2673" on="1"/>
        <pt x="735" y="2673" on="0"/>
        <pt x="776" y="2696" on="0"/>
        <pt x="818" y="2746" on="0"/>
        <pt x="843" y="2765" on="0"/>
        <pt x="860" y="2765" on="1"/>
        <pt x="860" y="2826" on="1"/>
        <pt x="952" y="2826" on="1"/>
        <pt x="952" y="2789" on="0"/>
        <pt x="943" y="2706" on="1"/>
        <pt x="929" y="2587" on="0"/>
        <pt x="911" y="2412" on="0"/>
        <pt x="893" y="2244" on="0"/>
        <pt x="886" y="2192" on="1"/>
        <pt x="856" y="1917" on="1"/>
        <pt x="829" y="1628" on="1"/>
        <pt x="950" y="1628" on="0"/>
        <pt x="1202" y="1652" on="0"/>
        <pt x="1318" y="1671" on="1"/>
        <pt x="1456" y="1693" on="0"/>
        <pt x="1576" y="1720" on="1"/>
        <pt x="1712" y="1750" on="0"/>
        <pt x="1812" y="1782" on="1"/>
        <pt x="1819" y="1831" on="0"/>
        <pt x="1833" y="1938" on="0"/>
        <pt x="1833" y="1987" on="1"/>
        <pt x="1841" y="2182" on="1"/>
        <pt x="1843" y="2396" on="1"/>
        <pt x="1843" y="2458" on="0"/>
        <pt x="1838" y="2628" on="0"/>
        <pt x="1838" y="2633" on="1"/>
        <pt x="1838" y="2675" on="0"/>
        <pt x="1825" y="2775" on="0"/>
        <pt x="1803" y="2878" on="0"/>
        <pt x="1773" y="2970" on="0"/>
        <pt x="1751" y="3011" on="1"/>
        <pt x="1874" y="3011" on="1"/>
        <pt x="1874" y="2969" on="0"/>
        <pt x="1916" y="2915" on="0"/>
        <pt x="2007" y="2847" on="0"/>
        <pt x="2028" y="2826" on="1"/>
        <pt x="2058" y="3379" on="1"/>
        <pt x="2102" y="3379" on="0"/>
        <pt x="2134" y="3368" on="1"/>
        <pt x="2166" y="3359" on="0"/>
        <pt x="2204" y="3331" on="0"/>
        <pt x="2228" y="3305" on="1"/>
      </contour>
      <contour>
        <pt x="1935" y="2243" on="1"/>
        <pt x="2028" y="2673" on="1"/>
        <pt x="1935" y="2765" on="1"/>
      </contour>
      <contour>
        <pt x="553" y="1567" on="1"/>
        <pt x="645" y="1567" on="1"/>
        <pt x="645" y="2120" on="1"/>
      </contour>
      <contour>
        <pt x="522" y="1044" on="1"/>
        <pt x="553" y="1106" on="1"/>
        <pt x="584" y="1413" on="1"/>
      </contour>
      <contour>
        <pt x="2150" y="246" on="1"/>
        <pt x="2120" y="553" on="1"/>
        <pt x="2120" y="538" on="0"/>
        <pt x="2090" y="462" on="0"/>
        <pt x="2058" y="399" on="1"/>
        <pt x="2058" y="354" on="0"/>
        <pt x="2106" y="268" on="0"/>
      </contour>
    </TTGlyph>
    <TTGlyph name="I" xMin="92" yMin="0" xMax="645" yMax="3348">
      <contour>
        <pt x="645" y="3256" on="1"/>
        <pt x="645" y="3111" on="0"/>
        <pt x="643" y="2989" on="1"/>
        <pt x="637" y="2623" on="0"/>
        <pt x="637" y="2613" on="1"/>
        <pt x="637" y="2483" on="0"/>
        <pt x="617" y="2228" on="0"/>
        <pt x="597" y="2063" on="1"/>
        <pt x="564" y="1781" on="0"/>
        <pt x="492" y="1536" on="1"/>
        <pt x="492" y="1378" on="0"/>
        <pt x="456" y="1045" on="0"/>
        <pt x="424" y="862" on="1"/>
        <pt x="380" y="581" on="1"/>
        <pt x="375" y="543" on="0"/>
        <pt x="369" y="448" on="0"/>
        <pt x="369" y="399" on="1"/>
        <pt x="369" y="351" on="0"/>
        <pt x="371" y="275" on="0"/>
        <pt x="372" y="240" on="1"/>
        <pt x="372" y="208" on="0"/>
        <pt x="379" y="162" on="0"/>
        <pt x="400" y="62" on="0"/>
        <pt x="430" y="0" on="1"/>
        <pt x="338" y="0" on="1"/>
        <pt x="338" y="737" on="1"/>
        <pt x="184" y="522" on="1"/>
        <pt x="139" y="756" on="0"/>
        <pt x="115" y="969" on="1"/>
        <pt x="104" y="1071" on="0"/>
        <pt x="92" y="1281" on="0"/>
        <pt x="92" y="1382" on="1"/>
        <pt x="92" y="1461" on="0"/>
        <pt x="100" y="1555" on="1"/>
        <pt x="112" y="1669" on="0"/>
        <pt x="117" y="1724" on="1"/>
        <pt x="134" y="1910" on="0"/>
        <pt x="163" y="2176" on="1"/>
        <pt x="216" y="2697" on="1"/>
        <pt x="226" y="2806" on="0"/>
        <pt x="246" y="3031" on="0"/>
        <pt x="246" y="3103" on="1"/>
        <pt x="369" y="3348" on="1"/>
      </contour>
      <contour>
        <pt x="492" y="3256" on="1"/>
        <pt x="461" y="3041" on="1"/>
        <pt x="492" y="3041" on="1"/>
        <pt x="553" y="3256" on="1"/>
      </contour>
      <contour>
        <pt x="246" y="1905" on="1"/>
        <pt x="246" y="2036" on="0"/>
        <pt x="277" y="2302" on="0"/>
        <pt x="336" y="2646" on="0"/>
        <pt x="369" y="2908" on="0"/>
        <pt x="369" y="3011" on="1"/>
      </contour>
      <contour>
        <pt x="338" y="1444" on="1"/>
        <pt x="369" y="1843" on="1"/>
        <pt x="338" y="1567" on="1"/>
      </contour>
      <contour>
        <pt x="184" y="1812" on="1"/>
        <pt x="184" y="1628" on="1"/>
        <pt x="246" y="1628" on="1"/>
        <pt x="246" y="1812" on="1"/>
      </contour>
    </TTGlyph>
    <TTGlyph name="J" xMin="0" yMin="154" xMax="2857" yMax="3502">
      <contour>
        <pt x="2365" y="1905" on="1"/>
        <pt x="2443" y="2031" on="0"/>
        <pt x="2482" y="2246" on="1"/>
        <pt x="2550" y="2624" on="1"/>
        <pt x="2577" y="2788" on="0"/>
        <pt x="2709" y="3068" on="0"/>
        <pt x="2857" y="3164" on="1"/>
        <pt x="2857" y="3026" on="0"/>
        <pt x="2790" y="2773" on="0"/>
        <pt x="2732" y="2642" on="1"/>
        <pt x="2623" y="2393" on="1"/>
        <pt x="2573" y="2276" on="0"/>
        <pt x="2550" y="2181" on="1"/>
        <pt x="2550" y="2124" on="0"/>
        <pt x="2536" y="2038" on="1"/>
        <pt x="2526" y="1975" on="0"/>
        <pt x="2501" y="1863" on="1"/>
        <pt x="2482" y="1769" on="0"/>
        <pt x="2444" y="1594" on="0"/>
        <pt x="2423" y="1505" on="1"/>
        <pt x="2387" y="1335" on="0"/>
        <pt x="2335" y="943" on="0"/>
        <pt x="2335" y="737" on="1"/>
        <pt x="2227" y="629" on="0"/>
        <pt x="2010" y="571" on="0"/>
        <pt x="1487" y="479" on="0"/>
        <pt x="1230" y="331" on="0"/>
        <pt x="1167" y="154" on="1"/>
        <pt x="1086" y="154" on="0"/>
        <pt x="971" y="216" on="0"/>
        <pt x="920" y="273" on="1"/>
        <pt x="826" y="382" on="1"/>
        <pt x="782" y="435" on="0"/>
        <pt x="737" y="461" on="1"/>
        <pt x="737" y="619" on="0"/>
        <pt x="645" y="866" on="0"/>
        <pt x="484" y="1049" on="0"/>
        <pt x="250" y="1203" on="0"/>
        <pt x="123" y="1260" on="1"/>
        <pt x="83" y="1301" on="0"/>
        <pt x="39" y="1406" on="0"/>
        <pt x="21" y="1492" on="1"/>
        <pt x="0" y="1597" on="1"/>
        <pt x="60" y="1597" on="0"/>
        <pt x="141" y="1584" on="0"/>
        <pt x="171" y="1575" on="1"/>
        <pt x="175" y="1574" on="0"/>
        <pt x="212" y="1567" on="0"/>
        <pt x="215" y="1567" on="1"/>
        <pt x="339" y="1481" on="0"/>
        <pt x="466" y="1294" on="1"/>
        <pt x="698" y="947" on="1"/>
        <pt x="804" y="788" on="0"/>
        <pt x="938" y="685" on="1"/>
        <pt x="1005" y="634" on="0"/>
        <pt x="1163" y="584" on="0"/>
        <pt x="1260" y="584" on="1"/>
        <pt x="1164" y="679" on="0"/>
        <pt x="1116" y="957" on="1"/>
        <pt x="1095" y="1081" on="0"/>
        <pt x="1086" y="1139" on="1"/>
        <pt x="1071" y="1240" on="0"/>
        <pt x="1056" y="1400" on="0"/>
        <pt x="1056" y="1482" on="1"/>
        <pt x="1056" y="1574" on="0"/>
        <pt x="1048" y="1745" on="0"/>
        <pt x="1044" y="1843" on="1"/>
        <pt x="1173" y="1744" on="0"/>
        <pt x="1218" y="1617" on="1"/>
        <pt x="1231" y="1579" on="0"/>
        <pt x="1248" y="1520" on="1"/>
        <pt x="1261" y="1475" on="0"/>
        <pt x="1281" y="1396" on="1"/>
        <pt x="1312" y="1273" on="0"/>
        <pt x="1319" y="1245" on="1"/>
        <pt x="1376" y="1001" on="0"/>
        <pt x="1464" y="889" on="1"/>
        <pt x="1511" y="831" on="0"/>
        <pt x="1653" y="768" on="0"/>
        <pt x="1751" y="768" on="1"/>
        <pt x="1817" y="886" on="0"/>
        <pt x="1916" y="1139" on="0"/>
        <pt x="1947" y="1269" on="1"/>
        <pt x="1975" y="1391" on="0"/>
        <pt x="1986" y="1445" on="1"/>
        <pt x="2006" y="1544" on="0"/>
        <pt x="2028" y="1729" on="0"/>
        <pt x="2028" y="1822" on="1"/>
        <pt x="2070" y="2427" on="1"/>
        <pt x="2070" y="2531" on="0"/>
        <pt x="2090" y="2706" on="0"/>
        <pt x="2111" y="2811" on="1"/>
        <pt x="2123" y="2873" on="0"/>
        <pt x="2150" y="2980" on="1"/>
        <pt x="2150" y="3072" on="1"/>
        <pt x="2028" y="3072" on="1"/>
        <pt x="2028" y="3162" on="0"/>
        <pt x="2125" y="3245" on="0"/>
        <pt x="2329" y="3327" on="0"/>
        <pt x="2427" y="3412" on="0"/>
        <pt x="2427" y="3502" on="1"/>
        <pt x="2427" y="3457" on="0"/>
        <pt x="2425" y="3400" on="1"/>
        <pt x="2420" y="3257" on="0"/>
        <pt x="2420" y="3207" on="1"/>
        <pt x="2420" y="3157" on="0"/>
        <pt x="2407" y="2993" on="0"/>
        <pt x="2394" y="2792" on="0"/>
        <pt x="2394" y="2698" on="1"/>
        <pt x="2370" y="2217" on="1"/>
        <pt x="2370" y="2161" on="0"/>
        <pt x="2365" y="1938" on="0"/>
      </contour>
      <contour>
        <pt x="2335" y="3195" on="1"/>
        <pt x="2273" y="3011" on="1"/>
        <pt x="2335" y="3011" on="1"/>
        <pt x="2365" y="3195" on="1"/>
      </contour>
      <contour>
        <pt x="2212" y="2703" on="1"/>
        <pt x="2150" y="2150" on="1"/>
        <pt x="2212" y="2150" on="1"/>
        <pt x="2243" y="2703" on="1"/>
      </contour>
      <contour>
        <pt x="2335" y="1905" on="1"/>
        <pt x="2273" y="1690" on="1"/>
        <pt x="2335" y="1690" on="1"/>
        <pt x="2365" y="1905" on="1"/>
      </contour>
      <contour>
        <pt x="1260" y="369" on="1"/>
        <pt x="860" y="584" on="1"/>
        <pt x="881" y="563" on="0"/>
        <pt x="972" y="362" on="0"/>
        <pt x="1051" y="246" on="0"/>
        <pt x="1106" y="246" on="1"/>
        <pt x="1119" y="246" on="0"/>
        <pt x="1143" y="249" on="0"/>
        <pt x="1159" y="257" on="1"/>
        <pt x="1180" y="268" on="0"/>
        <pt x="1203" y="293" on="1"/>
        <pt x="1212" y="303" on="0"/>
        <pt x="1242" y="343" on="0"/>
      </contour>
    </TTGlyph>
    <TTGlyph name="K" xMin="0" yMin="0" xMax="3318" yMax="4086">
      <contour>
        <pt x="2089" y="3840" on="1"/>
        <pt x="2035" y="3740" on="0"/>
        <pt x="1905" y="3560" on="1"/>
        <pt x="1841" y="3471" on="0"/>
        <pt x="1742" y="3324" on="0"/>
        <pt x="1700" y="3257" on="1"/>
        <pt x="1625" y="3135" on="0"/>
        <pt x="1505" y="2783" on="0"/>
        <pt x="1505" y="2580" on="1"/>
        <pt x="1630" y="2682" on="0"/>
        <pt x="1883" y="2919" on="1"/>
        <pt x="2143" y="3162" on="0"/>
        <pt x="2320" y="3306" on="1"/>
        <pt x="2410" y="3380" on="0"/>
        <pt x="2618" y="3517" on="0"/>
        <pt x="2737" y="3581" on="1"/>
        <pt x="2968" y="3706" on="0"/>
        <pt x="3226" y="3748" on="1"/>
        <pt x="2857" y="3441" on="1"/>
        <pt x="2882" y="3418" on="0"/>
        <pt x="2961" y="3379" on="0"/>
        <pt x="2980" y="3379" on="1"/>
        <pt x="3017" y="3379" on="0"/>
        <pt x="3096" y="3411" on="1"/>
        <pt x="3138" y="3429" on="0"/>
        <pt x="3186" y="3448" on="0"/>
        <pt x="3213" y="3457" on="1"/>
        <pt x="3253" y="3471" on="0"/>
        <pt x="3318" y="3471" on="1"/>
        <pt x="3318" y="3348" on="1"/>
        <pt x="3196" y="3348" on="0"/>
        <pt x="3094" y="3318" on="1"/>
        <pt x="3047" y="3304" on="0"/>
        <pt x="2953" y="3264" on="0"/>
        <pt x="2913" y="3241" on="1"/>
        <pt x="2831" y="3195" on="0"/>
        <pt x="2742" y="3126" on="1"/>
        <pt x="2550" y="2980" on="1"/>
        <pt x="2562" y="2969" on="0"/>
        <pt x="2594" y="2918" on="0"/>
        <pt x="2611" y="2918" on="1"/>
        <pt x="2624" y="2918" on="0"/>
        <pt x="2657" y="2947" on="1"/>
        <pt x="2662" y="2952" on="0"/>
        <pt x="2688" y="2973" on="1"/>
        <pt x="2708" y="2990" on="0"/>
        <pt x="2714" y="2994" on="1"/>
        <pt x="2739" y="3011" on="0"/>
        <pt x="2765" y="3011" on="1"/>
        <pt x="2779" y="3011" on="0"/>
        <pt x="2786" y="3003" on="1"/>
        <pt x="2794" y="2997" on="0"/>
        <pt x="2812" y="2963" on="0"/>
        <pt x="2826" y="2949" on="1"/>
        <pt x="2787" y="2856" on="0"/>
        <pt x="2619" y="2724" on="0"/>
        <pt x="2458" y="2635" on="1"/>
        <pt x="2301" y="2549" on="0"/>
        <pt x="2204" y="2487" on="1"/>
        <pt x="2111" y="2429" on="0"/>
        <pt x="2028" y="2335" on="1"/>
        <pt x="2058" y="2170" on="0"/>
        <pt x="2251" y="1921" on="0"/>
        <pt x="2595" y="1618" on="0"/>
        <pt x="2785" y="1402" on="0"/>
        <pt x="2826" y="1260" on="1"/>
        <pt x="2734" y="1167" on="1"/>
        <pt x="2787" y="1115" on="0"/>
        <pt x="2970" y="870" on="0"/>
        <pt x="3100" y="732" on="0"/>
        <pt x="3195" y="676" on="1"/>
        <pt x="3318" y="737" on="1"/>
        <pt x="3287" y="614" on="1"/>
        <pt x="3234" y="614" on="0"/>
        <pt x="3161" y="652" on="1"/>
        <pt x="3014" y="729" on="1"/>
        <pt x="2940" y="768" on="0"/>
        <pt x="2888" y="768" on="1"/>
        <pt x="2846" y="768" on="0"/>
        <pt x="2790" y="732" on="0"/>
        <pt x="2734" y="676" on="1"/>
        <pt x="2821" y="601" on="0"/>
        <pt x="2916" y="459" on="0"/>
        <pt x="2936" y="396" on="1"/>
        <pt x="2953" y="344" on="0"/>
        <pt x="2977" y="225" on="1"/>
        <pt x="3011" y="61" on="1"/>
        <pt x="3103" y="0" on="1"/>
        <pt x="2915" y="93" on="0"/>
        <pt x="2624" y="365" on="0"/>
        <pt x="2490" y="539" on="1"/>
        <pt x="2211" y="906" on="1"/>
        <pt x="2070" y="1094" on="0"/>
        <pt x="1935" y="1229" on="1"/>
        <pt x="1780" y="1154" on="1"/>
        <pt x="1720" y="1128" on="0"/>
        <pt x="1643" y="1099" on="1"/>
        <pt x="1575" y="1076" on="0"/>
        <pt x="1487" y="1058" on="1"/>
        <pt x="1405" y="1044" on="0"/>
        <pt x="1321" y="1044" on="1"/>
        <pt x="1075" y="1321" on="1"/>
        <pt x="1014" y="1302" on="0"/>
        <pt x="983" y="1229" on="0"/>
        <pt x="983" y="1167" on="1"/>
        <pt x="983" y="1152" on="0"/>
        <pt x="985" y="1117" on="0"/>
        <pt x="988" y="1098" on="1"/>
        <pt x="1000" y="1023" on="1"/>
        <pt x="1010" y="964" on="1"/>
        <pt x="1014" y="922" on="1"/>
        <pt x="1014" y="810" on="0"/>
        <pt x="891" y="768" on="1"/>
        <pt x="878" y="647" on="1"/>
        <pt x="878" y="609" on="0"/>
        <pt x="870" y="556" on="0"/>
        <pt x="863" y="520" on="1"/>
        <pt x="857" y="476" on="0"/>
        <pt x="814" y="375" on="0"/>
        <pt x="768" y="307" on="1"/>
        <pt x="768" y="355" on="0"/>
        <pt x="772" y="608" on="0"/>
        <pt x="772" y="635" on="1"/>
        <pt x="784" y="1080" on="1"/>
        <pt x="795" y="1550" on="1"/>
        <pt x="799" y="1966" on="1"/>
        <pt x="891" y="1966" on="1"/>
        <pt x="903" y="2042" on="0"/>
        <pt x="928" y="2215" on="1"/>
        <pt x="950" y="2365" on="0"/>
        <pt x="971" y="2518" on="0"/>
        <pt x="998" y="2744" on="0"/>
        <pt x="1014" y="3017" on="0"/>
        <pt x="1014" y="3164" on="1"/>
        <pt x="956" y="3164" on="0"/>
        <pt x="831" y="3138" on="0"/>
        <pt x="788" y="3122" on="1"/>
        <pt x="682" y="3089" on="1"/>
        <pt x="622" y="3072" on="0"/>
        <pt x="584" y="3072" on="1"/>
        <pt x="560" y="3072" on="0"/>
        <pt x="475" y="3120" on="0"/>
        <pt x="430" y="3164" on="1"/>
        <pt x="768" y="3471" on="1"/>
        <pt x="726" y="3471" on="0"/>
        <pt x="640" y="3453" on="0"/>
        <pt x="597" y="3434" on="1"/>
        <pt x="511" y="3397" on="0"/>
        <pt x="416" y="3330" on="1"/>
        <pt x="251" y="3213" on="1"/>
        <pt x="185" y="3167" on="0"/>
        <pt x="123" y="3133" on="1"/>
        <pt x="0" y="3164" on="1"/>
        <pt x="532" y="3485" on="1"/>
        <pt x="798" y="3645" on="0"/>
        <pt x="1289" y="3890" on="0"/>
        <pt x="1565" y="3977" on="1"/>
        <pt x="1672" y="4011" on="0"/>
        <pt x="1749" y="4031" on="1"/>
        <pt x="1851" y="4058" on="0"/>
        <pt x="2029" y="4086" on="0"/>
        <pt x="2120" y="4086" on="1"/>
      </contour>
      <contour>
        <pt x="1720" y="3625" on="1"/>
        <pt x="1762" y="3667" on="0"/>
        <pt x="1805" y="3734" on="1"/>
        <pt x="1844" y="3795" on="0"/>
        <pt x="1876" y="3866" on="1"/>
        <pt x="1905" y="3932" on="0"/>
        <pt x="1905" y="3963" on="1"/>
        <pt x="1784" y="3930" on="0"/>
        <pt x="1537" y="3835" on="0"/>
        <pt x="1390" y="3769" on="1"/>
        <pt x="1137" y="3655" on="1"/>
        <pt x="1035" y="3610" on="0"/>
        <pt x="922" y="3564" on="1"/>
        <pt x="982" y="3510" on="1"/>
        <pt x="1014" y="3481" on="0"/>
        <pt x="1014" y="3441" on="1"/>
        <pt x="1087" y="3441" on="0"/>
        <pt x="1205" y="3510" on="0"/>
        <pt x="1370" y="3645" on="0"/>
        <pt x="1496" y="3717" on="0"/>
        <pt x="1567" y="3717" on="1"/>
        <pt x="1659" y="3717" on="0"/>
        <pt x="1720" y="3656" on="1"/>
      </contour>
      <contour>
        <pt x="768" y="3256" on="1"/>
        <pt x="922" y="3379" on="1"/>
        <pt x="829" y="3379" on="1"/>
      </contour>
      <contour>
        <pt x="1751" y="2642" on="1"/>
        <pt x="1930" y="2784" on="1"/>
        <pt x="2080" y="2906" on="0"/>
        <pt x="2300" y="3063" on="0"/>
        <pt x="2445" y="3140" on="1"/>
        <pt x="2584" y="3213" on="0"/>
        <pt x="2734" y="3256" on="1"/>
        <pt x="2583" y="3084" on="0"/>
        <pt x="2310" y="2831" on="0"/>
        <pt x="1947" y="2642" on="0"/>
      </contour>
      <contour>
        <pt x="1198" y="2365" on="1"/>
        <pt x="1201" y="2384" on="0"/>
        <pt x="1213" y="2433" on="0"/>
        <pt x="1224" y="2473" on="1"/>
        <pt x="1254" y="2588" on="1"/>
        <pt x="1289" y="2724" on="1"/>
        <pt x="1321" y="2857" on="1"/>
        <pt x="1312" y="2808" on="0"/>
        <pt x="1260" y="2717" on="0"/>
        <pt x="1178" y="2607" on="0"/>
        <pt x="1137" y="2528" on="0"/>
        <pt x="1137" y="2488" on="1"/>
        <pt x="1137" y="2473" on="0"/>
        <pt x="1145" y="2458" on="1"/>
        <pt x="1170" y="2415" on="1"/>
      </contour>
      <contour>
        <pt x="2703" y="2857" on="1"/>
        <pt x="2181" y="2550" on="1"/>
        <pt x="2181" y="2519" on="1"/>
        <pt x="2734" y="2826" on="1"/>
      </contour>
      <contour>
        <pt x="1935" y="2427" on="1"/>
        <pt x="1874" y="2273" on="1"/>
        <pt x="1905" y="2273" on="1"/>
        <pt x="1997" y="2396" on="1"/>
      </contour>
      <contour>
        <pt x="1812" y="1475" on="1"/>
        <pt x="1505" y="1966" on="1"/>
        <pt x="1402" y="1966" on="0"/>
        <pt x="1313" y="1864" on="0"/>
        <pt x="1298" y="1779" on="1"/>
        <pt x="1265" y="1595" on="1"/>
        <pt x="1247" y="1493" on="0"/>
        <pt x="1198" y="1444" on="1"/>
        <pt x="1212" y="1409" on="0"/>
        <pt x="1242" y="1348" on="0"/>
        <pt x="1258" y="1322" on="1"/>
        <pt x="1286" y="1276" on="0"/>
        <pt x="1336" y="1230" on="1"/>
        <pt x="1382" y="1190" on="0"/>
        <pt x="1536" y="1137" on="0"/>
        <pt x="1628" y="1137" on="1"/>
        <pt x="1628" y="1149" on="0"/>
        <pt x="1636" y="1176" on="0"/>
        <pt x="1647" y="1201" on="1"/>
        <pt x="1664" y="1241" on="0"/>
        <pt x="1690" y="1334" on="0"/>
        <pt x="1690" y="1413" on="1"/>
        <pt x="1701" y="1413" on="0"/>
        <pt x="1729" y="1435" on="1"/>
        <pt x="1772" y="1466" on="1"/>
        <pt x="1787" y="1475" on="0"/>
      </contour>
      <contour>
        <pt x="1874" y="1874" on="1"/>
        <pt x="2181" y="1444" on="1"/>
        <pt x="2212" y="1475" on="1"/>
        <pt x="1905" y="1905" on="1"/>
      </contour>
      <contour>
        <pt x="2304" y="1536" on="1"/>
        <pt x="2611" y="1137" on="1"/>
        <pt x="2642" y="1167" on="1"/>
        <pt x="2335" y="1567" on="1"/>
      </contour>
      <contour>
        <pt x="2335" y="860" on="1"/>
        <pt x="2488" y="737" on="1"/>
        <pt x="2519" y="768" on="1"/>
        <pt x="2365" y="891" on="1"/>
      </contour>
    </TTGlyph>
    <TTGlyph name="L" xMin="154" yMin="123" xMax="2673" yMax="3103">
      <contour>
        <pt x="860" y="3103" on="1"/>
        <pt x="860" y="2814" on="0"/>
        <pt x="805" y="2218" on="0"/>
        <pt x="704" y="1622" on="0"/>
        <pt x="549" y="997" on="0"/>
        <pt x="461" y="737" on="1"/>
        <pt x="985" y="779" on="1"/>
        <pt x="1511" y="817" on="1"/>
        <pt x="1908" y="846" on="1"/>
        <pt x="2488" y="891" on="1"/>
        <pt x="2673" y="891" on="1"/>
        <pt x="2471" y="845" on="1"/>
        <pt x="2326" y="814" on="0"/>
        <pt x="2164" y="767" on="0"/>
        <pt x="1979" y="678" on="0"/>
        <pt x="1905" y="614" on="1"/>
        <pt x="1966" y="492" on="1"/>
        <pt x="1829" y="459" on="0"/>
        <pt x="1556" y="368" on="1"/>
        <pt x="1154" y="236" on="1"/>
        <pt x="1038" y="200" on="0"/>
        <pt x="853" y="159" on="1"/>
        <pt x="679" y="123" on="0"/>
        <pt x="522" y="123" on="1"/>
        <pt x="445" y="123" on="0"/>
        <pt x="271" y="154" on="0"/>
        <pt x="154" y="184" on="1"/>
        <pt x="239" y="197" on="0"/>
        <pt x="393" y="223" on="0"/>
        <pt x="476" y="239" on="1"/>
        <pt x="771" y="296" on="1"/>
        <pt x="1068" y="359" on="1"/>
        <pt x="1382" y="430" on="1"/>
        <pt x="1299" y="458" on="0"/>
        <pt x="1163" y="492" on="0"/>
        <pt x="1106" y="492" on="1"/>
        <pt x="1017" y="492" on="0"/>
        <pt x="821" y="469" on="0"/>
        <pt x="673" y="443" on="1"/>
        <pt x="624" y="435" on="0"/>
        <pt x="538" y="422" on="1"/>
        <pt x="480" y="413" on="0"/>
        <pt x="440" y="408" on="1"/>
        <pt x="363" y="399" on="0"/>
        <pt x="276" y="399" on="1"/>
        <pt x="234" y="441" on="0"/>
        <pt x="184" y="530" on="0"/>
        <pt x="184" y="553" on="1"/>
        <pt x="184" y="581" on="0"/>
        <pt x="194" y="636" on="0"/>
        <pt x="207" y="672" on="1"/>
        <pt x="253" y="803" on="1"/>
        <pt x="276" y="870" on="0"/>
        <pt x="276" y="922" on="1"/>
        <pt x="276" y="1014" on="0"/>
        <pt x="184" y="1106" on="1"/>
        <pt x="399" y="2826" on="1"/>
        <pt x="459" y="2826" on="0"/>
        <pt x="557" y="2775" on="0"/>
        <pt x="614" y="2688" on="0"/>
        <pt x="614" y="2642" on="1"/>
        <pt x="640" y="2686" on="0"/>
        <pt x="657" y="2759" on="1"/>
        <pt x="665" y="2795" on="0"/>
        <pt x="682" y="2873" on="0"/>
        <pt x="692" y="2915" on="1"/>
        <pt x="711" y="2998" on="0"/>
        <pt x="785" y="3093" on="0"/>
      </contour>
      <contour>
        <pt x="1044" y="1290" on="1"/>
        <pt x="1035" y="1272" on="0"/>
        <pt x="1024" y="1189" on="0"/>
        <pt x="1010" y="1152" on="0"/>
        <pt x="983" y="1137" on="1"/>
        <pt x="962" y="1137" on="0"/>
        <pt x="947" y="1148" on="1"/>
        <pt x="891" y="1198" on="1"/>
        <pt x="891" y="1212" on="0"/>
        <pt x="913" y="1227" on="1"/>
        <pt x="924" y="1234" on="0"/>
        <pt x="954" y="1248" on="0"/>
        <pt x="983" y="1262" on="1"/>
      </contour>
    </TTGlyph>
    <TTGlyph name="M" xMin="92" yMin="0" xMax="2980" yMax="3287">
      <contour>
        <pt x="2642" y="3011" on="1"/>
        <pt x="2600" y="2948" on="0"/>
        <pt x="2550" y="2812" on="0"/>
        <pt x="2550" y="2765" on="1"/>
        <pt x="2550" y="2723" on="0"/>
        <pt x="2560" y="2649" on="0"/>
        <pt x="2584" y="2567" on="0"/>
        <pt x="2618" y="2469" on="0"/>
        <pt x="2641" y="2413" on="1"/>
        <pt x="2686" y="2301" on="0"/>
        <pt x="2734" y="2143" on="0"/>
        <pt x="2734" y="2058" on="1"/>
        <pt x="2734" y="1962" on="0"/>
        <pt x="2739" y="1695" on="0"/>
        <pt x="2739" y="1685" on="1"/>
        <pt x="2739" y="1613" on="0"/>
        <pt x="2747" y="1531" on="1"/>
        <pt x="2752" y="1480" on="0"/>
        <pt x="2768" y="1368" on="1"/>
        <pt x="2780" y="1282" on="0"/>
        <pt x="2815" y="1132" on="0"/>
        <pt x="2842" y="1055" on="1"/>
        <pt x="2893" y="909" on="0"/>
        <pt x="2980" y="799" on="1"/>
        <pt x="2954" y="746" on="0"/>
        <pt x="2926" y="659" on="1"/>
        <pt x="2902" y="583" on="0"/>
        <pt x="2897" y="566" on="1"/>
        <pt x="2884" y="526" on="0"/>
        <pt x="2861" y="458" on="1"/>
        <pt x="2825" y="348" on="0"/>
        <pt x="2737" y="196" on="0"/>
        <pt x="2673" y="154" on="1"/>
        <pt x="2673" y="399" on="1"/>
        <pt x="2646" y="399" on="0"/>
        <pt x="2623" y="415" on="1"/>
        <pt x="2555" y="471" on="1"/>
        <pt x="2511" y="511" on="0"/>
        <pt x="2488" y="522" on="1"/>
        <pt x="2488" y="504" on="0"/>
        <pt x="2457" y="497" on="1"/>
        <pt x="2424" y="492" on="0"/>
        <pt x="2365" y="492" on="1"/>
        <pt x="2365" y="583" on="0"/>
        <pt x="2358" y="895" on="0"/>
        <pt x="2358" y="937" on="1"/>
        <pt x="2358" y="1004" on="0"/>
        <pt x="2352" y="1093" on="1"/>
        <pt x="2339" y="1286" on="0"/>
        <pt x="2339" y="1328" on="1"/>
        <pt x="2339" y="1416" on="0"/>
        <pt x="2321" y="1555" on="1"/>
        <pt x="2307" y="1653" on="0"/>
        <pt x="2301" y="1702" on="1"/>
        <pt x="2276" y="1908" on="0"/>
        <pt x="2243" y="2089" on="1"/>
        <pt x="2149" y="1955" on="0"/>
        <pt x="2077" y="1815" on="1"/>
        <pt x="2054" y="1770" on="0"/>
        <pt x="2029" y="1717" on="1"/>
        <pt x="2008" y="1673" on="0"/>
        <pt x="1976" y="1603" on="1"/>
        <pt x="1932" y="1507" on="0"/>
        <pt x="1916" y="1471" on="1"/>
        <pt x="1873" y="1374" on="0"/>
        <pt x="1834" y="1287" on="1"/>
        <pt x="1790" y="1190" on="0"/>
        <pt x="1767" y="1143" on="1"/>
        <pt x="1708" y="1020" on="0"/>
        <pt x="1628" y="891" on="1"/>
        <pt x="1628" y="676" on="1"/>
        <pt x="1607" y="718" on="0"/>
        <pt x="1531" y="768" on="0"/>
        <pt x="1505" y="768" on="1"/>
        <pt x="1463" y="768" on="0"/>
        <pt x="1378" y="705" on="0"/>
        <pt x="1321" y="615" on="0"/>
        <pt x="1321" y="584" on="1"/>
        <pt x="1260" y="369" on="1"/>
        <pt x="1190" y="479" on="0"/>
        <pt x="1097" y="729" on="0"/>
        <pt x="963" y="1161" on="0"/>
        <pt x="909" y="1297" on="1"/>
        <pt x="852" y="1443" on="0"/>
        <pt x="768" y="1567" on="1"/>
        <pt x="768" y="1436" on="0"/>
        <pt x="723" y="1153" on="0"/>
        <pt x="681" y="963" on="1"/>
        <pt x="636" y="757" on="0"/>
        <pt x="596" y="542" on="0"/>
        <pt x="594" y="526" on="1"/>
        <pt x="584" y="458" on="0"/>
        <pt x="584" y="399" on="1"/>
        <pt x="461" y="399" on="1"/>
        <pt x="461" y="547" on="0"/>
        <pt x="364" y="786" on="0"/>
        <pt x="276" y="829" on="1"/>
        <pt x="276" y="928" on="0"/>
        <pt x="283" y="1234" on="0"/>
        <pt x="283" y="1266" on="1"/>
        <pt x="283" y="1375" on="0"/>
        <pt x="294" y="1509" on="1"/>
        <pt x="297" y="1548" on="0"/>
        <pt x="308" y="1656" on="1"/>
        <pt x="327" y="1864" on="0"/>
        <pt x="384" y="2215" on="0"/>
        <pt x="430" y="2427" on="1"/>
        <pt x="430" y="2491" on="0"/>
        <pt x="388" y="2561" on="0"/>
        <pt x="307" y="2626" on="0"/>
        <pt x="276" y="2666" on="0"/>
        <pt x="276" y="2703" on="1"/>
        <pt x="259" y="2620" on="0"/>
        <pt x="227" y="2496" on="1"/>
        <pt x="211" y="2433" on="0"/>
        <pt x="184" y="2307" on="0"/>
        <pt x="172" y="2245" on="1"/>
        <pt x="153" y="2138" on="0"/>
        <pt x="123" y="1811" on="0"/>
        <pt x="123" y="1628" on="1"/>
        <pt x="137" y="1520" on="0"/>
        <pt x="150" y="1354" on="0"/>
        <pt x="150" y="1289" on="1"/>
        <pt x="150" y="1220" on="0"/>
        <pt x="157" y="1130" on="1"/>
        <pt x="175" y="900" on="0"/>
        <pt x="175" y="825" on="1"/>
        <pt x="175" y="746" on="0"/>
        <pt x="190" y="582" on="0"/>
        <pt x="202" y="507" on="1"/>
        <pt x="209" y="461" on="0"/>
        <pt x="227" y="369" on="1"/>
        <pt x="263" y="174" on="0"/>
        <pt x="338" y="0" on="1"/>
        <pt x="261" y="170" on="0"/>
        <pt x="211" y="354" on="1"/>
        <pt x="189" y="439" on="0"/>
        <pt x="151" y="631" on="0"/>
        <pt x="121" y="859" on="0"/>
        <pt x="119" y="874" on="1"/>
        <pt x="102" y="1020" on="0"/>
        <pt x="102" y="1129" on="1"/>
        <pt x="102" y="1194" on="0"/>
        <pt x="99" y="1287" on="1"/>
        <pt x="92" y="1503" on="0"/>
        <pt x="92" y="1567" on="1"/>
        <pt x="99" y="1647" on="0"/>
        <pt x="113" y="1820" on="0"/>
        <pt x="113" y="1900" on="1"/>
        <pt x="121" y="2230" on="1"/>
        <pt x="123" y="2611" on="1"/>
        <pt x="123" y="2795" on="0"/>
        <pt x="154" y="2826" on="1"/>
        <pt x="307" y="2826" on="0"/>
        <pt x="553" y="2580" on="1"/>
        <pt x="676" y="2734" on="1"/>
        <pt x="754" y="2601" on="0"/>
        <pt x="835" y="2416" on="1"/>
        <pt x="877" y="2321" on="0"/>
        <pt x="967" y="2103" on="0"/>
        <pt x="1021" y="1964" on="1"/>
        <pt x="1053" y="1882" on="0"/>
        <pt x="1085" y="1801" on="1"/>
        <pt x="1130" y="1689" on="0"/>
        <pt x="1148" y="1643" on="0"/>
        <pt x="1184" y="1558" on="1"/>
        <pt x="1215" y="1483" on="0"/>
        <pt x="1279" y="1345" on="0"/>
        <pt x="1321" y="1260" on="1"/>
        <pt x="1382" y="1260" on="1"/>
        <pt x="1509" y="1456" on="0"/>
        <pt x="1626" y="1772" on="1"/>
        <pt x="1842" y="2368" on="1"/>
        <pt x="1942" y="2644" on="0"/>
        <pt x="2214" y="3115" on="0"/>
        <pt x="2427" y="3287" on="1"/>
        <pt x="2503" y="3287" on="0"/>
        <pt x="2527" y="3264" on="1"/>
        <pt x="2550" y="3244" on="0"/>
        <pt x="2567" y="3122" on="0"/>
        <pt x="2591" y="3055" on="0"/>
      </contour>
      <contour>
        <pt x="2427" y="3103" on="1"/>
        <pt x="2396" y="3021" on="0"/>
        <pt x="2311" y="2920" on="1"/>
        <pt x="2269" y="2869" on="0"/>
        <pt x="2230" y="2823" on="1"/>
        <pt x="2198" y="2786" on="0"/>
        <pt x="2155" y="2736" on="1"/>
        <pt x="2088" y="2657" on="0"/>
        <pt x="2031" y="2562" on="1"/>
        <pt x="1978" y="2472" on="0"/>
        <pt x="1966" y="2365" on="1"/>
        <pt x="1972" y="2415" on="0"/>
        <pt x="1999" y="2521" on="0"/>
        <pt x="2019" y="2572" on="1"/>
        <pt x="2062" y="2679" on="0"/>
        <pt x="2188" y="2875" on="0"/>
        <pt x="2343" y="3042" on="0"/>
      </contour>
      <contour>
        <pt x="1751" y="1475" on="1"/>
        <pt x="1895" y="1778" on="1"/>
        <pt x="1907" y="1803" on="0"/>
        <pt x="1971" y="1935" on="1"/>
        <pt x="2019" y="2034" on="0"/>
        <pt x="2056" y="2108" on="1"/>
        <pt x="2225" y="2441" on="1"/>
        <pt x="2264" y="2517" on="0"/>
        <pt x="2314" y="2613" on="1"/>
        <pt x="2360" y="2701" on="0"/>
        <pt x="2427" y="2826" on="1"/>
        <pt x="2362" y="2772" on="0"/>
        <pt x="2243" y="2641" on="0"/>
        <pt x="2190" y="2563" on="1"/>
        <pt x="2085" y="2410" on="0"/>
        <pt x="1920" y="2063" on="0"/>
        <pt x="1841" y="1863" on="1"/>
        <pt x="1690" y="1475" on="1"/>
      </contour>
      <contour>
        <pt x="1475" y="1260" on="1"/>
        <pt x="1475" y="983" on="1"/>
        <pt x="1536" y="983" on="1"/>
        <pt x="1536" y="1260" on="1"/>
      </contour>
      <contour>
        <pt x="2488" y="707" on="1"/>
        <pt x="2550" y="584" on="1"/>
        <pt x="2580" y="584" on="1"/>
        <pt x="2550" y="737" on="1"/>
      </contour>
    </TTGlyph>
    <TTGlyph name="N" xMin="0" yMin="0" xMax="2642" yMax="3656">
      <contour>
        <pt x="2519" y="3379" on="1"/>
        <pt x="2519" y="3409" on="0"/>
        <pt x="2458" y="3471" on="1"/>
        <pt x="2435" y="3363" on="0"/>
        <pt x="2412" y="3152" on="0"/>
        <pt x="2410" y="3124" on="1"/>
        <pt x="2404" y="3049" on="0"/>
        <pt x="2404" y="2985" on="1"/>
        <pt x="2397" y="2657" on="1"/>
        <pt x="2396" y="2120" on="1"/>
        <pt x="2642" y="3164" on="1"/>
        <pt x="2623" y="2948" on="0"/>
        <pt x="2547" y="2639" on="1"/>
        <pt x="2393" y="2005" on="1"/>
        <pt x="2316" y="1692" on="0"/>
        <pt x="2212" y="1015" on="0"/>
        <pt x="2212" y="645" on="1"/>
        <pt x="1935" y="676" on="1"/>
        <pt x="1927" y="695" on="0"/>
        <pt x="1922" y="721" on="1"/>
        <pt x="1920" y="778" on="1"/>
        <pt x="1920" y="812" on="0"/>
        <pt x="1914" y="851" on="0"/>
        <pt x="1905" y="860" on="1"/>
        <pt x="1866" y="860" on="0"/>
        <pt x="1843" y="882" on="1"/>
        <pt x="1820" y="907" on="0"/>
        <pt x="1746" y="1019" on="0"/>
        <pt x="1682" y="1075" on="0"/>
        <pt x="1628" y="1075" on="1"/>
        <pt x="860" y="2058" on="1"/>
        <pt x="829" y="1918" on="0"/>
        <pt x="776" y="1659" on="0"/>
        <pt x="755" y="1544" on="1"/>
        <pt x="739" y="1453" on="0"/>
        <pt x="716" y="1314" on="1"/>
        <pt x="698" y="1203" on="0"/>
        <pt x="681" y="1088" on="1"/>
        <pt x="671" y="1009" on="0"/>
        <pt x="654" y="876" on="0"/>
        <pt x="626" y="652" on="0"/>
        <pt x="614" y="553" on="1"/>
        <pt x="522" y="553" on="1"/>
        <pt x="492" y="860" on="1"/>
        <pt x="379" y="830" on="0"/>
        <pt x="300" y="648" on="0"/>
        <pt x="255" y="295" on="0"/>
        <pt x="175" y="74" on="0"/>
        <pt x="61" y="0" on="1"/>
        <pt x="0" y="0" on="1"/>
        <pt x="184" y="215" on="1"/>
        <pt x="216" y="388" on="0"/>
        <pt x="241" y="598" on="1"/>
        <pt x="253" y="699" on="0"/>
        <pt x="279" y="912" on="0"/>
        <pt x="279" y="986" on="1"/>
        <pt x="279" y="1042" on="0"/>
        <pt x="285" y="1123" on="1"/>
        <pt x="299" y="1313" on="0"/>
        <pt x="299" y="1375" on="1"/>
        <pt x="299" y="1456" on="0"/>
        <pt x="301" y="1527" on="1"/>
        <pt x="307" y="1739" on="0"/>
        <pt x="307" y="1751" on="1"/>
        <pt x="31" y="1321" on="1"/>
        <pt x="137" y="1472" on="0"/>
        <pt x="210" y="1673" on="1"/>
        <pt x="280" y="1868" on="0"/>
        <pt x="316" y="2037" on="1"/>
        <pt x="329" y="2097" on="0"/>
        <pt x="343" y="2165" on="1"/>
        <pt x="348" y="2188" on="0"/>
        <pt x="376" y="2330" on="1"/>
        <pt x="396" y="2432" on="0"/>
        <pt x="417" y="2534" on="1"/>
        <pt x="482" y="2864" on="0"/>
        <pt x="522" y="3011" on="1"/>
        <pt x="614" y="3011" on="1"/>
        <pt x="614" y="2888" on="1"/>
        <pt x="860" y="2980" on="1"/>
        <pt x="889" y="2848" on="0"/>
        <pt x="961" y="2608" on="0"/>
        <pt x="1008" y="2491" on="1"/>
        <pt x="1099" y="2264" on="0"/>
        <pt x="1342" y="1863" on="0"/>
        <pt x="1645" y="1488" on="0"/>
        <pt x="1843" y="1290" on="1"/>
        <pt x="1843" y="1389" on="0"/>
        <pt x="1844" y="1616" on="0"/>
        <pt x="1846" y="1800" on="0"/>
        <pt x="1847" y="1885" on="1"/>
        <pt x="1847" y="1956" on="0"/>
        <pt x="1857" y="2128" on="0"/>
        <pt x="1868" y="2323" on="0"/>
        <pt x="1868" y="2389" on="1"/>
        <pt x="1868" y="2479" on="0"/>
        <pt x="1882" y="2642" on="0"/>
        <pt x="1910" y="2846" on="0"/>
        <pt x="1923" y="2939" on="1"/>
        <pt x="1960" y="3218" on="0"/>
        <pt x="2028" y="3533" on="1"/>
        <pt x="2089" y="3405" on="0"/>
        <pt x="2089" y="3287" on="1"/>
        <pt x="2089" y="3228" on="0"/>
        <pt x="2064" y="3086" on="0"/>
        <pt x="2018" y="2869" on="0"/>
        <pt x="2007" y="2804" on="1"/>
        <pt x="2003" y="2777" on="0"/>
        <pt x="1997" y="2704" on="0"/>
        <pt x="1997" y="2673" on="1"/>
        <pt x="1997" y="2626" on="0"/>
        <pt x="2012" y="2561" on="0"/>
        <pt x="2034" y="2495" on="1"/>
        <pt x="2058" y="2427" on="1"/>
        <pt x="2180" y="2528" on="0"/>
        <pt x="2228" y="2681" on="1"/>
        <pt x="2273" y="2827" on="0"/>
        <pt x="2329" y="3308" on="0"/>
        <pt x="2407" y="3574" on="0"/>
        <pt x="2519" y="3656" on="1"/>
      </contour>
      <contour>
        <pt x="1106" y="2089" on="1"/>
        <pt x="1044" y="2110" on="0"/>
        <pt x="966" y="2180" on="0"/>
        <pt x="944" y="2221" on="1"/>
        <pt x="926" y="2260" on="0"/>
        <pt x="875" y="2399" on="0"/>
        <pt x="860" y="2427" on="1"/>
      </contour>
    </TTGlyph>
    <TTGlyph name="O" xMin="184" yMin="154" xMax="3441" yMax="3348">
      <contour>
        <pt x="2703" y="3041" on="1"/>
        <pt x="2826" y="2972" on="0"/>
        <pt x="3003" y="2760" on="0"/>
        <pt x="3204" y="2445" on="0"/>
        <pt x="3340" y="2273" on="0"/>
        <pt x="3441" y="2212" on="1"/>
        <pt x="3357" y="2223" on="0"/>
        <pt x="3229" y="2327" on="0"/>
        <pt x="3144" y="2438" on="1"/>
        <pt x="3053" y="2556" on="0"/>
        <pt x="2979" y="2641" on="0"/>
        <pt x="2918" y="2673" on="1"/>
        <pt x="2918" y="2615" on="0"/>
        <pt x="2943" y="2546" on="1"/>
        <pt x="2956" y="2510" on="0"/>
        <pt x="2988" y="2441" on="0"/>
        <pt x="3011" y="2400" on="1"/>
        <pt x="3043" y="2343" on="0"/>
        <pt x="3054" y="2324" on="1"/>
        <pt x="3072" y="2293" on="0"/>
        <pt x="3103" y="2243" on="1"/>
        <pt x="3103" y="2144" on="0"/>
        <pt x="3096" y="1979" on="0"/>
        <pt x="3088" y="1768" on="0"/>
        <pt x="3088" y="1729" on="1"/>
        <pt x="3088" y="1616" on="0"/>
        <pt x="3070" y="1488" on="1"/>
        <pt x="3058" y="1404" on="0"/>
        <pt x="3026" y="1244" on="1"/>
        <pt x="2978" y="1001" on="0"/>
        <pt x="2774" y="571" on="0"/>
        <pt x="2611" y="430" on="1"/>
        <pt x="2540" y="403" on="0"/>
        <pt x="2416" y="348" on="1"/>
        <pt x="2183" y="249" on="1"/>
        <pt x="2088" y="212" on="0"/>
        <pt x="1968" y="181" on="1"/>
        <pt x="1855" y="154" on="0"/>
        <pt x="1751" y="154" on="1"/>
        <pt x="1714" y="154" on="0"/>
        <pt x="1641" y="164" on="0"/>
        <pt x="1593" y="177" on="1"/>
        <pt x="1506" y="200" on="0"/>
        <pt x="1413" y="246" on="1"/>
        <pt x="1301" y="368" on="0"/>
        <pt x="1111" y="488" on="1"/>
        <pt x="1035" y="536" on="0"/>
        <pt x="981" y="570" on="1"/>
        <pt x="894" y="626" on="0"/>
        <pt x="842" y="659" on="1"/>
        <pt x="814" y="677" on="0"/>
        <pt x="693" y="757" on="1"/>
        <pt x="466" y="906" on="0"/>
        <pt x="207" y="1241" on="0"/>
        <pt x="184" y="1475" on="1"/>
        <pt x="184" y="1830" on="0"/>
        <pt x="444" y="2373" on="0"/>
        <pt x="819" y="2753" on="0"/>
        <pt x="1120" y="2994" on="1"/>
        <pt x="1268" y="3112" on="0"/>
        <pt x="1476" y="3289" on="0"/>
        <pt x="1536" y="3348" on="1"/>
        <pt x="1667" y="3321" on="0"/>
        <pt x="1842" y="3258" on="1"/>
        <pt x="2154" y="3149" on="1"/>
        <pt x="2290" y="3101" on="0"/>
        <pt x="2560" y="3041" on="0"/>
      </contour>
      <contour>
        <pt x="1505" y="3133" on="1"/>
        <pt x="1720" y="3226" on="1"/>
        <pt x="1536" y="3226" on="1"/>
      </contour>
      <contour>
        <pt x="1935" y="3072" on="1"/>
        <pt x="1850" y="3072" on="0"/>
        <pt x="1775" y="3050" on="1"/>
        <pt x="1735" y="3039" on="0"/>
        <pt x="1652" y="3009" on="0"/>
        <pt x="1598" y="2985" on="1"/>
        <pt x="1550" y="2965" on="0"/>
        <pt x="1507" y="2948" on="1"/>
        <pt x="1486" y="2940" on="0"/>
        <pt x="1433" y="2920" on="1"/>
        <pt x="1406" y="2911" on="0"/>
        <pt x="1331" y="2894" on="0"/>
        <pt x="1290" y="2888" on="1"/>
        <pt x="1193" y="2693" on="0"/>
        <pt x="1126" y="2541" on="1"/>
        <pt x="1066" y="2399" on="0"/>
        <pt x="983" y="2075" on="0"/>
        <pt x="983" y="1905" on="1"/>
        <pt x="1106" y="2365" on="1"/>
        <pt x="1172" y="2498" on="0"/>
        <pt x="1350" y="2728" on="0"/>
        <pt x="1554" y="2896" on="0"/>
        <pt x="1677" y="2962" on="1"/>
        <pt x="1734" y="2993" on="0"/>
        <pt x="1868" y="3050" on="0"/>
      </contour>
      <contour>
        <pt x="2028" y="2857" on="1"/>
        <pt x="2212" y="2857" on="1"/>
        <pt x="2212" y="2888" on="1"/>
        <pt x="2028" y="2888" on="1"/>
      </contour>
      <contour>
        <pt x="1044" y="614" on="1"/>
        <pt x="986" y="809" on="0"/>
        <pt x="905" y="1111" on="0"/>
        <pt x="840" y="1426" on="0"/>
        <pt x="799" y="1778" on="0"/>
        <pt x="799" y="1935" on="1"/>
        <pt x="799" y="2091" on="0"/>
        <pt x="844" y="2402" on="0"/>
        <pt x="938" y="2688" on="0"/>
        <pt x="1014" y="2826" on="1"/>
        <pt x="430" y="2365" on="1"/>
        <pt x="413" y="2293" on="0"/>
        <pt x="381" y="2199" on="1"/>
        <pt x="317" y="2000" on="1"/>
        <pt x="285" y="1901" on="0"/>
        <pt x="265" y="1804" on="1"/>
        <pt x="256" y="1757" on="0"/>
        <pt x="246" y="1670" on="0"/>
        <pt x="246" y="1628" on="1"/>
        <pt x="263" y="1539" on="0"/>
        <pt x="313" y="1381" on="0"/>
        <pt x="350" y="1308" on="1"/>
        <pt x="423" y="1164" on="0"/>
        <pt x="622" y="935" on="0"/>
        <pt x="739" y="840" on="1"/>
        <pt x="783" y="805" on="0"/>
        <pt x="824" y="774" on="1"/>
        <pt x="873" y="737" on="0"/>
        <pt x="925" y="699" on="1"/>
        <pt x="967" y="668" on="0"/>
      </contour>
      <contour>
        <pt x="2703" y="1905" on="1"/>
        <pt x="2699" y="2130" on="1"/>
        <pt x="2699" y="2201" on="0"/>
        <pt x="2694" y="2318" on="0"/>
        <pt x="2682" y="2450" on="1"/>
        <pt x="2682" y="2526" on="0"/>
        <pt x="2658" y="2640" on="0"/>
        <pt x="2642" y="2673" on="1"/>
        <pt x="2601" y="2652" on="0"/>
        <pt x="2574" y="2596" on="1"/>
        <pt x="2550" y="2540" on="0"/>
        <pt x="2550" y="2488" on="1"/>
        <pt x="2550" y="2408" on="0"/>
        <pt x="2593" y="2261" on="0"/>
        <pt x="2690" y="1982" on="0"/>
      </contour>
      <contour>
        <pt x="2519" y="2243" on="1"/>
        <pt x="2519" y="2346" on="0"/>
        <pt x="2422" y="2512" on="0"/>
        <pt x="2273" y="2611" on="0"/>
        <pt x="2212" y="2611" on="1"/>
        <pt x="2163" y="2611" on="0"/>
        <pt x="2112" y="2577" on="0"/>
        <pt x="2089" y="2471" on="0"/>
        <pt x="2089" y="2365" on="1"/>
        <pt x="2059" y="2365" on="0"/>
        <pt x="2021" y="2378" on="0"/>
        <pt x="1988" y="2396" on="1"/>
        <pt x="1941" y="2420" on="1"/>
        <pt x="1923" y="2427" on="0"/>
        <pt x="1905" y="2427" on="1"/>
        <pt x="1844" y="2388" on="0"/>
        <pt x="1753" y="2265" on="0"/>
        <pt x="1724" y="2199" on="1"/>
        <pt x="1699" y="2141" on="0"/>
        <pt x="1660" y="2022" on="1"/>
        <pt x="1626" y="1917" on="0"/>
        <pt x="1597" y="1843" on="1"/>
        <pt x="1572" y="1855" on="0"/>
        <pt x="1564" y="1879" on="1"/>
        <pt x="1563" y="1884" on="0"/>
        <pt x="1555" y="1931" on="0"/>
        <pt x="1553" y="1952" on="1"/>
        <pt x="1553" y="1997" on="0"/>
        <pt x="1536" y="2028" on="1"/>
        <pt x="1491" y="2006" on="0"/>
        <pt x="1440" y="1934" on="0"/>
        <pt x="1428" y="1870" on="1"/>
        <pt x="1421" y="1821" on="0"/>
        <pt x="1415" y="1758" on="0"/>
        <pt x="1415" y="1714" on="1"/>
        <pt x="1413" y="1413" on="1"/>
        <pt x="1462" y="1303" on="0"/>
        <pt x="1524" y="1201" on="1"/>
        <pt x="1555" y="1151" on="0"/>
        <pt x="1622" y="1067" on="0"/>
        <pt x="1664" y="1027" on="1"/>
        <pt x="1741" y="954" on="0"/>
        <pt x="1850" y="905" on="1"/>
        <pt x="1955" y="860" on="0"/>
        <pt x="2089" y="860" on="1"/>
        <pt x="2200" y="950" on="0"/>
        <pt x="2366" y="1164" on="0"/>
        <pt x="2480" y="1407" on="0"/>
        <pt x="2518" y="1547" on="1"/>
        <pt x="2553" y="1677" on="0"/>
        <pt x="2580" y="1843" on="1"/>
        <pt x="2518" y="1969" on="0"/>
        <pt x="2313" y="2097" on="0"/>
        <pt x="2150" y="2150" on="1"/>
        <pt x="2089" y="1843" on="1"/>
        <pt x="1935" y="1922" on="0"/>
        <pt x="1935" y="2243" on="1"/>
        <pt x="1957" y="2309" on="0"/>
        <pt x="2074" y="2365" on="0"/>
        <pt x="2150" y="2365" on="1"/>
        <pt x="2177" y="2342" on="1"/>
        <pt x="2195" y="2330" on="0"/>
        <pt x="2212" y="2302" on="0"/>
        <pt x="2212" y="2273" on="1"/>
        <pt x="2288" y="2273" on="0"/>
        <pt x="2377" y="2230" on="0"/>
        <pt x="2397" y="2206" on="1"/>
        <pt x="2405" y="2196" on="0"/>
        <pt x="2433" y="2160" on="0"/>
        <pt x="2454" y="2130" on="1"/>
        <pt x="2494" y="2075" on="0"/>
        <pt x="2519" y="2058" on="1"/>
      </contour>
      <contour>
        <pt x="1198" y="2120" on="1"/>
        <pt x="1137" y="1843" on="1"/>
        <pt x="1198" y="1843" on="1"/>
        <pt x="1229" y="2089" on="1"/>
      </contour>
      <contour>
        <pt x="3041" y="2058" on="1"/>
        <pt x="3041" y="1843" on="1"/>
        <pt x="3103" y="1843" on="1"/>
        <pt x="3103" y="2058" on="1"/>
      </contour>
      <contour>
        <pt x="2949" y="1782" on="1"/>
        <pt x="2949" y="1567" on="1"/>
        <pt x="3011" y="1567" on="1"/>
        <pt x="3011" y="1782" on="1"/>
      </contour>
      <contour>
        <pt x="1106" y="1751" on="1"/>
        <pt x="1106" y="1628" on="1"/>
        <pt x="1137" y="1628" on="1"/>
        <pt x="1137" y="1751" on="1"/>
      </contour>
      <contour>
        <pt x="2427" y="922" on="1"/>
        <pt x="2445" y="976" on="0"/>
        <pt x="2607" y="1311" on="0"/>
        <pt x="2703" y="1601" on="0"/>
        <pt x="2703" y="1751" on="1"/>
        <pt x="2703" y="1695" on="0"/>
        <pt x="2697" y="1515" on="0"/>
        <pt x="2697" y="1482" on="1"/>
        <pt x="2697" y="1436" on="0"/>
        <pt x="2687" y="1350" on="0"/>
        <pt x="2666" y="1258" on="1"/>
        <pt x="2642" y="1143" on="0"/>
        <pt x="2526" y="967" on="0"/>
      </contour>
      <contour>
        <pt x="1505" y="952" on="1"/>
        <pt x="1597" y="829" on="1"/>
        <pt x="1628" y="860" on="1"/>
        <pt x="1536" y="983" on="1"/>
      </contour>
      <contour>
        <pt x="1413" y="737" on="1"/>
        <pt x="1536" y="614" on="1"/>
        <pt x="1567" y="645" on="1"/>
        <pt x="1444" y="768" on="1"/>
      </contour>
      <contour>
        <pt x="2120" y="430" on="1"/>
        <pt x="2304" y="430" on="1"/>
        <pt x="2304" y="461" on="1"/>
        <pt x="2120" y="461" on="1"/>
      </contour>
    </TTGlyph>
    <TTGlyph name="P" xMin="276" yMin="0" xMax="2580" yMax="4239">
      <contour>
        <pt x="2580" y="3441" on="1"/>
        <pt x="2580" y="3361" on="0"/>
        <pt x="2545" y="3284" on="0"/>
        <pt x="2470" y="3181" on="0"/>
        <pt x="2458" y="3133" on="1"/>
        <pt x="2444" y="3047" on="0"/>
        <pt x="2359" y="2380" on="0"/>
        <pt x="2270" y="1943" on="0"/>
        <pt x="2085" y="1542" on="0"/>
        <pt x="1935" y="1413" on="1"/>
        <pt x="1872" y="1435" on="0"/>
        <pt x="1766" y="1499" on="0"/>
        <pt x="1717" y="1540" on="1"/>
        <pt x="1671" y="1582" on="0"/>
        <pt x="1619" y="1635" on="1"/>
        <pt x="1536" y="1720" on="1"/>
        <pt x="1874" y="1444" on="1"/>
        <pt x="2007" y="1509" on="0"/>
        <pt x="2167" y="1739" on="0"/>
        <pt x="2214" y="1883" on="1"/>
        <pt x="2237" y="1954" on="0"/>
        <pt x="2272" y="2111" on="0"/>
        <pt x="2288" y="2213" on="1"/>
        <pt x="2335" y="2519" on="1"/>
        <pt x="2238" y="2501" on="0"/>
        <pt x="2063" y="2429" on="1"/>
        <pt x="1895" y="2360" on="0"/>
        <pt x="1720" y="2273" on="1"/>
        <pt x="829" y="2150" on="1"/>
        <pt x="829" y="2030" on="0"/>
        <pt x="831" y="1879" on="0"/>
        <pt x="835" y="1677" on="0"/>
        <pt x="835" y="1647" on="1"/>
        <pt x="835" y="1566" on="0"/>
        <pt x="846" y="1403" on="0"/>
        <pt x="868" y="1245" on="1"/>
        <pt x="895" y="1051" on="0"/>
        <pt x="952" y="922" on="1"/>
        <pt x="922" y="860" on="1"/>
        <pt x="737" y="1044" on="1"/>
        <pt x="737" y="0" on="1"/>
        <pt x="625" y="57" on="0"/>
        <pt x="479" y="206" on="0"/>
        <pt x="402" y="378" on="0"/>
        <pt x="369" y="591" on="0"/>
        <pt x="369" y="707" on="1"/>
        <pt x="369" y="721" on="0"/>
        <pt x="376" y="832" on="1"/>
        <pt x="380" y="896" on="0"/>
        <pt x="380" y="931" on="1"/>
        <pt x="380" y="992" on="0"/>
        <pt x="399" y="1153" on="0"/>
        <pt x="410" y="1258" on="0"/>
        <pt x="412" y="1281" on="1"/>
        <pt x="422" y="1373" on="0"/>
        <pt x="422" y="1420" on="1"/>
        <pt x="422" y="1455" on="0"/>
        <pt x="430" y="1593" on="0"/>
        <pt x="430" y="1628" on="1"/>
        <pt x="430" y="1763" on="0"/>
        <pt x="411" y="1947" on="0"/>
        <pt x="369" y="2028" on="1"/>
        <pt x="369" y="2083" on="0"/>
        <pt x="348" y="2238" on="0"/>
        <pt x="344" y="2274" on="1"/>
        <pt x="310" y="2589" on="1"/>
        <pt x="285" y="2895" on="1"/>
        <pt x="285" y="2950" on="0"/>
        <pt x="283" y="2995" on="1"/>
        <pt x="276" y="3152" on="0"/>
        <pt x="276" y="3164" on="1"/>
        <pt x="276" y="3303" on="0"/>
        <pt x="300" y="3581" on="0"/>
        <pt x="347" y="3841" on="0"/>
        <pt x="417" y="4078" on="0"/>
        <pt x="461" y="4178" on="1"/>
        <pt x="577" y="4208" on="0"/>
        <pt x="758" y="4239" on="0"/>
        <pt x="860" y="4239" on="1"/>
        <pt x="975" y="4239" on="0"/>
        <pt x="1196" y="4199" on="0"/>
        <pt x="1312" y="4156" on="1"/>
        <pt x="1539" y="4073" on="0"/>
        <pt x="1895" y="3864" on="0"/>
        <pt x="2166" y="3689" on="1"/>
        <pt x="2428" y="3520" on="0"/>
      </contour>
      <contour>
        <pt x="1843" y="3840" on="1"/>
        <pt x="1799" y="3851" on="0"/>
        <pt x="1698" y="3889" on="0"/>
        <pt x="1639" y="3917" on="1"/>
        <pt x="1407" y="4024" on="1"/>
        <pt x="1295" y="4076" on="0"/>
        <pt x="1078" y="4147" on="0"/>
        <pt x="983" y="4147" on="1"/>
        <pt x="753" y="4147" on="0"/>
        <pt x="614" y="3963" on="1"/>
        <pt x="1134" y="3963" on="0"/>
        <pt x="1707" y="3908" on="0"/>
      </contour>
      <contour>
        <pt x="1382" y="3441" on="1"/>
        <pt x="1332" y="3482" on="0"/>
        <pt x="1275" y="3501" on="1"/>
        <pt x="1247" y="3510" on="0"/>
        <pt x="1171" y="3529" on="0"/>
        <pt x="1129" y="3539" on="1"/>
        <pt x="1042" y="3557" on="0"/>
        <pt x="924" y="3605" on="0"/>
        <pt x="860" y="3656" on="1"/>
        <pt x="860" y="3533" on="1"/>
        <pt x="894" y="3533" on="0"/>
        <pt x="964" y="3527" on="0"/>
        <pt x="1002" y="3520" on="1"/>
        <pt x="1074" y="3508" on="0"/>
        <pt x="1134" y="3490" on="1"/>
        <pt x="1265" y="3457" on="1"/>
        <pt x="1340" y="3441" on="0"/>
      </contour>
      <contour>
        <pt x="1352" y="3656" on="1"/>
        <pt x="1567" y="3625" on="1"/>
        <pt x="1597" y="3656" on="1"/>
        <pt x="1352" y="3686" on="1"/>
      </contour>
      <contour>
        <pt x="1935" y="3533" on="1"/>
        <pt x="1906" y="3548" on="0"/>
        <pt x="1801" y="3615" on="0"/>
        <pt x="1782" y="3656" on="1"/>
      </contour>
      <contour>
        <pt x="2273" y="3256" on="1"/>
        <pt x="2267" y="3279" on="0"/>
        <pt x="2220" y="3360" on="0"/>
        <pt x="2181" y="3379" on="1"/>
      </contour>
      <contour>
        <pt x="2150" y="2980" on="1"/>
        <pt x="2084" y="2997" on="0"/>
        <pt x="1925" y="3041" on="0"/>
        <pt x="1824" y="3072" on="1"/>
        <pt x="1443" y="3187" on="1"/>
        <pt x="1355" y="3214" on="0"/>
        <pt x="1262" y="3239" on="1"/>
        <pt x="1186" y="3260" on="0"/>
        <pt x="1083" y="3285" on="1"/>
        <pt x="907" y="3327" on="0"/>
        <pt x="737" y="3348" on="1"/>
        <pt x="848" y="3306" on="0"/>
        <pt x="952" y="3177" on="0"/>
        <pt x="952" y="3103" on="1"/>
        <pt x="952" y="3084" on="0"/>
        <pt x="950" y="3062" on="0"/>
        <pt x="938" y="3003" on="0"/>
        <pt x="920" y="2938" on="1"/>
        <pt x="896" y="2836" on="1"/>
        <pt x="892" y="2805" on="0"/>
        <pt x="891" y="2774" on="0"/>
        <pt x="891" y="2765" on="1"/>
        <pt x="891" y="2694" on="0"/>
        <pt x="910" y="2594" on="0"/>
        <pt x="952" y="2550" on="1"/>
        <pt x="1133" y="2550" on="0"/>
        <pt x="1463" y="2592" on="0"/>
        <pt x="1769" y="2689" on="0"/>
        <pt x="2039" y="2858" on="0"/>
      </contour>
      <contour>
        <pt x="1659" y="3318" on="1"/>
        <pt x="2028" y="3164" on="1"/>
        <pt x="2028" y="3195" on="1"/>
        <pt x="1659" y="3348" on="1"/>
      </contour>
      <contour>
        <pt x="1843" y="2519" on="1"/>
        <pt x="1749" y="2474" on="0"/>
        <pt x="1554" y="2427" on="0"/>
        <pt x="1444" y="2427" on="1"/>
        <pt x="1506" y="2427" on="0"/>
        <pt x="1598" y="2451" on="0"/>
        <pt x="1702" y="2491" on="0"/>
        <pt x="1800" y="2519" on="0"/>
      </contour>
      <contour>
        <pt x="553" y="1106" on="1"/>
        <pt x="614" y="1137" on="1"/>
        <pt x="492" y="1720" on="1"/>
      </contour>
      <contour>
        <pt x="1260" y="1720" on="1"/>
        <pt x="1173" y="1633" on="0"/>
        <pt x="1075" y="1378" on="0"/>
        <pt x="1075" y="1260" on="1"/>
        <pt x="1075" y="1091" on="0"/>
        <pt x="1167" y="952" on="1"/>
        <pt x="1198" y="983" on="1"/>
        <pt x="1290" y="891" on="1"/>
        <pt x="1260" y="860" on="1"/>
        <pt x="1164" y="887" on="0"/>
        <pt x="1116" y="1057" on="1"/>
        <pt x="1087" y="1161" on="0"/>
        <pt x="1074" y="1224" on="1"/>
        <pt x="1056" y="1314" on="0"/>
        <pt x="1056" y="1388" on="1"/>
        <pt x="1056" y="1448" on="0"/>
        <pt x="1048" y="1562" on="0"/>
        <pt x="1044" y="1628" on="1"/>
        <pt x="1044" y="1669" on="0"/>
        <pt x="1098" y="1695" on="0"/>
        <pt x="1237" y="1712" on="0"/>
      </contour>
      <contour>
        <pt x="614" y="645" on="1"/>
        <pt x="606" y="672" on="0"/>
        <pt x="598" y="741" on="1"/>
        <pt x="598" y="770" on="0"/>
        <pt x="592" y="815" on="0"/>
        <pt x="580" y="882" on="0"/>
        <pt x="553" y="922" on="1"/>
        <pt x="511" y="852" on="0"/>
        <pt x="490" y="761" on="1"/>
        <pt x="479" y="710" on="0"/>
        <pt x="465" y="621" on="0"/>
        <pt x="465" y="582" on="1"/>
        <pt x="461" y="369" on="1"/>
        <pt x="461" y="453" on="0"/>
        <pt x="476" y="552" on="0"/>
        <pt x="542" y="630" on="0"/>
      </contour>
    </TTGlyph>
    <TTGlyph name="Q" xMin="184" yMin="123" xMax="3594" yMax="3471">
      <contour>
        <pt x="1812" y="3471" on="1"/>
        <pt x="1812" y="3426" on="0"/>
        <pt x="1789" y="3331" on="0"/>
        <pt x="1742" y="3207" on="0"/>
        <pt x="1730" y="3162" on="1"/>
        <pt x="1726" y="3143" on="0"/>
        <pt x="1720" y="3094" on="0"/>
        <pt x="1720" y="3072" on="1"/>
        <pt x="1950" y="2922" on="0"/>
        <pt x="2269" y="2697" on="0"/>
        <pt x="2417" y="2571" on="1"/>
        <pt x="2561" y="2448" on="0"/>
        <pt x="2687" y="2295" on="1"/>
        <pt x="2749" y="2219" on="0"/>
        <pt x="2850" y="2055" on="0"/>
        <pt x="2888" y="1966" on="1"/>
        <pt x="2935" y="1896" on="0"/>
        <pt x="2980" y="1744" on="0"/>
        <pt x="2980" y="1659" on="1"/>
        <pt x="2980" y="1606" on="0"/>
        <pt x="2964" y="1507" on="0"/>
        <pt x="2945" y="1452" on="1"/>
        <pt x="2908" y="1344" on="0"/>
        <pt x="2838" y="1193" on="1"/>
        <pt x="2801" y="1112" on="0"/>
        <pt x="2753" y="1000" on="0"/>
        <pt x="2734" y="948" on="1"/>
        <pt x="2703" y="858" on="0"/>
        <pt x="2703" y="768" on="1"/>
        <pt x="2703" y="701" on="0"/>
        <pt x="2757" y="591" on="0"/>
        <pt x="2826" y="522" on="1"/>
        <pt x="2826" y="447" on="0"/>
        <pt x="2930" y="321" on="0"/>
        <pt x="3015" y="270" on="1"/>
        <pt x="3097" y="223" on="0"/>
        <pt x="3184" y="188" on="1"/>
        <pt x="3206" y="180" on="0"/>
        <pt x="3250" y="165" on="1"/>
        <pt x="3328" y="139" on="0"/>
        <pt x="3379" y="123" on="1"/>
        <pt x="3379" y="154" on="1"/>
        <pt x="3594" y="154" on="1"/>
        <pt x="3594" y="123" on="1"/>
        <pt x="3487" y="123" on="0"/>
        <pt x="3424" y="135" on="1"/>
        <pt x="3218" y="181" on="1"/>
        <pt x="3070" y="215" on="0"/>
        <pt x="3011" y="215" on="1"/>
        <pt x="2918" y="215" on="0"/>
        <pt x="2888" y="154" on="1"/>
        <pt x="2796" y="154" on="0"/>
        <pt x="2648" y="233" on="0"/>
        <pt x="2462" y="388" on="0"/>
        <pt x="2345" y="461" on="0"/>
        <pt x="2273" y="461" on="1"/>
        <pt x="2181" y="461" on="0"/>
        <pt x="2089" y="369" on="1"/>
        <pt x="2156" y="369" on="0"/>
        <pt x="2258" y="412" on="0"/>
        <pt x="2304" y="461" on="1"/>
        <pt x="2236" y="554" on="0"/>
        <pt x="2054" y="676" on="0"/>
        <pt x="1966" y="676" on="1"/>
        <pt x="1914" y="676" on="0"/>
        <pt x="1856" y="658" on="0"/>
        <pt x="1812" y="614" on="1"/>
        <pt x="1722" y="614" on="0"/>
        <pt x="1517" y="633" on="0"/>
        <pt x="1331" y="665" on="1"/>
        <pt x="1215" y="685" on="0"/>
        <pt x="998" y="741" on="0"/>
        <pt x="890" y="781" on="1"/>
        <pt x="680" y="859" on="0"/>
        <pt x="321" y="1111" on="0"/>
        <pt x="184" y="1290" on="1"/>
        <pt x="184" y="1488" on="0"/>
        <pt x="234" y="1634" on="1"/>
        <pt x="258" y="1707" on="0"/>
        <pt x="335" y="1865" on="0"/>
        <pt x="441" y="2034" on="0"/>
        <pt x="511" y="2155" on="0"/>
        <pt x="534" y="2198" on="1"/>
        <pt x="573" y="2277" on="0"/>
        <pt x="584" y="2396" on="1"/>
        <pt x="645" y="2479" on="0"/>
        <pt x="711" y="2569" on="1"/>
        <pt x="741" y="2609" on="0"/>
        <pt x="812" y="2704" on="1"/>
        <pt x="869" y="2779" on="0"/>
        <pt x="887" y="2803" on="1"/>
        <pt x="980" y="2923" on="0"/>
        <pt x="1260" y="3203" on="0"/>
        <pt x="1601" y="3414" on="0"/>
      </contour>
      <contour>
        <pt x="1321" y="3133" on="1"/>
        <pt x="1628" y="3133" on="1"/>
        <pt x="1690" y="3348" on="1"/>
      </contour>
      <contour>
        <pt x="983" y="2765" on="1"/>
        <pt x="983" y="2684" on="0"/>
        <pt x="922" y="2638" on="0"/>
        <pt x="761" y="2566" on="0"/>
        <pt x="737" y="2519" on="1"/>
        <pt x="768" y="2539" on="0"/>
        <pt x="811" y="2609" on="1"/>
        <pt x="849" y="2677" on="0"/>
        <pt x="915" y="2750" on="0"/>
      </contour>
      <contour>
        <pt x="1690" y="2765" on="1"/>
        <pt x="1413" y="2765" on="1"/>
        <pt x="1413" y="2519" on="1"/>
        <pt x="1167" y="2458" on="1"/>
        <pt x="1167" y="2359" on="0"/>
        <pt x="1203" y="2196" on="0"/>
        <pt x="1270" y="2047" on="0"/>
        <pt x="1321" y="1966" on="1"/>
        <pt x="1439" y="1966" on="0"/>
        <pt x="1482" y="1920" on="1"/>
        <pt x="1522" y="1877" on="0"/>
        <pt x="1610" y="1739" on="1"/>
        <pt x="1695" y="1606" on="0"/>
        <pt x="1782" y="1567" on="1"/>
        <pt x="1748" y="1598" on="0"/>
        <pt x="1709" y="1648" on="0"/>
        <pt x="1690" y="1706" on="0"/>
        <pt x="1690" y="1751" on="1"/>
        <pt x="1749" y="1812" on="0"/>
        <pt x="1782" y="1812" on="1"/>
        <pt x="1806" y="1812" on="0"/>
        <pt x="1839" y="1804" on="0"/>
        <pt x="1876" y="1782" on="0"/>
        <pt x="1913" y="1755" on="0"/>
        <pt x="1961" y="1714" on="0"/>
        <pt x="1994" y="1692" on="0"/>
        <pt x="2016" y="1678" on="1"/>
        <pt x="2051" y="1659" on="0"/>
        <pt x="2089" y="1659" on="1"/>
        <pt x="2139" y="1732" on="0"/>
        <pt x="2181" y="1840" on="0"/>
        <pt x="2181" y="1905" on="1"/>
        <pt x="2181" y="2013" on="0"/>
        <pt x="2081" y="2204" on="0"/>
        <pt x="1881" y="2495" on="0"/>
        <pt x="1843" y="2580" on="1"/>
        <pt x="1826" y="2609" on="0"/>
        <pt x="1792" y="2621" on="1"/>
        <pt x="1738" y="2641" on="1"/>
        <pt x="1718" y="2648" on="0"/>
        <pt x="1703" y="2676" on="1"/>
        <pt x="1690" y="2705" on="0"/>
      </contour>
      <contour>
        <pt x="1905" y="2673" on="1"/>
        <pt x="2120" y="2365" on="1"/>
        <pt x="2150" y="2396" on="1"/>
        <pt x="1935" y="2703" on="1"/>
      </contour>
      <contour>
        <pt x="2488" y="1567" on="1"/>
        <pt x="2396" y="1444" on="1"/>
        <pt x="2437" y="1528" on="0"/>
        <pt x="2448" y="1614" on="1"/>
        <pt x="2452" y="1652" on="0"/>
        <pt x="2458" y="1775" on="0"/>
        <pt x="2458" y="1843" on="1"/>
        <pt x="2458" y="1896" on="0"/>
        <pt x="2446" y="1998" on="0"/>
        <pt x="2432" y="2052" on="1"/>
        <pt x="2408" y="2157" on="0"/>
        <pt x="2315" y="2455" on="0"/>
        <pt x="2304" y="2519" on="1"/>
        <pt x="2370" y="2444" on="0"/>
        <pt x="2447" y="2215" on="0"/>
        <pt x="2464" y="2092" on="1"/>
        <pt x="2475" y="2001" on="0"/>
        <pt x="2484" y="1893" on="0"/>
        <pt x="2484" y="1851" on="1"/>
      </contour>
      <contour>
        <pt x="2796" y="1290" on="1"/>
        <pt x="2488" y="983" on="1"/>
        <pt x="2447" y="1005" on="0"/>
        <pt x="2420" y="1047" on="1"/>
        <pt x="2396" y="1089" on="0"/>
        <pt x="2396" y="1137" on="1"/>
        <pt x="2396" y="1197" on="0"/>
        <pt x="2430" y="1261" on="1"/>
        <pt x="2461" y="1321" on="0"/>
        <pt x="2644" y="1616" on="0"/>
        <pt x="2734" y="1833" on="0"/>
        <pt x="2734" y="1935" on="1"/>
        <pt x="2734" y="1982" on="0"/>
        <pt x="2687" y="2116" on="0"/>
        <pt x="2642" y="2181" on="1"/>
        <pt x="2519" y="2365" on="1"/>
        <pt x="2611" y="2273" on="0"/>
        <pt x="2673" y="2133" on="1"/>
        <pt x="2732" y="1998" on="0"/>
        <pt x="2765" y="1787" on="1"/>
        <pt x="2780" y="1684" on="0"/>
        <pt x="2796" y="1437" on="0"/>
      </contour>
      <contour>
        <pt x="1690" y="1167" on="1"/>
        <pt x="1657" y="1225" on="0"/>
        <pt x="1583" y="1339" on="0"/>
        <pt x="1526" y="1419" on="1"/>
        <pt x="1319" y="1714" on="1"/>
        <pt x="1216" y="1863" on="0"/>
        <pt x="1142" y="1994" on="1"/>
        <pt x="1108" y="2056" on="0"/>
        <pt x="1042" y="2198" on="0"/>
        <pt x="1014" y="2273" on="1"/>
        <pt x="937" y="2207" on="0"/>
        <pt x="850" y="2015" on="0"/>
        <pt x="829" y="1901" on="1"/>
        <pt x="818" y="1840" on="0"/>
        <pt x="804" y="1726" on="0"/>
        <pt x="804" y="1679" on="1"/>
        <pt x="804" y="1635" on="0"/>
        <pt x="799" y="1445" on="0"/>
        <pt x="799" y="1413" on="1"/>
        <pt x="813" y="1282" on="0"/>
        <pt x="930" y="1102" on="0"/>
        <pt x="1106" y="1014" on="0"/>
        <pt x="1198" y="1014" on="1"/>
        <pt x="1286" y="1014" on="0"/>
        <pt x="1377" y="1033" on="1"/>
        <pt x="1421" y="1042" on="0"/>
        <pt x="1510" y="1068" on="0"/>
        <pt x="1549" y="1086" on="1"/>
        <pt x="1629" y="1121" on="0"/>
      </contour>
      <contour>
        <pt x="2304" y="2243" on="1"/>
        <pt x="2304" y="1628" on="1"/>
        <pt x="2335" y="1628" on="1"/>
        <pt x="2335" y="2243" on="1"/>
      </contour>
      <contour>
        <pt x="584" y="1966" on="1"/>
        <pt x="492" y="1966" on="1"/>
        <pt x="492" y="1751" on="1"/>
        <pt x="492" y="1838" on="0"/>
        <pt x="521" y="1924" on="0"/>
      </contour>
      <contour>
        <pt x="584" y="1044" on="1"/>
        <pt x="584" y="1141" on="0"/>
        <pt x="530" y="1310" on="0"/>
        <pt x="472" y="1437" on="1"/>
        <pt x="457" y="1472" on="0"/>
        <pt x="425" y="1549" on="1"/>
        <pt x="402" y="1606" on="0"/>
        <pt x="392" y="1632" on="1"/>
        <pt x="369" y="1703" on="0"/>
        <pt x="369" y="1782" on="1"/>
        <pt x="329" y="1723" on="0"/>
        <pt x="317" y="1659" on="1"/>
        <pt x="307" y="1591" on="0"/>
        <pt x="307" y="1505" on="1"/>
        <pt x="307" y="1409" on="0"/>
        <pt x="370" y="1220" on="0"/>
        <pt x="493" y="1075" on="0"/>
      </contour>
      <contour>
        <pt x="1536" y="737" on="1"/>
        <pt x="1997" y="737" on="1"/>
        <pt x="1843" y="860" on="1"/>
      </contour>
      <contour>
        <pt x="2488" y="461" on="1"/>
        <pt x="2642" y="338" on="1"/>
        <pt x="2673" y="369" on="1"/>
        <pt x="2519" y="492" on="1"/>
      </contour>
    </TTGlyph>
    <TTGlyph name="R" xMin="246" yMin="31" xMax="3656" yMax="3379">
      <contour>
        <pt x="2519" y="2949" on="1"/>
        <pt x="2664" y="2859" on="0"/>
        <pt x="2880" y="2702" on="0"/>
        <pt x="2973" y="2611" on="1"/>
        <pt x="3060" y="2524" on="0"/>
        <pt x="3193" y="2295" on="0"/>
        <pt x="3226" y="2150" on="1"/>
        <pt x="3226" y="2019" on="0"/>
        <pt x="3095" y="1842" on="0"/>
        <pt x="2834" y="1628" on="0"/>
        <pt x="2703" y="1453" on="0"/>
        <pt x="2703" y="1321" on="1"/>
        <pt x="2790" y="1235" on="0"/>
        <pt x="2943" y="1155" on="1"/>
        <pt x="3248" y="998" on="1"/>
        <pt x="3404" y="919" on="0"/>
        <pt x="3614" y="711" on="0"/>
        <pt x="3656" y="553" on="1"/>
        <pt x="3626" y="678" on="0"/>
        <pt x="3466" y="819" on="0"/>
        <pt x="3357" y="865" on="1"/>
        <pt x="3119" y="967" on="1"/>
        <pt x="2989" y="1024" on="0"/>
        <pt x="2918" y="1106" on="1"/>
        <pt x="2918" y="959" on="0"/>
        <pt x="2989" y="716" on="0"/>
        <pt x="3025" y="645" on="1"/>
        <pt x="3065" y="569" on="0"/>
        <pt x="3144" y="433" on="1"/>
        <pt x="3228" y="291" on="0"/>
        <pt x="3256" y="215" on="1"/>
        <pt x="3100" y="215" on="0"/>
        <pt x="2900" y="390" on="0"/>
        <pt x="2828" y="535" on="1"/>
        <pt x="2681" y="829" on="1"/>
        <pt x="2608" y="976" on="0"/>
        <pt x="2519" y="1044" on="1"/>
        <pt x="2439" y="1014" on="0"/>
        <pt x="2369" y="916" on="0"/>
        <pt x="2277" y="731" on="0"/>
        <pt x="2182" y="645" on="0"/>
        <pt x="2089" y="645" on="1"/>
        <pt x="2172" y="694" on="0"/>
        <pt x="2343" y="863" on="0"/>
        <pt x="2458" y="1067" on="0"/>
        <pt x="2458" y="1167" on="1"/>
        <pt x="2458" y="1183" on="0"/>
        <pt x="2428" y="1258" on="0"/>
        <pt x="2396" y="1321" on="1"/>
        <pt x="2351" y="1381" on="0"/>
        <pt x="2281" y="1406" on="1"/>
        <pt x="2245" y="1419" on="0"/>
        <pt x="2155" y="1438" on="0"/>
        <pt x="2107" y="1438" on="1"/>
        <pt x="2051" y="1438" on="0"/>
        <pt x="2014" y="1439" on="1"/>
        <pt x="1830" y="1444" on="0"/>
        <pt x="1782" y="1444" on="1"/>
        <pt x="1715" y="883" on="1"/>
        <pt x="1702" y="784" on="0"/>
        <pt x="1696" y="733" on="1"/>
        <pt x="1675" y="567" on="0"/>
        <pt x="1675" y="463" on="1"/>
        <pt x="1675" y="387" on="0"/>
        <pt x="1659" y="99" on="0"/>
        <pt x="1659" y="31" on="1"/>
        <pt x="1599" y="212" on="0"/>
        <pt x="1567" y="432" on="1"/>
        <pt x="1553" y="532" on="0"/>
        <pt x="1520" y="846" on="0"/>
        <pt x="1505" y="1014" on="1"/>
        <pt x="1465" y="1043" on="0"/>
        <pt x="1437" y="1100" on="1"/>
        <pt x="1413" y="1152" on="0"/>
        <pt x="1396" y="1219" on="1"/>
        <pt x="1359" y="1386" on="1"/>
        <pt x="1349" y="1436" on="0"/>
        <pt x="1328" y="1517" on="0"/>
        <pt x="1321" y="1536" on="1"/>
        <pt x="1291" y="1434" on="1"/>
        <pt x="1286" y="1416" on="0"/>
        <pt x="1275" y="1363" on="0"/>
        <pt x="1268" y="1329" on="1"/>
        <pt x="1260" y="1275" on="0"/>
        <pt x="1260" y="1229" on="1"/>
        <pt x="1260" y="1171" on="0"/>
        <pt x="1263" y="1128" on="0"/>
        <pt x="1276" y="1032" on="0"/>
        <pt x="1301" y="891" on="1"/>
        <pt x="1308" y="852" on="0"/>
        <pt x="1322" y="761" on="1"/>
        <pt x="1332" y="698" on="0"/>
        <pt x="1339" y="649" on="1"/>
        <pt x="1352" y="540" on="0"/>
        <pt x="1352" y="461" on="1"/>
        <pt x="1217" y="461" on="0"/>
        <pt x="1137" y="585" on="0"/>
        <pt x="1070" y="866" on="0"/>
        <pt x="1014" y="922" on="1"/>
        <pt x="1106" y="1014" on="1"/>
        <pt x="1043" y="1067" on="0"/>
        <pt x="985" y="1241" on="0"/>
        <pt x="952" y="1418" on="1"/>
        <pt x="935" y="1510" on="0"/>
        <pt x="921" y="1576" on="1"/>
        <pt x="904" y="1652" on="0"/>
        <pt x="890" y="1703" on="1"/>
        <pt x="860" y="1814" on="0"/>
        <pt x="799" y="1905" on="1"/>
        <pt x="707" y="1782" on="1"/>
        <pt x="721" y="1703" on="0"/>
        <pt x="748" y="1525" on="0"/>
        <pt x="766" y="1402" on="1"/>
        <pt x="826" y="961" on="1"/>
        <pt x="854" y="749" on="0"/>
        <pt x="928" y="379" on="0"/>
        <pt x="983" y="215" on="1"/>
        <pt x="909" y="246" on="0"/>
        <pt x="830" y="386" on="0"/>
        <pt x="801" y="485" on="1"/>
        <pt x="745" y="692" on="1"/>
        <pt x="715" y="802" on="0"/>
        <pt x="676" y="860" on="1"/>
        <pt x="658" y="933" on="0"/>
        <pt x="603" y="1108" on="0"/>
        <pt x="563" y="1214" on="1"/>
        <pt x="410" y="1629" on="1"/>
        <pt x="334" y="1837" on="0"/>
        <pt x="246" y="2197" on="0"/>
        <pt x="246" y="2365" on="1"/>
        <pt x="246" y="2486" on="0"/>
        <pt x="271" y="2677" on="0"/>
        <pt x="341" y="2862" on="0"/>
        <pt x="399" y="2949" on="1"/>
        <pt x="496" y="2993" on="0"/>
        <pt x="613" y="3066" on="1"/>
        <pt x="853" y="3218" on="1"/>
        <pt x="979" y="3299" on="0"/>
        <pt x="1183" y="3379" on="0"/>
        <pt x="1290" y="3379" on="1"/>
        <pt x="1327" y="3379" on="0"/>
        <pt x="1409" y="3365" on="0"/>
        <pt x="1454" y="3350" on="1"/>
        <pt x="1542" y="3321" on="0"/>
        <pt x="1628" y="3256" on="1"/>
        <pt x="1698" y="3226" on="0"/>
        <pt x="1978" y="3088" on="0"/>
        <pt x="2081" y="3044" on="1"/>
        <pt x="2173" y="3006" on="0"/>
        <pt x="2289" y="2977" on="1"/>
        <pt x="2349" y="2963" on="0"/>
        <pt x="2458" y="2949" on="0"/>
      </contour>
      <contour>
        <pt x="1413" y="3133" on="1"/>
        <pt x="1413" y="3164" on="1"/>
        <pt x="1371" y="3143" on="0"/>
        <pt x="1073" y="3071" on="0"/>
        <pt x="861" y="2977" on="0"/>
        <pt x="707" y="2761" on="0"/>
        <pt x="707" y="2580" on="1"/>
        <pt x="614" y="2580" on="1"/>
        <pt x="614" y="2686" on="0"/>
        <pt x="677" y="2860" on="0"/>
        <pt x="768" y="2990" on="0"/>
        <pt x="900" y="3135" on="0"/>
        <pt x="922" y="3164" on="1"/>
        <pt x="1011" y="3164" on="0"/>
        <pt x="1277" y="3154" on="0"/>
        <pt x="1320" y="3154" on="1"/>
        <pt x="1393" y="3154" on="0"/>
        <pt x="1461" y="3145" on="1"/>
        <pt x="1496" y="3140" on="0"/>
        <pt x="1578" y="3124" on="1"/>
        <pt x="1686" y="3104" on="0"/>
        <pt x="1782" y="3072" on="1"/>
      </contour>
      <contour>
        <pt x="2519" y="2642" on="1"/>
        <pt x="2304" y="2734" on="1"/>
        <pt x="1536" y="2765" on="1"/>
      </contour>
      <contour>
        <pt x="737" y="860" on="1"/>
        <pt x="711" y="993" on="0"/>
        <pt x="642" y="1243" on="1"/>
        <pt x="621" y="1324" on="0"/>
        <pt x="600" y="1405" on="1"/>
        <pt x="589" y="1447" on="0"/>
        <pt x="564" y="1547" on="1"/>
        <pt x="534" y="1665" on="0"/>
        <pt x="533" y="1671" on="1"/>
        <pt x="494" y="1844" on="0"/>
        <pt x="461" y="2072" on="1"/>
        <pt x="446" y="2187" on="0"/>
        <pt x="430" y="2425" on="0"/>
        <pt x="430" y="2550" on="1"/>
        <pt x="430" y="2380" on="0"/>
        <pt x="497" y="2089" on="0"/>
        <pt x="653" y="1561" on="0"/>
        <pt x="737" y="1121" on="0"/>
      </contour>
      <contour>
        <pt x="1198" y="2550" on="1"/>
        <pt x="1229" y="2335" on="1"/>
        <pt x="1290" y="2335" on="1"/>
        <pt x="1229" y="2550" on="1"/>
      </contour>
      <contour>
        <pt x="2519" y="2458" on="1"/>
        <pt x="2443" y="2458" on="0"/>
        <pt x="2215" y="2460" on="0"/>
        <pt x="2177" y="2460" on="1"/>
        <pt x="2141" y="2460" on="0"/>
        <pt x="1932" y="2471" on="0"/>
        <pt x="1898" y="2471" on="1"/>
        <pt x="1833" y="2471" on="0"/>
        <pt x="1753" y="2480" on="1"/>
        <pt x="1723" y="2483" on="0"/>
        <pt x="1485" y="2517" on="0"/>
        <pt x="1352" y="2550" on="1"/>
        <pt x="1352" y="2496" on="0"/>
        <pt x="1360" y="2418" on="0"/>
        <pt x="1371" y="2375" on="1"/>
        <pt x="1390" y="2304" on="0"/>
        <pt x="1466" y="2138" on="0"/>
        <pt x="1505" y="2018" on="0"/>
        <pt x="1505" y="1935" on="1"/>
        <pt x="1444" y="1966" on="1"/>
        <pt x="1505" y="1782" on="1"/>
        <pt x="1505" y="1816" on="0"/>
        <pt x="1507" y="1874" on="0"/>
        <pt x="1516" y="1946" on="0"/>
        <pt x="1536" y="1966" on="1"/>
        <pt x="1558" y="1925" on="0"/>
        <pt x="1600" y="1898" on="1"/>
        <pt x="1642" y="1874" on="0"/>
        <pt x="1690" y="1874" on="1"/>
        <pt x="1729" y="1874" on="0"/>
        <pt x="1820" y="1915" on="0"/>
        <pt x="1907" y="1965" on="1"/>
        <pt x="1987" y="2010" on="0"/>
        <pt x="2098" y="2058" on="0"/>
        <pt x="2150" y="2058" on="1"/>
        <pt x="2195" y="2058" on="0"/>
        <pt x="2257" y="2008" on="0"/>
        <pt x="2304" y="1935" on="1"/>
        <pt x="2418" y="1980" on="0"/>
        <pt x="2519" y="2226" on="0"/>
      </contour>
      <contour>
        <pt x="1106" y="2335" on="1"/>
        <pt x="1106" y="2458" on="1"/>
        <pt x="1044" y="2458" on="1"/>
        <pt x="1044" y="2335" on="1"/>
      </contour>
      <contour>
        <pt x="2826" y="2058" on="1"/>
        <pt x="2826" y="2140" on="0"/>
        <pt x="2816" y="2254" on="0"/>
        <pt x="2804" y="2297" on="1"/>
        <pt x="2783" y="2378" on="0"/>
        <pt x="2734" y="2427" on="1"/>
        <pt x="2734" y="2212" on="1"/>
        <pt x="2704" y="2174" on="0"/>
        <pt x="2592" y="1984" on="0"/>
        <pt x="2523" y="1882" on="0"/>
        <pt x="2409" y="1794" on="0"/>
        <pt x="2335" y="1782" on="1"/>
      </contour>
      <contour>
        <pt x="737" y="1905" on="1"/>
        <pt x="799" y="2058" on="1"/>
        <pt x="707" y="2273" on="1"/>
      </contour>
      <contour>
        <pt x="1106" y="1782" on="1"/>
        <pt x="1106" y="1935" on="1"/>
        <pt x="1044" y="2212" on="1"/>
      </contour>
      <contour>
        <pt x="1290" y="2028" on="1"/>
        <pt x="1321" y="1905" on="1"/>
        <pt x="1352" y="1905" on="1"/>
        <pt x="1321" y="2028" on="1"/>
      </contour>
      <contour>
        <pt x="2611" y="1536" on="1"/>
        <pt x="2642" y="1444" on="1"/>
        <pt x="2703" y="1567" on="1"/>
      </contour>
      <contour>
        <pt x="3011" y="369" on="1"/>
        <pt x="3011" y="430" on="1"/>
        <pt x="2888" y="645" on="1"/>
      </contour>
    </TTGlyph>
    <TTGlyph name="S" xMin="31" yMin="184" xMax="2796" yMax="3471">
      <contour>
        <pt x="2673" y="3041" on="1"/>
        <pt x="2714" y="3041" on="0"/>
        <pt x="2734" y="3105" on="0"/>
        <pt x="2734" y="3164" on="1"/>
        <pt x="2796" y="3102" on="0"/>
        <pt x="2796" y="3072" on="1"/>
        <pt x="2796" y="3045" on="0"/>
        <pt x="2777" y="3019" on="1"/>
        <pt x="2765" y="3003" on="0"/>
        <pt x="2744" y="2978" on="0"/>
        <pt x="2721" y="2953" on="1"/>
        <pt x="2684" y="2913" on="0"/>
        <pt x="2673" y="2888" on="1"/>
        <pt x="2620" y="2923" on="0"/>
        <pt x="2554" y="3003" on="1"/>
        <pt x="2411" y="3181" on="1"/>
        <pt x="2370" y="3232" on="0"/>
        <pt x="2291" y="3309" on="0"/>
        <pt x="2247" y="3340" on="1"/>
        <pt x="2164" y="3399" on="0"/>
        <pt x="2058" y="3410" on="1"/>
        <pt x="1967" y="3410" on="0"/>
        <pt x="1740" y="3391" on="0"/>
        <pt x="1533" y="3361" on="1"/>
        <pt x="1404" y="3343" on="0"/>
        <pt x="1150" y="3287" on="0"/>
        <pt x="1021" y="3248" on="1"/>
        <pt x="771" y="3172" on="0"/>
        <pt x="316" y="2900" on="0"/>
        <pt x="154" y="2703" on="1"/>
        <pt x="154" y="2588" on="0"/>
        <pt x="274" y="2393" on="0"/>
        <pt x="354" y="2330" on="1"/>
        <pt x="429" y="2270" on="0"/>
        <pt x="561" y="2182" on="1"/>
        <pt x="688" y="2099" on="0"/>
        <pt x="737" y="2058" on="1"/>
        <pt x="765" y="2058" on="0"/>
        <pt x="803" y="2049" on="0"/>
        <pt x="821" y="2038" on="1"/>
        <pt x="854" y="2020" on="0"/>
        <pt x="959" y="1935" on="0"/>
        <pt x="983" y="1935" on="1"/>
        <pt x="1044" y="1997" on="1"/>
        <pt x="884" y="2094" on="0"/>
        <pt x="701" y="2292" on="0"/>
        <pt x="614" y="2571" on="0"/>
        <pt x="614" y="2765" on="1"/>
        <pt x="777" y="2899" on="1"/>
        <pt x="840" y="2952" on="0"/>
        <pt x="891" y="2991" on="1"/>
        <pt x="936" y="3026" on="0"/>
        <pt x="981" y="3057" on="1"/>
        <pt x="1059" y="3110" on="0"/>
        <pt x="1167" y="3147" on="1"/>
        <pt x="1228" y="3168" on="0"/>
        <pt x="1282" y="3180" on="1"/>
        <pt x="1350" y="3195" on="0"/>
        <pt x="1413" y="3195" on="1"/>
        <pt x="1603" y="3195" on="0"/>
        <pt x="1896" y="3056" on="0"/>
        <pt x="2083" y="2914" on="1"/>
        <pt x="2176" y="2843" on="0"/>
        <pt x="2326" y="2740" on="0"/>
        <pt x="2390" y="2702" on="1"/>
        <pt x="2509" y="2634" on="0"/>
        <pt x="2673" y="2611" on="1"/>
        <pt x="2714" y="2572" on="0"/>
        <pt x="2724" y="2514" on="1"/>
        <pt x="2728" y="2488" on="0"/>
        <pt x="2734" y="2410" on="0"/>
        <pt x="2734" y="2365" on="1"/>
        <pt x="2458" y="2243" on="1"/>
        <pt x="2461" y="2232" on="0"/>
        <pt x="2466" y="2214" on="0"/>
        <pt x="2481" y="2174" on="1"/>
        <pt x="2504" y="2108" on="0"/>
        <pt x="2519" y="2040" on="0"/>
        <pt x="2519" y="1997" on="1"/>
        <pt x="2501" y="1958" on="0"/>
        <pt x="2434" y="1935" on="0"/>
        <pt x="2396" y="1935" on="1"/>
        <pt x="2358" y="1935" on="0"/>
        <pt x="2269" y="1984" on="0"/>
        <pt x="2216" y="2027" on="1"/>
        <pt x="2203" y="2038" on="0"/>
        <pt x="2167" y="2065" on="1"/>
        <pt x="2139" y="2086" on="0"/>
        <pt x="2126" y="2095" on="1"/>
        <pt x="2088" y="2120" on="0"/>
        <pt x="2058" y="2120" on="1"/>
        <pt x="2033" y="2120" on="0"/>
        <pt x="1958" y="2032" on="0"/>
        <pt x="1935" y="1966" on="1"/>
        <pt x="2111" y="1891" on="0"/>
        <pt x="2408" y="1717" on="0"/>
        <pt x="2526" y="1602" on="1"/>
        <pt x="2640" y="1491" on="0"/>
        <pt x="2714" y="1335" on="1"/>
        <pt x="2753" y="1253" on="0"/>
        <pt x="2796" y="1078" on="0"/>
        <pt x="2796" y="983" on="1"/>
        <pt x="2796" y="928" on="0"/>
        <pt x="2767" y="822" on="0"/>
        <pt x="2740" y="765" on="1"/>
        <pt x="2695" y="666" on="0"/>
        <pt x="2562" y="504" on="0"/>
        <pt x="2462" y="414" on="1"/>
        <pt x="2403" y="362" on="0"/>
        <pt x="2375" y="337" on="1"/>
        <pt x="2329" y="297" on="0"/>
        <pt x="2304" y="276" on="1"/>
        <pt x="2072" y="184" on="0"/>
        <pt x="1874" y="184" on="1"/>
        <pt x="1776" y="184" on="0"/>
        <pt x="1593" y="214" on="0"/>
        <pt x="1412" y="277" on="0"/>
        <pt x="1247" y="355" on="0"/>
        <pt x="1099" y="450" on="0"/>
        <pt x="940" y="565" on="0"/>
        <pt x="868" y="625" on="1"/>
        <pt x="584" y="860" on="1"/>
        <pt x="545" y="899" on="0"/>
        <pt x="522" y="953" on="0"/>
        <pt x="522" y="983" on="1"/>
        <pt x="522" y="1014" on="0"/>
        <pt x="563" y="1070" on="0"/>
        <pt x="604" y="1111" on="1"/>
        <pt x="625" y="1132" on="0"/>
        <pt x="657" y="1167" on="0"/>
        <pt x="672" y="1187" on="1"/>
        <pt x="696" y="1218" on="0"/>
        <pt x="707" y="1260" on="1"/>
        <pt x="683" y="1272" on="0"/>
        <pt x="659" y="1313" on="0"/>
        <pt x="653" y="1347" on="1"/>
        <pt x="646" y="1434" on="1"/>
        <pt x="645" y="1597" on="1"/>
        <pt x="705" y="1597" on="0"/>
        <pt x="770" y="1582" on="1"/>
        <pt x="823" y="1570" on="0"/>
        <pt x="885" y="1546" on="1"/>
        <pt x="994" y="1506" on="0"/>
        <pt x="1163" y="1394" on="0"/>
        <pt x="1288" y="1292" on="1"/>
        <pt x="1444" y="1167" on="1"/>
        <pt x="1975" y="1167" on="0"/>
        <pt x="2120" y="1382" on="1"/>
        <pt x="2013" y="1436" on="0"/>
        <pt x="1702" y="1566" on="0"/>
        <pt x="1494" y="1643" on="1"/>
        <pt x="1082" y="1796" on="0"/>
        <pt x="672" y="1971" on="0"/>
        <pt x="205" y="2302" on="0"/>
        <pt x="31" y="2550" on="1"/>
        <pt x="31" y="2668" on="0"/>
        <pt x="142" y="2851" on="0"/>
        <pt x="288" y="2966" on="0"/>
        <pt x="427" y="3060" on="1"/>
        <pt x="560" y="3149" on="0"/>
        <pt x="614" y="3195" on="1"/>
        <pt x="712" y="3213" on="0"/>
        <pt x="962" y="3282" on="1"/>
        <pt x="1315" y="3379" on="1"/>
        <pt x="1420" y="3406" on="0"/>
        <pt x="1773" y="3471" on="0"/>
        <pt x="1935" y="3471" on="1"/>
        <pt x="2049" y="3471" on="0"/>
        <pt x="2146" y="3451" on="1"/>
        <pt x="2198" y="3441" on="0"/>
        <pt x="2290" y="3409" on="0"/>
        <pt x="2340" y="3383" on="1"/>
        <pt x="2435" y="3336" on="0"/>
        <pt x="2608" y="3163" on="0"/>
      </contour>
      <contour>
        <pt x="891" y="2580" on="1"/>
        <pt x="952" y="2673" on="1"/>
        <pt x="952" y="2796" on="1"/>
      </contour>
      <contour>
        <pt x="1935" y="2365" on="1"/>
        <pt x="1898" y="2389" on="0"/>
        <pt x="1754" y="2531" on="0"/>
        <pt x="1659" y="2607" on="0"/>
        <pt x="1483" y="2673" on="0"/>
        <pt x="1352" y="2673" on="1"/>
        <pt x="1297" y="2649" on="1"/>
        <pt x="1279" y="2641" on="0"/>
        <pt x="1260" y="2625" on="0"/>
        <pt x="1260" y="2611" on="1"/>
        <pt x="1260" y="2599" on="0"/>
        <pt x="1274" y="2557" on="0"/>
        <pt x="1289" y="2527" on="1"/>
        <pt x="1316" y="2473" on="0"/>
        <pt x="1352" y="2370" on="0"/>
        <pt x="1352" y="2304" on="1"/>
        <pt x="1339" y="2304" on="0"/>
        <pt x="1322" y="2293" on="1"/>
        <pt x="1297" y="2277" on="1"/>
        <pt x="1291" y="2275" on="0"/>
        <pt x="1277" y="2273" on="0"/>
        <pt x="1260" y="2273" on="1"/>
        <pt x="1354" y="2273" on="0"/>
        <pt x="1506" y="2207" on="0"/>
        <pt x="1715" y="2067" on="0"/>
        <pt x="1823" y="2009" on="0"/>
        <pt x="1905" y="1997" on="1"/>
      </contour>
      <contour>
        <pt x="2365" y="2089" on="1"/>
        <pt x="2197" y="2089" on="0"/>
        <pt x="2150" y="2181" on="1"/>
        <pt x="2177" y="2129" on="0"/>
        <pt x="2261" y="2089" on="0"/>
      </contour>
      <contour>
        <pt x="1044" y="1966" on="1"/>
        <pt x="1321" y="1812" on="1"/>
        <pt x="1321" y="1874" on="1"/>
        <pt x="1075" y="1997" on="1"/>
      </contour>
      <contour>
        <pt x="1444" y="1812" on="1"/>
        <pt x="1905" y="1690" on="1"/>
        <pt x="1905" y="1751" on="1"/>
        <pt x="1475" y="1874" on="1"/>
      </contour>
      <contour>
        <pt x="2335" y="1475" on="1"/>
        <pt x="2335" y="1505" on="1"/>
        <pt x="2120" y="1659" on="1"/>
      </contour>
      <contour>
        <pt x="2335" y="1198" on="1"/>
        <pt x="2212" y="1352" on="1"/>
        <pt x="1843" y="1044" on="1"/>
        <pt x="1924" y="1044" on="0"/>
        <pt x="2051" y="1065" on="0"/>
        <pt x="2162" y="1104" on="0"/>
        <pt x="2220" y="1134" on="1"/>
        <pt x="2249" y="1148" on="0"/>
        <pt x="2304" y="1179" on="0"/>
      </contour>
      <contour>
        <pt x="1321" y="983" on="1"/>
        <pt x="1198" y="1137" on="1"/>
        <pt x="891" y="1290" on="1"/>
      </contour>
      <contour>
        <pt x="2458" y="1137" on="1"/>
        <pt x="2304" y="983" on="1"/>
        <pt x="2304" y="952" on="1"/>
        <pt x="2488" y="1075" on="1"/>
      </contour>
      <contour>
        <pt x="2335" y="492" on="1"/>
        <pt x="2124" y="443" on="1"/>
        <pt x="2051" y="430" on="0"/>
        <pt x="1997" y="430" on="1"/>
        <pt x="1833" y="430" on="0"/>
        <pt x="1679" y="473" on="1"/>
        <pt x="1599" y="495" on="0"/>
        <pt x="1462" y="547" on="0"/>
        <pt x="1392" y="583" on="1"/>
        <pt x="1258" y="650" on="0"/>
        <pt x="1114" y="744" on="1"/>
        <pt x="891" y="891" on="1"/>
        <pt x="1229" y="492" on="1"/>
        <pt x="1278" y="474" on="0"/>
        <pt x="1364" y="443" on="0"/>
        <pt x="1560" y="379" on="0"/>
        <pt x="1663" y="356" on="1"/>
        <pt x="1758" y="338" on="0"/>
        <pt x="1843" y="338" on="1"/>
        <pt x="1899" y="338" on="0"/>
        <pt x="2008" y="356" on="0"/>
        <pt x="2066" y="376" on="1"/>
        <pt x="2181" y="414" on="0"/>
      </contour>
      <contour>
        <pt x="1567" y="891" on="1"/>
        <pt x="1751" y="860" on="1"/>
        <pt x="1782" y="891" on="1"/>
        <pt x="1597" y="952" on="1"/>
      </contour>
      <contour>
        <pt x="2212" y="676" on="1"/>
        <pt x="2212" y="768" on="1"/>
        <pt x="2162" y="752" on="0"/>
        <pt x="2054" y="706" on="0"/>
        <pt x="1997" y="676" on="1"/>
      </contour>
      <contour>
        <pt x="1444" y="707" on="1"/>
        <pt x="1567" y="707" on="1"/>
        <pt x="1567" y="768" on="1"/>
        <pt x="1444" y="768" on="1"/>
      </contour>
    </TTGlyph>
    <TTGlyph name="T" xMin="0" yMin="0" xMax="3133" yMax="3502">
      <contour>
        <pt x="1751" y="2611" on="1"/>
        <pt x="1843" y="2519" on="1"/>
        <pt x="2089" y="2580" on="0"/>
        <pt x="2212" y="2580" on="1"/>
        <pt x="2292" y="2580" on="0"/>
        <pt x="2397" y="2565" on="1"/>
        <pt x="2445" y="2558" on="0"/>
        <pt x="2532" y="2543" on="0"/>
        <pt x="2571" y="2534" on="1"/>
        <pt x="2649" y="2518" on="0"/>
        <pt x="2691" y="2508" on="1"/>
        <pt x="2756" y="2491" on="0"/>
        <pt x="2793" y="2482" on="1"/>
        <pt x="3041" y="2427" on="1"/>
        <pt x="2734" y="2273" on="1"/>
        <pt x="2782" y="2251" on="0"/>
        <pt x="2861" y="2221" on="1"/>
        <pt x="3010" y="2170" on="1"/>
        <pt x="3087" y="2144" on="0"/>
        <pt x="3133" y="2120" on="1"/>
        <pt x="2949" y="1997" on="1"/>
        <pt x="2949" y="2089" on="1"/>
        <pt x="2854" y="2089" on="0"/>
        <pt x="2572" y="2079" on="0"/>
        <pt x="2525" y="2079" on="1"/>
        <pt x="2450" y="2079" on="0"/>
        <pt x="2297" y="2049" on="0"/>
        <pt x="2218" y="2023" on="1"/>
        <pt x="2074" y="1978" on="0"/>
        <pt x="1905" y="1773" on="0"/>
        <pt x="1905" y="1597" on="1"/>
        <pt x="1905" y="1520" on="0"/>
        <pt x="1926" y="1413" on="0"/>
        <pt x="1966" y="1413" on="1"/>
        <pt x="2058" y="1413" on="1"/>
        <pt x="2058" y="1290" on="0"/>
        <pt x="2122" y="1080" on="0"/>
        <pt x="2255" y="791" on="0"/>
        <pt x="2324" y="599" on="0"/>
        <pt x="2335" y="492" on="1"/>
        <pt x="2365" y="522" on="1"/>
        <pt x="2335" y="0" on="1"/>
        <pt x="2335" y="584" on="0"/>
        <pt x="2150" y="799" on="1"/>
        <pt x="2126" y="775" on="0"/>
        <pt x="2108" y="739" on="1"/>
        <pt x="2093" y="704" on="0"/>
        <pt x="2072" y="572" on="0"/>
        <pt x="2064" y="466" on="0"/>
        <pt x="2064" y="422" on="1"/>
        <pt x="2064" y="352" on="0"/>
        <pt x="2063" y="310" on="1"/>
        <pt x="2058" y="99" on="0"/>
        <pt x="2058" y="61" on="1"/>
        <pt x="1825" y="165" on="0"/>
        <pt x="1581" y="567" on="0"/>
        <pt x="1512" y="886" on="1"/>
        <pt x="1393" y="1462" on="1"/>
        <pt x="1343" y="1720" on="0"/>
        <pt x="1260" y="1905" on="1"/>
        <pt x="1227" y="1898" on="0"/>
        <pt x="1096" y="1887" on="0"/>
        <pt x="1052" y="1887" on="1"/>
        <pt x="979" y="1887" on="0"/>
        <pt x="860" y="1877" on="0"/>
        <pt x="799" y="1867" on="1"/>
        <pt x="707" y="1853" on="0"/>
        <pt x="707" y="1812" on="1"/>
        <pt x="430" y="1905" on="1"/>
        <pt x="451" y="1986" on="0"/>
        <pt x="637" y="2028" on="0"/>
        <pt x="799" y="2028" on="1"/>
        <pt x="1006" y="2028" on="0"/>
        <pt x="1198" y="2046" on="0"/>
        <pt x="1198" y="2089" on="1"/>
        <pt x="1198" y="2145" on="0"/>
        <pt x="1127" y="2252" on="0"/>
        <pt x="1044" y="2273" on="1"/>
        <pt x="991" y="2239" on="0"/>
        <pt x="917" y="2202" on="1"/>
        <pt x="851" y="2170" on="0"/>
        <pt x="687" y="2120" on="0"/>
        <pt x="614" y="2120" on="1"/>
        <pt x="514" y="2120" on="0"/>
        <pt x="383" y="2185" on="0"/>
        <pt x="338" y="2273" on="1"/>
        <pt x="0" y="2273" on="1"/>
        <pt x="0" y="2335" on="1"/>
        <pt x="1167" y="2519" on="1"/>
        <pt x="1167" y="2621" on="0"/>
        <pt x="1170" y="2822" on="0"/>
        <pt x="1171" y="2884" on="1"/>
        <pt x="1171" y="2956" on="0"/>
        <pt x="1184" y="3097" on="0"/>
        <pt x="1196" y="3188" on="1"/>
        <pt x="1216" y="3340" on="0"/>
        <pt x="1260" y="3441" on="1"/>
        <pt x="1260" y="3502" on="1"/>
        <pt x="1413" y="3502" on="1"/>
        <pt x="1413" y="3441" on="1"/>
        <pt x="1350" y="3441" on="0"/>
        <pt x="1299" y="3375" on="0"/>
        <pt x="1289" y="3315" on="1"/>
        <pt x="1269" y="3195" on="1"/>
        <pt x="1260" y="3134" on="0"/>
        <pt x="1229" y="3103" on="1"/>
        <pt x="1229" y="3034" on="0"/>
        <pt x="1232" y="2905" on="0"/>
        <pt x="1233" y="2866" on="1"/>
        <pt x="1233" y="2822" on="0"/>
        <pt x="1245" y="2733" on="0"/>
        <pt x="1258" y="2671" on="1"/>
        <pt x="1279" y="2571" on="0"/>
        <pt x="1321" y="2488" on="1"/>
        <pt x="1431" y="2521" on="0"/>
        <pt x="1547" y="2702" on="0"/>
        <pt x="1597" y="3115" on="0"/>
        <pt x="1597" y="3502" on="1"/>
        <pt x="1668" y="3403" on="0"/>
        <pt x="1702" y="3264" on="1"/>
        <pt x="1723" y="3178" on="0"/>
        <pt x="1731" y="3125" on="1"/>
        <pt x="1743" y="3050" on="0"/>
        <pt x="1743" y="2980" on="1"/>
        <pt x="1743" y="2939" on="0"/>
        <pt x="1751" y="2693" on="0"/>
      </contour>
      <contour>
        <pt x="1659" y="3072" on="1"/>
        <pt x="1628" y="2580" on="1"/>
        <pt x="1659" y="2580" on="1"/>
        <pt x="1720" y="3041" on="1"/>
      </contour>
      <contour>
        <pt x="1720" y="614" on="1"/>
        <pt x="1692" y="675" on="0"/>
        <pt x="1637" y="825" on="0"/>
        <pt x="1613" y="905" on="1"/>
        <pt x="1571" y="1053" on="0"/>
        <pt x="1545" y="1183" on="1"/>
        <pt x="1479" y="1550" on="1"/>
        <pt x="1437" y="1795" on="0"/>
        <pt x="1413" y="1905" on="1"/>
        <pt x="1518" y="1603" on="1"/>
        <pt x="1573" y="1444" on="0"/>
        <pt x="1659" y="1144" on="0"/>
        <pt x="1720" y="792" on="0"/>
      </contour>
    </TTGlyph>
    <TTGlyph name="U" xMin="0" yMin="0" xMax="1720" yMax="2642">
      <contour>
        <pt x="1413" y="2642" on="1"/>
        <pt x="1424" y="2601" on="0"/>
        <pt x="1438" y="2513" on="0"/>
        <pt x="1438" y="2470" on="1"/>
        <pt x="1438" y="2421" on="0"/>
        <pt x="1439" y="2394" on="1"/>
        <pt x="1444" y="2258" on="0"/>
        <pt x="1444" y="2243" on="1"/>
        <pt x="1436" y="2290" on="0"/>
        <pt x="1392" y="2427" on="0"/>
        <pt x="1352" y="2427" on="1"/>
        <pt x="1352" y="2325" on="0"/>
        <pt x="1391" y="2178" on="0"/>
        <pt x="1469" y="2019" on="0"/>
        <pt x="1505" y="1914" on="0"/>
        <pt x="1505" y="1843" on="1"/>
        <pt x="1505" y="922" on="1"/>
        <pt x="1567" y="922" on="1"/>
        <pt x="1583" y="1038" on="0"/>
        <pt x="1596" y="1198" on="0"/>
        <pt x="1596" y="1257" on="1"/>
        <pt x="1596" y="1317" on="0"/>
        <pt x="1608" y="1581" on="0"/>
        <pt x="1608" y="1654" on="1"/>
        <pt x="1615" y="2074" on="1"/>
        <pt x="1615" y="2155" on="0"/>
        <pt x="1628" y="2396" on="0"/>
        <pt x="1628" y="2427" on="1"/>
        <pt x="1659" y="2427" on="1"/>
        <pt x="1720" y="522" on="1"/>
        <pt x="1536" y="614" on="1"/>
        <pt x="1468" y="564" on="0"/>
        <pt x="1429" y="417" on="0"/>
        <pt x="1429" y="297" on="1"/>
        <pt x="1429" y="180" on="0"/>
        <pt x="1393" y="42" on="0"/>
        <pt x="1321" y="0" on="1"/>
        <pt x="1251" y="0" on="0"/>
        <pt x="1187" y="17" on="1"/>
        <pt x="1156" y="25" on="0"/>
        <pt x="1061" y="54" on="0"/>
        <pt x="1006" y="73" on="1"/>
        <pt x="888" y="113" on="0"/>
        <pt x="711" y="154" on="0"/>
        <pt x="614" y="154" on="1"/>
        <pt x="575" y="264" on="0"/>
        <pt x="423" y="409" on="0"/>
        <pt x="292" y="492" on="1"/>
        <pt x="227" y="533" on="0"/>
        <pt x="128" y="605" on="0"/>
        <pt x="97" y="635" on="1"/>
        <pt x="31" y="695" on="0"/>
        <pt x="0" y="799" on="1"/>
        <pt x="0" y="2273" on="1"/>
        <pt x="246" y="2273" on="1"/>
        <pt x="268" y="2164" on="1"/>
        <pt x="288" y="2058" on="1"/>
        <pt x="294" y="2025" on="0"/>
        <pt x="300" y="1959" on="1"/>
        <pt x="303" y="1926" on="0"/>
        <pt x="307" y="1869" on="0"/>
        <pt x="307" y="1843" on="1"/>
        <pt x="307" y="1819" on="0"/>
        <pt x="303" y="1704" on="0"/>
        <pt x="303" y="1698" on="1"/>
        <pt x="303" y="1663" on="0"/>
        <pt x="298" y="1599" on="0"/>
        <pt x="292" y="1535" on="1"/>
        <pt x="281" y="1367" on="1"/>
        <pt x="276" y="1229" on="1"/>
        <pt x="276" y="1104" on="0"/>
        <pt x="307" y="889" on="0"/>
        <pt x="380" y="699" on="0"/>
        <pt x="516" y="528" on="0"/>
        <pt x="614" y="461" on="1"/>
        <pt x="1014" y="1106" on="1"/>
        <pt x="1106" y="1014" on="1"/>
        <pt x="1131" y="1106" on="0"/>
        <pt x="1156" y="1236" on="1"/>
        <pt x="1166" y="1290" on="0"/>
        <pt x="1182" y="1411" on="0"/>
        <pt x="1192" y="1525" on="0"/>
        <pt x="1198" y="1655" on="0"/>
        <pt x="1198" y="1720" on="1"/>
        <pt x="1137" y="2274" on="0"/>
        <pt x="1137" y="2550" on="1"/>
        <pt x="1166" y="2550" on="0"/>
        <pt x="1203" y="2567" on="1"/>
        <pt x="1271" y="2601" on="1"/>
        <pt x="1299" y="2615" on="0"/>
        <pt x="1377" y="2642" on="0"/>
      </contour>
      <contour>
        <pt x="922" y="553" on="1"/>
        <pt x="1014" y="829" on="1"/>
        <pt x="952" y="614" on="1"/>
      </contour>
      <contour>
        <pt x="1014" y="461" on="1"/>
        <pt x="1137" y="522" on="1"/>
        <pt x="1198" y="676" on="1"/>
      </contour>
      <contour>
        <pt x="1229" y="61" on="1"/>
        <pt x="1270" y="88" on="0"/>
        <pt x="1295" y="177" on="0"/>
        <pt x="1303" y="257" on="1"/>
        <pt x="1303" y="290" on="0"/>
        <pt x="1313" y="345" on="0"/>
        <pt x="1321" y="369" on="1"/>
        <pt x="1014" y="215" on="1"/>
      </contour>
    </TTGlyph>
    <TTGlyph name="V" xMin="0" yMin="61" xMax="2611" yMax="2796">
      <contour>
        <pt x="2519" y="2796" on="1"/>
        <pt x="2500" y="2706" on="0"/>
        <pt x="2421" y="2561" on="0"/>
        <pt x="2349" y="2451" on="1"/>
        <pt x="2317" y="2401" on="0"/>
        <pt x="2264" y="2304" on="0"/>
        <pt x="2245" y="2262" on="1"/>
        <pt x="2212" y="2182" on="0"/>
        <pt x="2212" y="2089" on="1"/>
        <pt x="2252" y="2101" on="0"/>
        <pt x="2329" y="2150" on="0"/>
        <pt x="2365" y="2150" on="1"/>
        <pt x="2373" y="2150" on="0"/>
        <pt x="2408" y="2129" on="0"/>
        <pt x="2427" y="2089" on="1"/>
        <pt x="2611" y="2488" on="1"/>
        <pt x="2611" y="2424" on="0"/>
        <pt x="2593" y="2307" on="0"/>
        <pt x="2573" y="2250" on="1"/>
        <pt x="2537" y="2139" on="0"/>
        <pt x="2453" y="1977" on="1"/>
        <pt x="2342" y="1752" on="1"/>
        <pt x="2329" y="1721" on="0"/>
        <pt x="2311" y="1648" on="0"/>
        <pt x="2304" y="1597" on="1"/>
        <pt x="2304" y="1504" on="0"/>
        <pt x="2275" y="1331" on="0"/>
        <pt x="2245" y="1222" on="1"/>
        <pt x="2198" y="1042" on="0"/>
        <pt x="2149" y="917" on="1"/>
        <pt x="2117" y="834" on="0"/>
        <pt x="2112" y="822" on="1"/>
        <pt x="2084" y="752" on="0"/>
        <pt x="2061" y="697" on="1"/>
        <pt x="2028" y="619" on="0"/>
        <pt x="1995" y="542" on="1"/>
        <pt x="1946" y="424" on="0"/>
        <pt x="1905" y="319" on="1"/>
        <pt x="1869" y="227" on="0"/>
        <pt x="1843" y="154" on="1"/>
        <pt x="1762" y="92" on="0"/>
        <pt x="1436" y="61" on="0"/>
        <pt x="1198" y="61" on="1"/>
        <pt x="1067" y="326" on="0"/>
        <pt x="972" y="506" on="1"/>
        <pt x="873" y="699" on="0"/>
        <pt x="764" y="881" on="1"/>
        <pt x="651" y="1074" on="0"/>
        <pt x="522" y="1260" on="1"/>
        <pt x="508" y="1385" on="0"/>
        <pt x="458" y="1613" on="0"/>
        <pt x="418" y="1722" on="1"/>
        <pt x="342" y="1934" on="0"/>
        <pt x="65" y="2533" on="0"/>
        <pt x="0" y="2703" on="1"/>
        <pt x="112" y="2703" on="0"/>
        <pt x="256" y="2577" on="0"/>
        <pt x="336" y="2450" on="1"/>
        <pt x="413" y="2329" on="0"/>
        <pt x="522" y="2212" on="0"/>
        <pt x="614" y="2212" on="1"/>
        <pt x="707" y="2089" on="1"/>
        <pt x="729" y="2101" on="0"/>
        <pt x="747" y="2141" on="1"/>
        <pt x="757" y="2162" on="0"/>
        <pt x="771" y="2189" on="0"/>
        <pt x="776" y="2196" on="1"/>
        <pt x="789" y="2212" on="0"/>
        <pt x="829" y="2212" on="1"/>
        <pt x="829" y="2070" on="0"/>
        <pt x="895" y="1765" on="0"/>
        <pt x="1015" y="1451" on="0"/>
        <pt x="1085" y="1307" on="1"/>
        <pt x="1151" y="1173" on="0"/>
        <pt x="1229" y="1044" on="1"/>
        <pt x="1468" y="1189" on="0"/>
        <pt x="1784" y="1599" on="0"/>
        <pt x="2143" y="2296" on="0"/>
        <pt x="2339" y="2625" on="0"/>
      </contour>
      <contour>
        <pt x="2150" y="2089" on="1"/>
        <pt x="2050" y="1949" on="0"/>
        <pt x="2006" y="1817" on="1"/>
        <pt x="1984" y="1752" on="0"/>
        <pt x="1919" y="1537" on="0"/>
        <pt x="1878" y="1391" on="1"/>
        <pt x="1796" y="1095" on="0"/>
        <pt x="1642" y="781" on="0"/>
        <pt x="1505" y="676" on="1"/>
        <pt x="1505" y="862" on="0"/>
        <pt x="1651" y="1208" on="0"/>
        <pt x="1819" y="1462" on="1"/>
        <pt x="1861" y="1526" on="0"/>
        <pt x="1978" y="1708" on="0"/>
        <pt x="1996" y="1738" on="1"/>
        <pt x="2029" y="1792" on="0"/>
        <pt x="2050" y="1827" on="1"/>
        <pt x="2111" y="1931" on="0"/>
      </contour>
      <contour>
        <pt x="1751" y="553" on="1"/>
        <pt x="1751" y="636" on="0"/>
        <pt x="1799" y="750" on="0"/>
        <pt x="1887" y="883" on="0"/>
        <pt x="1935" y="993" on="0"/>
        <pt x="1935" y="1075" on="1"/>
      </contour>
      <contour>
        <pt x="1229" y="246" on="1"/>
        <pt x="1229" y="307" on="1"/>
        <pt x="1106" y="399" on="1"/>
      </contour>
    </TTGlyph>
    <TTGlyph name="W" xMin="0" yMin="0" xMax="3840" yMax="3011">
      <contour>
        <pt x="3809" y="3011" on="1"/>
        <pt x="3809" y="2770" on="0"/>
        <pt x="3760" y="2555" on="1"/>
        <pt x="3737" y="2450" on="0"/>
        <pt x="3673" y="2244" on="0"/>
        <pt x="3635" y="2152" on="1"/>
        <pt x="3558" y="1964" on="0"/>
        <pt x="3460" y="1776" on="1"/>
        <pt x="3226" y="1321" on="1"/>
        <pt x="3287" y="1290" on="1"/>
        <pt x="3325" y="1328" on="0"/>
        <pt x="3406" y="1438" on="1"/>
        <pt x="3482" y="1543" on="0"/>
        <pt x="3526" y="1595" on="1"/>
        <pt x="3567" y="1643" on="0"/>
        <pt x="3712" y="1740" on="0"/>
        <pt x="3809" y="1751" on="1"/>
        <pt x="3809" y="1697" on="0"/>
        <pt x="3787" y="1616" on="0"/>
        <pt x="3748" y="1495" on="0"/>
        <pt x="3748" y="1475" on="1"/>
        <pt x="3748" y="1452" on="0"/>
        <pt x="3773" y="1431" on="1"/>
        <pt x="3799" y="1413" on="0"/>
        <pt x="3840" y="1413" on="1"/>
        <pt x="3410" y="614" on="1"/>
        <pt x="3440" y="605" on="0"/>
        <pt x="3482" y="569" on="0"/>
        <pt x="3494" y="546" on="1"/>
        <pt x="3514" y="491" on="1"/>
        <pt x="3533" y="430" on="1"/>
        <pt x="3441" y="430" on="1"/>
        <pt x="3441" y="439" on="0"/>
        <pt x="3441" y="443" on="1"/>
        <pt x="3441" y="489" on="0"/>
        <pt x="3431" y="522" on="0"/>
        <pt x="3410" y="522" on="1"/>
        <pt x="3359" y="513" on="0"/>
        <pt x="3335" y="459" on="0"/>
        <pt x="3330" y="407" on="1"/>
        <pt x="3330" y="360" on="0"/>
        <pt x="3287" y="307" on="0"/>
        <pt x="3226" y="307" on="1"/>
        <pt x="3226" y="390" on="0"/>
        <pt x="3257" y="491" on="0"/>
        <pt x="3318" y="639" on="0"/>
        <pt x="3318" y="676" on="1"/>
        <pt x="3318" y="720" on="0"/>
        <pt x="3275" y="775" on="0"/>
        <pt x="3226" y="799" on="1"/>
        <pt x="3174" y="737" on="0"/>
        <pt x="3104" y="568" on="0"/>
        <pt x="3054" y="403" on="1"/>
        <pt x="2982" y="172" on="1"/>
        <pt x="2957" y="99" on="0"/>
        <pt x="2918" y="31" on="1"/>
        <pt x="2826" y="215" on="1"/>
        <pt x="2807" y="196" on="0"/>
        <pt x="2796" y="143" on="0"/>
        <pt x="2796" y="92" on="1"/>
        <pt x="2703" y="92" on="1"/>
        <pt x="2617" y="190" on="0"/>
        <pt x="2525" y="371" on="1"/>
        <pt x="2370" y="688" on="1"/>
        <pt x="2305" y="827" on="0"/>
        <pt x="2144" y="1066" on="0"/>
        <pt x="2028" y="1137" on="1"/>
        <pt x="2001" y="1053" on="0"/>
        <pt x="1941" y="957" on="1"/>
        <pt x="1832" y="777" on="1"/>
        <pt x="1783" y="695" on="0"/>
        <pt x="1751" y="603" on="1"/>
        <pt x="1736" y="558" on="0"/>
        <pt x="1720" y="456" on="0"/>
        <pt x="1720" y="399" on="1"/>
        <pt x="1631" y="360" on="0"/>
        <pt x="1593" y="267" on="1"/>
        <pt x="1577" y="227" on="0"/>
        <pt x="1539" y="138" on="0"/>
        <pt x="1521" y="100" on="1"/>
        <pt x="1487" y="25" on="0"/>
        <pt x="1382" y="0" on="1"/>
        <pt x="1360" y="0" on="0"/>
        <pt x="1266" y="90" on="0"/>
        <pt x="1170" y="239" on="0"/>
        <pt x="1106" y="427" on="0"/>
        <pt x="1106" y="522" on="1"/>
        <pt x="1106" y="696" on="0"/>
        <pt x="969" y="942" on="0"/>
        <pt x="660" y="1234" on="0"/>
        <pt x="534" y="1374" on="0"/>
        <pt x="492" y="1505" on="1"/>
        <pt x="388" y="1640" on="0"/>
        <pt x="243" y="1942" on="0"/>
        <pt x="162" y="2207" on="0"/>
        <pt x="39" y="2677" on="0"/>
        <pt x="0" y="2796" on="1"/>
        <pt x="51" y="2787" on="0"/>
        <pt x="69" y="2738" on="1"/>
        <pt x="79" y="2709" on="0"/>
        <pt x="93" y="2637" on="0"/>
        <pt x="93" y="2594" on="1"/>
        <pt x="93" y="2553" on="0"/>
        <pt x="105" y="2475" on="0"/>
        <pt x="116" y="2438" on="1"/>
        <pt x="133" y="2378" on="0"/>
        <pt x="184" y="2335" on="1"/>
        <pt x="213" y="2249" on="0"/>
        <pt x="281" y="2071" on="0"/>
        <pt x="318" y="1988" on="1"/>
        <pt x="389" y="1827" on="0"/>
        <pt x="584" y="1495" on="0"/>
        <pt x="796" y="1223" on="0"/>
        <pt x="922" y="1106" on="1"/>
        <pt x="922" y="1174" on="0"/>
        <pt x="894" y="1346" on="0"/>
        <pt x="846" y="1522" on="1"/>
        <pt x="785" y="1748" on="0"/>
        <pt x="603" y="2190" on="0"/>
        <pt x="492" y="2396" on="1"/>
        <pt x="522" y="2427" on="1"/>
        <pt x="676" y="2304" on="1"/>
        <pt x="922" y="2550" on="1"/>
        <pt x="922" y="2528" on="0"/>
        <pt x="959" y="2488" on="0"/>
        <pt x="983" y="2488" on="1"/>
        <pt x="1013" y="2488" on="0"/>
        <pt x="1037" y="2525" on="0"/>
        <pt x="1059" y="2602" on="0"/>
        <pt x="1095" y="2642" on="0"/>
        <pt x="1137" y="2642" on="1"/>
        <pt x="1151" y="2570" on="0"/>
        <pt x="1174" y="2391" on="1"/>
        <pt x="1184" y="2308" on="0"/>
        <pt x="1206" y="2138" on="0"/>
        <pt x="1212" y="2103" on="1"/>
        <pt x="1227" y="1989" on="0"/>
        <pt x="1280" y="1774" on="0"/>
        <pt x="1321" y="1690" on="1"/>
        <pt x="1351" y="1839" on="0"/>
        <pt x="1412" y="2000" on="1"/>
        <pt x="1443" y="2084" on="0"/>
        <pt x="1506" y="2233" on="0"/>
        <pt x="1546" y="2317" on="1"/>
        <pt x="1622" y="2475" on="0"/>
        <pt x="1683" y="2583" on="1"/>
        <pt x="1874" y="2918" on="1"/>
        <pt x="1843" y="2706" on="1"/>
        <pt x="1813" y="2467" on="1"/>
        <pt x="1805" y="2400" on="0"/>
        <pt x="1790" y="2255" on="0"/>
        <pt x="1790" y="2189" on="1"/>
        <pt x="1790" y="2142" on="0"/>
        <pt x="1782" y="1932" on="0"/>
        <pt x="1782" y="1874" on="1"/>
        <pt x="1905" y="2120" on="0"/>
        <pt x="1905" y="2550" on="1"/>
        <pt x="1929" y="2503" on="0"/>
        <pt x="1984" y="2458" on="0"/>
        <pt x="2028" y="2458" on="1"/>
        <pt x="2090" y="2458" on="0"/>
        <pt x="2153" y="2539" on="1"/>
        <pt x="2185" y="2580" on="0"/>
        <pt x="2229" y="2660" on="0"/>
        <pt x="2243" y="2703" on="1"/>
        <pt x="2243" y="2352" on="0"/>
        <pt x="2307" y="2010" on="1"/>
        <pt x="2339" y="1840" on="0"/>
        <pt x="2445" y="1540" on="0"/>
        <pt x="2519" y="1413" on="1"/>
        <pt x="2757" y="1455" on="0"/>
        <pt x="2985" y="1782" on="0"/>
        <pt x="3158" y="2443" on="0"/>
        <pt x="3279" y="2757" on="0"/>
        <pt x="3441" y="2857" on="1"/>
        <pt x="3533" y="2796" on="1"/>
        <pt x="3597" y="2891" on="0"/>
        <pt x="3728" y="3011" on="0"/>
      </contour>
      <contour>
        <pt x="3594" y="2396" on="1"/>
        <pt x="3717" y="2734" on="1"/>
        <pt x="3625" y="2734" on="1"/>
      </contour>
      <contour>
        <pt x="1075" y="1290" on="1"/>
        <pt x="1014" y="1690" on="1"/>
        <pt x="707" y="2304" on="1"/>
      </contour>
      <contour>
        <pt x="3226" y="2243" on="1"/>
        <pt x="3103" y="1812" on="1"/>
        <pt x="3133" y="1812" on="1"/>
        <pt x="3287" y="2243" on="1"/>
      </contour>
      <contour>
        <pt x="1413" y="1290" on="1"/>
        <pt x="1442" y="1380" on="0"/>
        <pt x="1453" y="1493" on="1"/>
        <pt x="1473" y="1707" on="1"/>
        <pt x="1482" y="1810" on="0"/>
        <pt x="1532" y="1989" on="0"/>
        <pt x="1597" y="2089" on="1"/>
        <pt x="1597" y="2003" on="0"/>
        <pt x="1589" y="1749" on="0"/>
        <pt x="1589" y="1707" on="1"/>
        <pt x="1589" y="1636" on="0"/>
        <pt x="1576" y="1533" on="0"/>
        <pt x="1563" y="1481" on="1"/>
        <pt x="1545" y="1401" on="0"/>
        <pt x="1474" y="1317" on="0"/>
      </contour>
      <contour>
        <pt x="2181" y="1690" on="1"/>
        <pt x="2304" y="1321" on="1"/>
        <pt x="2335" y="1352" on="1"/>
        <pt x="2212" y="1690" on="1"/>
      </contour>
      <contour>
        <pt x="3717" y="1597" on="1"/>
        <pt x="3696" y="1497" on="0"/>
        <pt x="3627" y="1299" on="0"/>
        <pt x="3537" y="1115" on="0"/>
        <pt x="3413" y="915" on="0"/>
        <pt x="3348" y="829" on="1"/>
        <pt x="3348" y="958" on="0"/>
        <pt x="3462" y="1253" on="0"/>
        <pt x="3631" y="1511" on="0"/>
      </contour>
      <contour>
        <pt x="2796" y="891" on="1"/>
        <pt x="2848" y="932" on="0"/>
        <pt x="2908" y="1053" on="0"/>
        <pt x="2925" y="1123" on="1"/>
        <pt x="2933" y="1159" on="0"/>
        <pt x="2942" y="1196" on="1"/>
        <pt x="2948" y="1222" on="0"/>
        <pt x="2963" y="1276" on="1"/>
        <pt x="2983" y="1355" on="0"/>
        <pt x="3011" y="1413" on="1"/>
        <pt x="3002" y="1352" on="0"/>
        <pt x="2917" y="1259" on="0"/>
        <pt x="2766" y="1146" on="0"/>
        <pt x="2703" y="1085" on="0"/>
        <pt x="2703" y="1044" on="1"/>
        <pt x="2703" y="1003" on="0"/>
        <pt x="2742" y="946" on="0"/>
      </contour>
      <contour>
        <pt x="1597" y="829" on="1"/>
        <pt x="1597" y="894" on="0"/>
        <pt x="1617" y="930" on="1"/>
        <pt x="1630" y="953" on="0"/>
        <pt x="1663" y="1003" on="0"/>
        <pt x="1694" y="1048" on="1"/>
        <pt x="1751" y="1129" on="0"/>
        <pt x="1751" y="1167" on="1"/>
        <pt x="1751" y="1207" on="0"/>
        <pt x="1720" y="1260" on="0"/>
        <pt x="1690" y="1290" on="1"/>
        <pt x="1690" y="1248" on="0"/>
        <pt x="1646" y="1184" on="0"/>
        <pt x="1553" y="1085" on="0"/>
        <pt x="1505" y="1002" on="0"/>
        <pt x="1505" y="952" on="1"/>
        <pt x="1505" y="934" on="0"/>
        <pt x="1522" y="911" on="1"/>
        <pt x="1536" y="893" on="0"/>
      </contour>
      <contour>
        <pt x="2673" y="522" on="1"/>
        <pt x="2427" y="1198" on="1"/>
        <pt x="2335" y="1198" on="1"/>
      </contour>
      <contour>
        <pt x="1382" y="707" on="1"/>
        <pt x="1317" y="707" on="0"/>
        <pt x="1292" y="736" on="0"/>
        <pt x="1266" y="816" on="0"/>
        <pt x="1229" y="829" on="1"/>
        <pt x="1282" y="829" on="0"/>
        <pt x="1326" y="799" on="0"/>
        <pt x="1362" y="725" on="0"/>
      </contour>
      <contour>
        <pt x="2980" y="707" on="1"/>
        <pt x="2918" y="430" on="1"/>
        <pt x="2980" y="430" on="1"/>
        <pt x="3011" y="707" on="1"/>
      </contour>
    </TTGlyph>
    <TTGlyph name="X" xMin="0" yMin="31" xMax="2396" yMax="2980">
      <contour>
        <pt x="2396" y="2980" on="1"/>
        <pt x="2355" y="2830" on="0"/>
        <pt x="2193" y="2556" on="0"/>
        <pt x="2089" y="2427" on="1"/>
        <pt x="2053" y="2427" on="0"/>
        <pt x="2006" y="2515" on="0"/>
        <pt x="1997" y="2550" on="1"/>
        <pt x="1983" y="2536" on="0"/>
        <pt x="1963" y="2510" on="0"/>
        <pt x="1955" y="2494" on="1"/>
        <pt x="1940" y="2465" on="0"/>
        <pt x="1919" y="2347" on="0"/>
        <pt x="1911" y="2261" on="0"/>
        <pt x="1911" y="2225" on="1"/>
        <pt x="1911" y="2168" on="0"/>
        <pt x="1910" y="2134" on="1"/>
        <pt x="1905" y="1965" on="0"/>
        <pt x="1905" y="1935" on="1"/>
        <pt x="1729" y="1784" on="0"/>
        <pt x="1615" y="1602" on="1"/>
        <pt x="1505" y="1423" on="0"/>
        <pt x="1505" y="1229" on="1"/>
        <pt x="1505" y="984" on="0"/>
        <pt x="1720" y="768" on="1"/>
        <pt x="1779" y="755" on="0"/>
        <pt x="1878" y="651" on="0"/>
        <pt x="1935" y="505" on="0"/>
        <pt x="1935" y="430" on="1"/>
        <pt x="1837" y="532" on="1"/>
        <pt x="1812" y="559" on="0"/>
        <pt x="1760" y="606" on="0"/>
        <pt x="1733" y="625" on="1"/>
        <pt x="1682" y="663" on="0"/>
        <pt x="1628" y="676" on="1"/>
        <pt x="1628" y="575" on="0"/>
        <pt x="1741" y="339" on="0"/>
        <pt x="1904" y="124" on="0"/>
        <pt x="1997" y="31" on="1"/>
        <pt x="1941" y="31" on="0"/>
        <pt x="1771" y="37" on="0"/>
        <pt x="1743" y="37" on="1"/>
        <pt x="1698" y="37" on="0"/>
        <pt x="1605" y="53" on="0"/>
        <pt x="1541" y="69" on="1"/>
        <pt x="1435" y="96" on="0"/>
        <pt x="1321" y="154" on="1"/>
        <pt x="922" y="614" on="1"/>
        <pt x="891" y="576" on="0"/>
        <pt x="797" y="435" on="1"/>
        <pt x="707" y="298" on="0"/>
        <pt x="540" y="117" on="0"/>
        <pt x="430" y="61" on="1"/>
        <pt x="399" y="307" on="1"/>
        <pt x="354" y="215" on="0"/>
        <pt x="307" y="215" on="1"/>
        <pt x="267" y="215" on="0"/>
        <pt x="205" y="250" on="0"/>
        <pt x="156" y="291" on="1"/>
        <pt x="113" y="326" on="0"/>
        <pt x="92" y="338" on="1"/>
        <pt x="707" y="1167" on="1"/>
        <pt x="632" y="1292" on="0"/>
        <pt x="551" y="1447" on="1"/>
        <pt x="379" y="1779" on="1"/>
        <pt x="287" y="1956" on="0"/>
        <pt x="103" y="2232" on="0"/>
        <pt x="0" y="2335" on="1"/>
        <pt x="31" y="2365" on="1"/>
        <pt x="83" y="2365" on="0"/>
        <pt x="141" y="2327" on="0"/>
        <pt x="208" y="2251" on="0"/>
        <pt x="280" y="2212" on="0"/>
        <pt x="338" y="2212" on="1"/>
        <pt x="338" y="2458" on="1"/>
        <pt x="430" y="2365" on="1"/>
        <pt x="457" y="2377" on="0"/>
        <pt x="463" y="2401" on="1"/>
        <pt x="464" y="2406" on="0"/>
        <pt x="472" y="2453" on="0"/>
        <pt x="478" y="2523" on="0"/>
        <pt x="492" y="2550" on="1"/>
        <pt x="676" y="2550" on="1"/>
        <pt x="1137" y="1720" on="1"/>
        <pt x="1263" y="1846" on="0"/>
        <pt x="1405" y="2006" on="1"/>
        <pt x="1732" y="2370" on="1"/>
        <pt x="1824" y="2472" on="0"/>
        <pt x="1989" y="2642" on="0"/>
        <pt x="2068" y="2716" on="1"/>
        <pt x="2222" y="2860" on="0"/>
      </contour>
      <contour>
        <pt x="2212" y="2826" on="1"/>
        <pt x="2120" y="2580" on="1"/>
        <pt x="2150" y="2580" on="1"/>
        <pt x="2243" y="2796" on="1"/>
      </contour>
      <contour>
        <pt x="707" y="2273" on="1"/>
        <pt x="983" y="1751" on="1"/>
        <pt x="1014" y="1782" on="1"/>
        <pt x="737" y="2304" on="1"/>
      </contour>
      <contour>
        <pt x="829" y="1352" on="1"/>
        <pt x="805" y="1395" on="0"/>
        <pt x="729" y="1547" on="1"/>
        <pt x="696" y="1615" on="0"/>
        <pt x="640" y="1724" on="0"/>
        <pt x="618" y="1762" on="1"/>
        <pt x="577" y="1833" on="0"/>
        <pt x="438" y="1991" on="0"/>
        <pt x="338" y="2058" on="1"/>
        <pt x="737" y="1321" on="1"/>
        <pt x="756" y="1340" on="0"/>
        <pt x="799" y="1352" on="0"/>
      </contour>
      <contour>
        <pt x="1628" y="154" on="1"/>
        <pt x="1137" y="829" on="1"/>
        <pt x="1082" y="829" on="0"/>
        <pt x="1040" y="786" on="0"/>
        <pt x="1021" y="687" on="0"/>
        <pt x="1014" y="676" on="1"/>
        <pt x="1148" y="515" on="0"/>
        <pt x="1235" y="420" on="1"/>
        <pt x="1327" y="319" on="0"/>
        <pt x="1435" y="237" on="1"/>
        <pt x="1489" y="196" on="0"/>
        <pt x="1585" y="154" on="0"/>
      </contour>
    </TTGlyph>
    <TTGlyph name="Y" xMin="0" yMin="61" xMax="2335" yMax="2857">
      <contour>
        <pt x="2273" y="2365" on="1"/>
        <pt x="2251" y="2300" on="0"/>
        <pt x="2190" y="2174" on="0"/>
        <pt x="2147" y="2105" on="1"/>
        <pt x="2066" y="1975" on="0"/>
        <pt x="1979" y="1870" on="1"/>
        <pt x="1962" y="1850" on="0"/>
        <pt x="1876" y="1747" on="0"/>
        <pt x="1846" y="1712" on="1"/>
        <pt x="1812" y="1672" on="0"/>
        <pt x="1762" y="1615" on="1"/>
        <pt x="1625" y="1459" on="0"/>
        <pt x="1567" y="1382" on="1"/>
        <pt x="1505" y="61" on="1"/>
        <pt x="1450" y="61" on="0"/>
        <pt x="1411" y="102" on="0"/>
        <pt x="1400" y="138" on="1"/>
        <pt x="1393" y="173" on="0"/>
        <pt x="1382" y="184" on="1"/>
        <pt x="1335" y="184" on="0"/>
        <pt x="1273" y="161" on="0"/>
        <pt x="1239" y="138" on="1"/>
        <pt x="1209" y="118" on="0"/>
        <pt x="1170" y="103" on="1"/>
        <pt x="1154" y="98" on="0"/>
        <pt x="1106" y="92" on="0"/>
        <pt x="1075" y="92" on="1"/>
        <pt x="1075" y="623" on="0"/>
        <pt x="1026" y="1167" on="0"/>
        <pt x="803" y="1619" on="0"/>
        <pt x="553" y="1812" on="1"/>
        <pt x="532" y="1951" on="0"/>
        <pt x="395" y="2165" on="0"/>
        <pt x="273" y="2298" on="1"/>
        <pt x="148" y="2435" on="0"/>
        <pt x="30" y="2592" on="0"/>
        <pt x="0" y="2703" on="1"/>
        <pt x="176" y="2703" on="0"/>
        <pt x="316" y="2691" on="0"/>
        <pt x="383" y="2642" on="0"/>
        <pt x="399" y="2580" on="1"/>
        <pt x="399" y="2621" on="0"/>
        <pt x="463" y="2673" on="0"/>
        <pt x="492" y="2673" on="1"/>
        <pt x="518" y="2661" on="0"/>
        <pt x="544" y="2650" on="1"/>
        <pt x="560" y="2643" on="0"/>
        <pt x="599" y="2629" on="1"/>
        <pt x="655" y="2611" on="0"/>
        <pt x="676" y="2611" on="1"/>
        <pt x="797" y="2531" on="0"/>
        <pt x="843" y="2402" on="1"/>
        <pt x="886" y="2281" on="0"/>
        <pt x="929" y="2049" on="1"/>
        <pt x="968" y="1823" on="0"/>
        <pt x="1083" y="1558" on="0"/>
        <pt x="1229" y="1475" on="1"/>
        <pt x="1252" y="1498" on="0"/>
        <pt x="1346" y="1531" on="0"/>
        <pt x="1382" y="1555" on="0"/>
        <pt x="1382" y="1597" on="1"/>
        <pt x="1352" y="1659" on="1"/>
        <pt x="1497" y="1782" on="0"/>
        <pt x="1617" y="1917" on="1"/>
        <pt x="1676" y="1984" on="0"/>
        <pt x="1782" y="2120" on="0"/>
        <pt x="1833" y="2197" on="1"/>
        <pt x="1928" y="2338" on="0"/>
        <pt x="2015" y="2506" on="1"/>
        <pt x="2096" y="2661" on="0"/>
        <pt x="2181" y="2857" on="1"/>
        <pt x="2189" y="2825" on="0"/>
        <pt x="2205" y="2792" on="1"/>
        <pt x="2260" y="2694" on="1"/>
        <pt x="2300" y="2625" on="0"/>
        <pt x="2335" y="2550" on="0"/>
        <pt x="2335" y="2519" on="1"/>
        <pt x="2335" y="2500" on="0"/>
        <pt x="2333" y="2483" on="0"/>
        <pt x="2320" y="2449" on="0"/>
        <pt x="2297" y="2408" on="1"/>
      </contour>
      <contour>
        <pt x="891" y="1997" on="1"/>
        <pt x="797" y="2148" on="1"/>
        <pt x="674" y="2344" on="1"/>
        <pt x="632" y="2408" on="0"/>
        <pt x="517" y="2546" on="0"/>
        <pt x="461" y="2580" on="1"/>
        <pt x="517" y="2580" on="0"/>
        <pt x="601" y="2544" on="0"/>
        <pt x="632" y="2510" on="1"/>
        <pt x="688" y="2451" on="0"/>
        <pt x="745" y="2273" on="0"/>
        <pt x="823" y="2056" on="0"/>
      </contour>
      <contour>
        <pt x="983" y="1444" on="1"/>
        <pt x="899" y="1487" on="0"/>
        <pt x="849" y="1550" on="1"/>
        <pt x="803" y="1613" on="0"/>
        <pt x="753" y="1724" on="1"/>
        <pt x="707" y="1829" on="0"/>
        <pt x="675" y="1891" on="1"/>
        <pt x="647" y="1945" on="0"/>
        <pt x="584" y="1997" on="1"/>
      </contour>
      <contour>
        <pt x="1352" y="983" on="1"/>
        <pt x="1290" y="492" on="1"/>
        <pt x="1352" y="492" on="1"/>
        <pt x="1382" y="983" on="1"/>
      </contour>
    </TTGlyph>
    <TTGlyph name="Z" xMin="0" yMin="0" xMax="3564" yMax="3195">
      <contour>
        <pt x="2550" y="2980" on="1"/>
        <pt x="2578" y="2872" on="1"/>
        <pt x="2604" y="2764" on="1"/>
        <pt x="2607" y="2749" on="0"/>
        <pt x="2611" y="2719" on="0"/>
        <pt x="2611" y="2703" on="1"/>
        <pt x="2611" y="2457" on="0"/>
        <pt x="2305" y="2110" on="0"/>
        <pt x="1689" y="1686" on="0"/>
        <pt x="1363" y="1372" on="0"/>
        <pt x="1321" y="1137" on="1"/>
        <pt x="1449" y="1137" on="0"/>
        <pt x="1667" y="1125" on="0"/>
        <pt x="1871" y="1099" on="0"/>
        <pt x="2072" y="1067" on="0"/>
        <pt x="2167" y="1046" on="1"/>
        <pt x="2539" y="969" on="1"/>
        <pt x="2711" y="935" on="0"/>
        <pt x="2857" y="922" on="1"/>
        <pt x="2550" y="522" on="1"/>
        <pt x="2647" y="436" on="0"/>
        <pt x="2773" y="359" on="1"/>
        <pt x="2893" y="286" on="0"/>
        <pt x="3024" y="225" on="1"/>
        <pt x="3091" y="194" on="0"/>
        <pt x="3210" y="142" on="0"/>
        <pt x="3278" y="114" on="1"/>
        <pt x="3564" y="0" on="1"/>
        <pt x="3396" y="30" on="0"/>
        <pt x="3253" y="96" on="1"/>
        <pt x="3106" y="165" on="0"/>
        <pt x="2848" y="307" on="1"/>
        <pt x="2582" y="452" on="0"/>
        <pt x="2408" y="517" on="1"/>
        <pt x="2321" y="550" on="0"/>
        <pt x="2147" y="584" on="0"/>
        <pt x="2058" y="584" on="1"/>
        <pt x="1941" y="584" on="0"/>
        <pt x="1807" y="565" on="0"/>
        <pt x="1720" y="522" on="1"/>
        <pt x="1609" y="432" on="0"/>
        <pt x="1245" y="307" on="0"/>
        <pt x="1106" y="307" on="1"/>
        <pt x="461" y="584" on="1"/>
        <pt x="461" y="634" on="0"/>
        <pt x="483" y="672" on="1"/>
        <pt x="505" y="713" on="0"/>
        <pt x="596" y="826" on="0"/>
        <pt x="645" y="919" on="0"/>
        <pt x="645" y="983" on="1"/>
        <pt x="797" y="1069" on="0"/>
        <pt x="962" y="1215" on="1"/>
        <pt x="1121" y="1357" on="0"/>
        <pt x="1279" y="1531" on="1"/>
        <pt x="1433" y="1701" on="0"/>
        <pt x="1574" y="1883" on="1"/>
        <pt x="1605" y="1923" on="0"/>
        <pt x="1666" y="2003" on="1"/>
        <pt x="1723" y="2078" on="0"/>
        <pt x="1756" y="2123" on="1"/>
        <pt x="1794" y="2174" on="0"/>
        <pt x="1843" y="2243" on="1"/>
        <pt x="1798" y="2243" on="0"/>
        <pt x="1634" y="2249" on="0"/>
        <pt x="1596" y="2249" on="1"/>
        <pt x="1538" y="2249" on="0"/>
        <pt x="1430" y="2260" on="1"/>
        <pt x="1368" y="2266" on="0"/>
        <pt x="1306" y="2273" on="1"/>
        <pt x="1041" y="2297" on="1"/>
        <pt x="1006" y="2297" on="0"/>
        <pt x="880" y="2304" on="0"/>
        <pt x="860" y="2304" on="1"/>
        <pt x="808" y="2304" on="0"/>
        <pt x="670" y="2299" on="0"/>
        <pt x="667" y="2299" on="1"/>
        <pt x="634" y="2299" on="0"/>
        <pt x="557" y="2286" on="0"/>
        <pt x="478" y="2264" on="0"/>
        <pt x="404" y="2234" on="0"/>
        <pt x="369" y="2212" on="1"/>
        <pt x="345" y="2223" on="0"/>
        <pt x="309" y="2226" on="1"/>
        <pt x="253" y="2229" on="1"/>
        <pt x="229" y="2229" on="0"/>
        <pt x="215" y="2243" on="1"/>
        <pt x="215" y="2365" on="1"/>
        <pt x="309" y="2365" on="0"/>
        <pt x="428" y="2381" on="0"/>
        <pt x="522" y="2447" on="0"/>
        <pt x="522" y="2519" on="1"/>
        <pt x="510" y="2545" on="0"/>
        <pt x="462" y="2559" on="0"/>
        <pt x="359" y="2569" on="0"/>
        <pt x="338" y="2580" on="1"/>
        <pt x="246" y="2488" on="1"/>
        <pt x="154" y="2580" on="1"/>
        <pt x="311" y="2636" on="0"/>
        <pt x="698" y="2719" on="0"/>
        <pt x="935" y="2747" on="1"/>
        <pt x="992" y="2753" on="0"/>
        <pt x="1210" y="2774" on="0"/>
        <pt x="1370" y="2784" on="0"/>
        <pt x="1467" y="2784" on="1"/>
        <pt x="1555" y="2784" on="0"/>
        <pt x="1791" y="2789" on="0"/>
        <pt x="2082" y="2796" on="0"/>
        <pt x="2150" y="2796" on="1"/>
        <pt x="2150" y="2804" on="0"/>
        <pt x="2117" y="2826" on="0"/>
        <pt x="2058" y="2826" on="1"/>
        <pt x="2028" y="2796" on="0"/>
        <pt x="2028" y="2703" on="1"/>
        <pt x="2059" y="2703" on="0"/>
        <pt x="2084" y="2700" on="0"/>
        <pt x="2106" y="2695" on="1"/>
        <pt x="2144" y="2689" on="0"/>
        <pt x="2183" y="2676" on="1"/>
        <pt x="2264" y="2653" on="1"/>
        <pt x="2283" y="2648" on="0"/>
        <pt x="2320" y="2642" on="0"/>
        <pt x="2335" y="2642" on="1"/>
        <pt x="2361" y="2642" on="0"/>
        <pt x="2436" y="2693" on="0"/>
        <pt x="2458" y="2734" on="1"/>
        <pt x="2458" y="2829" on="0"/>
        <pt x="2369" y="2922" on="0"/>
        <pt x="2289" y="2940" on="1"/>
        <pt x="2147" y="2971" on="1"/>
        <pt x="2086" y="2983" on="0"/>
        <pt x="2058" y="3011" on="1"/>
        <pt x="1925" y="3011" on="0"/>
        <pt x="1680" y="3011" on="0"/>
        <pt x="1475" y="3012" on="0"/>
        <pt x="1383" y="3013" on="1"/>
        <pt x="1302" y="3013" on="0"/>
        <pt x="1138" y="3019" on="0"/>
        <pt x="947" y="3027" on="0"/>
        <pt x="892" y="3027" on="1"/>
        <pt x="779" y="3027" on="0"/>
        <pt x="654" y="3038" on="1"/>
        <pt x="610" y="3042" on="0"/>
        <pt x="426" y="3063" on="1"/>
        <pt x="202" y="3089" on="0"/>
        <pt x="0" y="3133" on="1"/>
        <pt x="31" y="3195" on="1"/>
        <pt x="125" y="3195" on="0"/>
        <pt x="334" y="3178" on="0"/>
        <pt x="558" y="3161" on="0"/>
        <pt x="641" y="3161" on="1"/>
        <pt x="770" y="3161" on="0"/>
        <pt x="1101" y="3122" on="0"/>
        <pt x="1254" y="3104" on="1"/>
        <pt x="1912" y="3036" on="1"/>
        <pt x="2014" y="3026" on="0"/>
        <pt x="2284" y="2996" on="0"/>
        <pt x="2352" y="2990" on="1"/>
        <pt x="2470" y="2980" on="0"/>
      </contour>
      <contour>
        <pt x="1720" y="2703" on="1"/>
        <pt x="1640" y="2703" on="0"/>
        <pt x="1581" y="2700" on="0"/>
        <pt x="1525" y="2695" on="1"/>
        <pt x="1332" y="2680" on="1"/>
        <pt x="1299" y="2680" on="0"/>
        <pt x="1163" y="2673" on="0"/>
        <pt x="1137" y="2673" on="1"/>
        <pt x="1160" y="2678" on="0"/>
        <pt x="1219" y="2685" on="0"/>
        <pt x="1248" y="2685" on="1"/>
        <pt x="1299" y="2685" on="0"/>
        <pt x="1381" y="2687" on="0"/>
        <pt x="1418" y="2688" on="1"/>
        <pt x="1455" y="2688" on="0"/>
        <pt x="1569" y="2690" on="0"/>
        <pt x="1589" y="2690" on="1"/>
        <pt x="1617" y="2690" on="0"/>
        <pt x="1683" y="2697" on="0"/>
      </contour>
      <contour>
        <pt x="1352" y="983" on="1"/>
        <pt x="1843" y="1014" on="1"/>
        <pt x="1413" y="1014" on="1"/>
      </contour>
      <contour>
        <pt x="1536" y="799" on="1"/>
        <pt x="1905" y="799" on="1"/>
        <pt x="1659" y="829" on="1"/>
      </contour>
      <contour>
        <pt x="2243" y="768" on="1"/>
        <pt x="2580" y="829" on="1"/>
        <pt x="2335" y="829" on="1"/>
        <pt x="2335" y="707" on="1"/>
        <pt x="2335" y="722" on="0"/>
        <pt x="2325" y="729" on="1"/>
        <pt x="2287" y="748" on="1"/>
      </contour>
      <contour>
        <pt x="1106" y="768" on="1"/>
        <pt x="1106" y="799" on="1"/>
        <pt x="952" y="799" on="1"/>
      </contour>
      <contour>
        <pt x="1536" y="522" on="1"/>
        <pt x="1450" y="522" on="0"/>
        <pt x="1383" y="529" on="1"/>
        <pt x="1345" y="529" on="0"/>
        <pt x="1209" y="550" on="0"/>
        <pt x="1176" y="554" on="1"/>
        <pt x="913" y="589" on="1"/>
        <pt x="851" y="597" on="0"/>
        <pt x="719" y="614" on="0"/>
        <pt x="676" y="614" on="1"/>
        <pt x="734" y="603" on="0"/>
        <pt x="861" y="556" on="1"/>
        <pt x="924" y="533" on="0"/>
        <pt x="976" y="515" on="1"/>
        <pt x="1015" y="502" on="0"/>
        <pt x="1069" y="485" on="1"/>
        <pt x="1150" y="461" on="0"/>
        <pt x="1229" y="461" on="1"/>
        <pt x="1268" y="461" on="0"/>
        <pt x="1326" y="463" on="0"/>
        <pt x="1354" y="464" on="1"/>
        <pt x="1377" y="464" on="0"/>
        <pt x="1411" y="470" on="0"/>
        <pt x="1445" y="479" on="1"/>
        <pt x="1490" y="491" on="0"/>
      </contour>
    </TTGlyph>
    <TTGlyph name="a" xMin="55" yMin="0" xMax="1032" yMax="1788">
      <contour>
        <pt x="1032" y="1567" on="1"/>
        <pt x="1032" y="0" on="1"/>
        <pt x="1016" y="58" on="0"/>
        <pt x="1010" y="127" on="1"/>
        <pt x="1010" y="154" on="0"/>
        <pt x="1005" y="274" on="0"/>
        <pt x="1005" y="295" on="1"/>
        <pt x="1005" y="312" on="0"/>
        <pt x="1005" y="320" on="1"/>
        <pt x="1005" y="334" on="0"/>
        <pt x="1005" y="341" on="1"/>
        <pt x="1005" y="353" on="0"/>
        <pt x="1005" y="359" on="1"/>
        <pt x="1005" y="369" on="0"/>
        <pt x="1005" y="374" on="1"/>
        <pt x="1005" y="382" on="0"/>
        <pt x="1005" y="386" on="1"/>
        <pt x="1005" y="406" on="0"/>
        <pt x="1003" y="446" on="0"/>
        <pt x="1000" y="463" on="1"/>
        <pt x="1000" y="496" on="0"/>
        <pt x="989" y="552" on="0"/>
        <pt x="977" y="590" on="1"/>
        <pt x="961" y="527" on="0"/>
        <pt x="955" y="462" on="1"/>
        <pt x="955" y="437" on="0"/>
        <pt x="950" y="331" on="0"/>
        <pt x="950" y="313" on="1"/>
        <pt x="950" y="299" on="0"/>
        <pt x="950" y="292" on="1"/>
        <pt x="950" y="280" on="0"/>
        <pt x="950" y="274" on="1"/>
        <pt x="950" y="264" on="0"/>
        <pt x="950" y="259" on="1"/>
        <pt x="950" y="250" on="0"/>
        <pt x="950" y="246" on="1"/>
        <pt x="950" y="239" on="0"/>
        <pt x="950" y="235" on="1"/>
        <pt x="950" y="216" on="0"/>
        <pt x="948" y="181" on="0"/>
        <pt x="945" y="165" on="1"/>
        <pt x="945" y="140" on="0"/>
        <pt x="938" y="94" on="0"/>
        <pt x="922" y="37" on="1"/>
        <pt x="892" y="55" on="0"/>
        <pt x="883" y="80" on="1"/>
        <pt x="862" y="166" on="1"/>
        <pt x="850" y="228" on="0"/>
        <pt x="807" y="289" on="0"/>
        <pt x="756" y="295" on="1"/>
        <pt x="722" y="318" on="0"/>
        <pt x="712" y="348" on="1"/>
        <pt x="709" y="360" on="0"/>
        <pt x="703" y="397" on="0"/>
        <pt x="695" y="469" on="0"/>
        <pt x="685" y="511" on="0"/>
        <pt x="675" y="528" on="1"/>
        <pt x="660" y="558" on="0"/>
        <pt x="608" y="571" on="1"/>
        <pt x="522" y="516" on="0"/>
        <pt x="424" y="516" on="1"/>
        <pt x="402" y="516" on="0"/>
        <pt x="358" y="522" on="0"/>
        <pt x="332" y="530" on="1"/>
        <pt x="282" y="544" on="0"/>
        <pt x="240" y="571" on="1"/>
        <pt x="224" y="577" on="0"/>
        <pt x="204" y="598" on="1"/>
        <pt x="172" y="639" on="1"/>
        <pt x="160" y="657" on="0"/>
        <pt x="130" y="682" on="0"/>
        <pt x="111" y="682" on="1"/>
        <pt x="93" y="682" on="0"/>
        <pt x="55" y="645" on="1"/>
        <pt x="55" y="824" on="0"/>
        <pt x="229" y="1083" on="0"/>
        <pt x="369" y="1161" on="1"/>
        <pt x="663" y="1126" on="0"/>
        <pt x="811" y="1087" on="1"/>
        <pt x="826" y="1110" on="0"/>
        <pt x="830" y="1131" on="1"/>
        <pt x="838" y="1202" on="1"/>
        <pt x="838" y="1226" on="0"/>
        <pt x="843" y="1260" on="0"/>
        <pt x="848" y="1272" on="1"/>
        <pt x="836" y="1295" on="0"/>
        <pt x="806" y="1309" on="0"/>
        <pt x="774" y="1309" on="1"/>
        <pt x="752" y="1309" on="0"/>
        <pt x="669" y="1281" on="1"/>
        <pt x="624" y="1266" on="0"/>
        <pt x="563" y="1253" on="0"/>
        <pt x="535" y="1253" on="1"/>
        <pt x="480" y="1253" on="0"/>
        <pt x="424" y="1309" on="1"/>
        <pt x="313" y="1253" on="1"/>
        <pt x="276" y="1293" on="0"/>
        <pt x="276" y="1309" on="1"/>
        <pt x="276" y="1350" on="0"/>
        <pt x="348" y="1419" on="0"/>
        <pt x="387" y="1419" on="1"/>
        <pt x="424" y="1419" on="1"/>
        <pt x="424" y="1540" on="0"/>
        <pt x="581" y="1604" on="0"/>
        <pt x="719" y="1604" on="1"/>
        <pt x="799" y="1589" on="0"/>
        <pt x="940" y="1470" on="0"/>
        <pt x="940" y="1382" on="1"/>
        <pt x="949" y="1400" on="0"/>
        <pt x="954" y="1415" on="1"/>
        <pt x="956" y="1422" on="0"/>
        <pt x="977" y="1495" on="0"/>
        <pt x="977" y="1530" on="1"/>
        <pt x="977" y="1679" on="0"/>
        <pt x="848" y="1733" on="1"/>
        <pt x="777" y="1733" on="0"/>
        <pt x="650" y="1716" on="0"/>
        <pt x="543" y="1676" on="0"/>
        <pt x="498" y="1640" on="1"/>
        <pt x="498" y="1682" on="0"/>
        <pt x="563" y="1733" on="0"/>
        <pt x="613" y="1751" on="1"/>
        <pt x="719" y="1788" on="1"/>
        <pt x="821" y="1788" on="0"/>
        <pt x="971" y="1674" on="0"/>
      </contour>
      <contour>
        <pt x="811" y="1456" on="1"/>
        <pt x="793" y="1493" on="1"/>
        <pt x="682" y="1493" on="1"/>
      </contour>
      <contour>
        <pt x="756" y="958" on="1"/>
        <pt x="700" y="1014" on="0"/>
        <pt x="627" y="1014" on="1"/>
        <pt x="600" y="1014" on="0"/>
        <pt x="548" y="1002" on="0"/>
        <pt x="520" y="988" on="1"/>
        <pt x="468" y="962" on="0"/>
        <pt x="388" y="875" on="0"/>
        <pt x="369" y="829" on="1"/>
        <pt x="408" y="755" on="0"/>
        <pt x="566" y="681" on="0"/>
        <pt x="682" y="664" on="1"/>
        <pt x="732" y="725" on="0"/>
        <pt x="756" y="853" on="0"/>
      </contour>
      <contour>
        <pt x="940" y="1014" on="1"/>
        <pt x="922" y="608" on="1"/>
        <pt x="940" y="608" on="1"/>
        <pt x="977" y="1014" on="1"/>
      </contour>
    </TTGlyph>
    <TTGlyph name="ampersand" xMin="74" yMin="0" xMax="1511" yMax="2028">
      <contour>
        <pt x="903" y="1880" on="1"/>
        <pt x="866" y="1803" on="0"/>
        <pt x="866" y="1788" on="1"/>
        <pt x="866" y="1740" on="0"/>
        <pt x="894" y="1690" on="1"/>
        <pt x="949" y="1591" on="1"/>
        <pt x="977" y="1540" on="0"/>
        <pt x="977" y="1493" on="1"/>
        <pt x="977" y="1458" on="0"/>
        <pt x="967" y="1409" on="0"/>
        <pt x="940" y="1382" on="1"/>
        <pt x="923" y="1353" on="0"/>
        <pt x="747" y="1232" on="0"/>
        <pt x="645" y="1110" on="0"/>
        <pt x="645" y="1014" on="1"/>
        <pt x="675" y="1014" on="0"/>
        <pt x="732" y="987" on="1"/>
        <pt x="817" y="950" on="1"/>
        <pt x="849" y="940" on="0"/>
        <pt x="903" y="940" on="1"/>
        <pt x="936" y="962" on="0"/>
        <pt x="971" y="1005" on="1"/>
        <pt x="1055" y="1103" on="1"/>
        <pt x="1103" y="1159" on="0"/>
        <pt x="1215" y="1217" on="0"/>
        <pt x="1290" y="1217" on="1"/>
        <pt x="1255" y="1180" on="0"/>
        <pt x="1235" y="1088" on="0"/>
        <pt x="1235" y="1014" on="1"/>
        <pt x="1265" y="985" on="0"/>
        <pt x="1290" y="947" on="0"/>
        <pt x="1290" y="922" on="1"/>
        <pt x="1290" y="885" on="0"/>
        <pt x="1270" y="849" on="1"/>
        <pt x="1261" y="832" on="0"/>
        <pt x="1230" y="782" on="0"/>
        <pt x="1208" y="751" on="1"/>
        <pt x="1167" y="690" on="0"/>
        <pt x="1124" y="602" on="0"/>
        <pt x="1124" y="553" on="1"/>
        <pt x="1158" y="509" on="0"/>
        <pt x="1220" y="468" on="1"/>
        <pt x="1356" y="379" on="1"/>
        <pt x="1431" y="331" on="0"/>
        <pt x="1471" y="278" on="1"/>
        <pt x="1491" y="251" on="0"/>
        <pt x="1511" y="188" on="0"/>
        <pt x="1511" y="147" on="1"/>
        <pt x="1511" y="111" on="0"/>
        <pt x="1475" y="0" on="1"/>
        <pt x="1399" y="20" on="0"/>
        <pt x="1114" y="205" on="0"/>
        <pt x="932" y="295" on="0"/>
        <pt x="811" y="295" on="1"/>
        <pt x="728" y="350" on="0"/>
        <pt x="682" y="350" on="1"/>
        <pt x="647" y="350" on="0"/>
        <pt x="567" y="329" on="1"/>
        <pt x="455" y="302" on="1"/>
        <pt x="438" y="299" on="0"/>
        <pt x="387" y="295" on="0"/>
        <pt x="350" y="295" on="1"/>
        <pt x="111" y="461" on="1"/>
        <pt x="74" y="570" on="0"/>
        <pt x="74" y="627" on="1"/>
        <pt x="74" y="686" on="0"/>
        <pt x="109" y="798" on="0"/>
        <pt x="135" y="852" on="1"/>
        <pt x="196" y="981" on="1"/>
        <pt x="211" y="1013" on="0"/>
        <pt x="233" y="1066" on="0"/>
        <pt x="240" y="1087" on="1"/>
        <pt x="218" y="1122" on="0"/>
        <pt x="186" y="1251" on="0"/>
        <pt x="184" y="1253" on="1"/>
        <pt x="184" y="1292" on="0"/>
        <pt x="196" y="1369" on="0"/>
        <pt x="211" y="1428" on="1"/>
        <pt x="219" y="1457" on="0"/>
        <pt x="228" y="1500" on="0"/>
        <pt x="236" y="1547" on="0"/>
        <pt x="240" y="1594" on="0"/>
        <pt x="240" y="1622" on="1"/>
        <pt x="269" y="1657" on="0"/>
        <pt x="283" y="1715" on="1"/>
        <pt x="309" y="1824" on="1"/>
        <pt x="321" y="1876" on="0"/>
        <pt x="379" y="1954" on="0"/>
        <pt x="442" y="1972" on="1"/>
        <pt x="554" y="2028" on="0"/>
        <pt x="645" y="2028" on="1"/>
        <pt x="723" y="2028" on="0"/>
        <pt x="842" y="1956" on="0"/>
      </contour>
      <contour>
        <pt x="535" y="1917" on="1"/>
        <pt x="451" y="1833" on="1"/>
        <pt x="399" y="1781" on="0"/>
        <pt x="340" y="1702" on="0"/>
        <pt x="303" y="1611" on="0"/>
        <pt x="295" y="1548" on="1"/>
        <pt x="303" y="1565" on="0"/>
        <pt x="327" y="1650" on="1"/>
        <pt x="348" y="1728" on="0"/>
        <pt x="391" y="1827" on="0"/>
        <pt x="469" y="1904" on="0"/>
      </contour>
      <contour>
        <pt x="756" y="1843" on="1"/>
        <pt x="756" y="1782" on="0"/>
        <pt x="696" y="1707" on="0"/>
        <pt x="638" y="1682" on="1"/>
        <pt x="612" y="1671" on="0"/>
        <pt x="583" y="1660" on="1"/>
        <pt x="561" y="1652" on="0"/>
        <pt x="533" y="1642" on="1"/>
        <pt x="486" y="1626" on="0"/>
        <pt x="461" y="1604" on="1"/>
        <pt x="461" y="1625" on="0"/>
        <pt x="510" y="1690" on="0"/>
        <pt x="553" y="1730" on="1"/>
        <pt x="591" y="1763" on="0"/>
        <pt x="649" y="1798" on="1"/>
        <pt x="678" y="1815" on="0"/>
        <pt x="728" y="1836" on="0"/>
      </contour>
      <contour>
        <pt x="829" y="1382" on="1"/>
        <pt x="829" y="1539" on="0"/>
        <pt x="885" y="1622" on="1"/>
      </contour>
      <contour>
        <pt x="719" y="1567" on="1"/>
        <pt x="698" y="1554" on="0"/>
        <pt x="644" y="1531" on="1"/>
        <pt x="595" y="1511" on="0"/>
        <pt x="553" y="1489" on="1"/>
        <pt x="516" y="1470" on="0"/>
        <pt x="457" y="1411" on="0"/>
        <pt x="442" y="1364" on="1"/>
        <pt x="479" y="1309" on="1"/>
        <pt x="568" y="1309" on="0"/>
        <pt x="642" y="1389" on="0"/>
        <pt x="694" y="1542" on="0"/>
      </contour>
      <contour>
        <pt x="1198" y="958" on="1"/>
        <pt x="1198" y="901" on="0"/>
        <pt x="1173" y="846" on="0"/>
        <pt x="1113" y="756" on="0"/>
        <pt x="1106" y="719" on="1"/>
        <pt x="1112" y="753" on="0"/>
        <pt x="1130" y="815" on="0"/>
        <pt x="1144" y="849" on="1"/>
        <pt x="1168" y="912" on="0"/>
      </contour>
      <contour>
        <pt x="350" y="535" on="1"/>
        <pt x="391" y="774" on="1"/>
        <pt x="406" y="866" on="0"/>
        <pt x="406" y="940" on="1"/>
        <pt x="332" y="885" on="1"/>
        <pt x="258" y="773" on="0"/>
        <pt x="258" y="664" on="1"/>
        <pt x="258" y="607" on="0"/>
        <pt x="310" y="535" on="0"/>
      </contour>
      <contour>
        <pt x="700" y="737" on="1"/>
        <pt x="535" y="811" on="1"/>
        <pt x="535" y="771" on="0"/>
        <pt x="525" y="740" on="1"/>
        <pt x="517" y="710" on="0"/>
        <pt x="482" y="622" on="0"/>
        <pt x="461" y="530" on="0"/>
        <pt x="461" y="479" on="1"/>
        <pt x="700" y="671" on="0"/>
      </contour>
      <contour>
        <pt x="774" y="645" on="1"/>
        <pt x="645" y="516" on="1"/>
        <pt x="664" y="479" on="1"/>
        <pt x="793" y="627" on="1"/>
      </contour>
      <contour>
        <pt x="1419" y="147" on="1"/>
        <pt x="1419" y="221" on="1"/>
        <pt x="1143" y="424" on="1"/>
      </contour>
    </TTGlyph>
</ttFont>
